<?xml version="1.0" encoding="UTF-8"?>
<svg version="1.1" xmlns="http://www.w3.org/2000/svg" width="1024" height="1024">
<path d="M0 0 C0.71728271 0.30776367 1.43456543 0.61552734 2.17358398 0.93261719 C17.69590798 7.87298214 35.0521542 20.40442673 46.5 33 C46.5 33.66 46.5 34.32 46.5 35 C47.16 35 47.82 35 48.5 35 C51.08265147 37.42452996 53.25027936 40.26963886 55.5 43 C56.33144531 43.99515625 57.16289063 44.9903125 58.01953125 46.015625 C86.46144468 80.68614704 100.41597335 123.93122882 96.00390625 168.71875 C93.96789902 186.17571187 89.77160156 202.97889755 82.5 219 C82.20754395 219.64533691 81.91508789 220.29067383 81.61376953 220.95556641 C66.37387044 254.02509863 40.49620271 281.17530562 8.27539062 298.06103516 C6.72550463 298.88073559 5.19662064 299.73990182 3.671875 300.60546875 C-34.71621682 321.53932584 -84.94475367 324.14020435 -126.39648438 312.16308594 C-139.3533692 308.25946217 -151.74822594 303.74531732 -163.5 297 C-164.16435059 296.62117676 -164.82870117 296.24235352 -165.51318359 295.85205078 C-175.37445033 290.14929028 -184.04490867 283.60657132 -192.5 276 C-193.49128906 275.12988281 -194.48257813 274.25976562 -195.50390625 273.36328125 C-228.05642408 244.44247289 -245.27730196 203.09631146 -248.05004883 160.19995117 C-250.47507511 115.78542873 -234.73929187 74.38156553 -205.39916992 41.21679688 C-203.15585467 38.7550913 -200.84775242 36.36144899 -198.5 34 C-198.02014648 33.51611816 -197.54029297 33.03223633 -197.04589844 32.53369141 C-144.32763631 -19.89111609 -66.60953526 -28.95040953 0 0 Z " fill="#3A84FE" transform="translate(589.5,357)"/>
<path d="M0 0 C0.8878418 0.22026855 1.77568359 0.44053711 2.69042969 0.66748047 C16.65554658 4.21675436 29.81507251 9.22204915 43 15 C43.74701172 15.32194336 44.49402344 15.64388672 45.26367188 15.97558594 C70.57845407 26.95927243 93.45134146 42.67897552 114 61 C114.5966748 61.52964355 115.19334961 62.05928711 115.80810547 62.60498047 C117.65124834 64.24850151 119.48408641 65.90261758 121.3125 67.5625 C121.88274902 68.07570801 122.45299805 68.58891602 123.04052734 69.11767578 C124.40006178 70.37000073 125.70574197 71.68032283 127 73 C127 73.66 127 74.32 127 75 C127.86625 75.309375 127.86625 75.309375 128.75 75.625 C131.99201101 77.60622895 133.22859812 79.64044471 135 83 C136.36953625 90.81113407 135.70543005 98.25711844 135.0625 106.125 C131.72420774 150.81122715 133.76342742 203.45442909 162.6171875 240.30078125 C165.83004693 243.94026628 169.3218668 247.13231369 173.03125 250.2578125 C175 252 175 252 176 254 C176.45773803 264.5174934 175.79038973 275.07451066 175.1953125 285.57421875 C175.11025219 287.11586076 175.02536623 288.65751239 174.94064331 290.19917297 C174.7635809 293.40191086 174.58331203 296.60444851 174.40087891 299.80688477 C174.16940925 303.87748768 173.94783399 307.94856234 173.72886848 312.01985455 C173.55675348 315.1937143 173.37846364 318.36720591 173.19848251 321.54062843 C173.11429591 323.04057142 173.03215214 324.54063073 172.9522438 326.04080772 C171.66815853 349.9876041 171.66815853 349.9876041 166.5625 360.125 C166.21396973 360.83672363 165.86543945 361.54844727 165.50634766 362.28173828 C136.44490671 420.26520637 82.9410602 468.71220869 22 491 C21.31744141 491.24991699 20.63488281 491.49983398 19.93164062 491.75732422 C-33.33405839 510.97050065 -90.32418195 510.21762954 -144 493 C-145.01586182 492.67443115 -145.01586182 492.67443115 -146.05224609 492.34228516 C-171.62205799 483.918298 -194.71646967 470.2473927 -216 454 C-217.56427734 452.81083984 -217.56427734 452.81083984 -219.16015625 451.59765625 C-224.27516234 447.61931818 -224.27516234 447.61931818 -226 446 C-226 445.34 -226 444.68 -226 444 C-226.58628174 443.73823975 -227.17256348 443.47647949 -227.77661133 443.20678711 C-230.12431048 441.93252809 -231.68581889 440.57261122 -233.57421875 438.69140625 C-234.23728027 438.03253418 -234.9003418 437.37366211 -235.58349609 436.69482422 C-236.27781738 435.99115723 -236.97213867 435.28749023 -237.6875 434.5625 C-238.40502441 433.83820801 -239.12254883 433.11391602 -239.86181641 432.36767578 C-252.86293352 419.11353851 -267.56007207 403.82196024 -268.41723633 384.75170898 C-268.45005361 384.0428763 -268.48287088 383.33404362 -268.51668262 382.60373116 C-268.62537479 380.23466592 -268.72876044 377.86540106 -268.83203125 375.49609375 C-268.9091171 373.78554652 -268.98646595 372.07501112 -269.0640564 370.36448669 C-269.27447621 365.69974648 -269.47981413 361.03479522 -269.68389511 356.36977386 C-269.81270035 353.43293186 -269.94283754 350.49615181 -270.07339478 347.55938721 C-271.53454098 314.66824478 -272.88395171 281.77273168 -274.1875 248.875 C-274.22993961 247.80610912 -274.27237923 246.73721825 -274.31610489 245.63593674 C-274.78970774 233.70363111 -275.25377497 221.77108532 -275.69639111 209.83758831 C-275.88571138 204.80082696 -276.09677651 199.76577457 -276.33357143 194.73102379 C-276.46874865 191.82257032 -276.5919977 188.91368672 -276.71297646 186.00461197 C-276.7973672 184.0854526 -276.89859716 182.1670562 -277.00053406 180.24874878 C-277.28312194 173.19079862 -277.23714823 167.96945501 -272.60888672 162.29418945 C-272.13725098 161.90448975 -271.66561523 161.51479004 -271.1796875 161.11328125 C-270.38328857 160.42806396 -270.38328857 160.42806396 -269.57080078 159.72900391 C-269.01118652 159.26155762 -268.45157227 158.79411133 -267.875 158.3125 C-249.98010774 142.50941257 -240.35125511 120.55197526 -238 97 C-237.83001733 90.79966133 -237.96102482 84.61002829 -238.11645508 78.41040039 C-238.1648823 76.31657889 -238.19460226 74.22308525 -238.22265625 72.12890625 C-238.25109619 70.90244385 -238.27953613 69.67598145 -238.30883789 68.41235352 C-237.87310903 63.59798022 -236.31150615 60.30906841 -232.8984375 56.90234375 C-232.06570313 56.25394531 -231.23296875 55.60554688 -230.375 54.9375 C-229.39015625 54.16792969 -228.4053125 53.39835937 -227.390625 52.60546875 C-226.57561523 51.98164307 -226.57561523 51.98164307 -225.74414062 51.34521484 C-223.88940886 49.91470364 -222.06190203 48.45335801 -220.234375 46.98828125 C-195.98667493 27.74365467 -168.55218629 13.22900244 -139 4 C-137.35401521 3.46400655 -135.70818368 2.92754224 -134.0625 2.390625 C-122.21071925 -1.39809701 -110.28978686 -4.07821941 -98 -6 C-97.25556641 -6.11859375 -96.51113281 -6.2371875 -95.74414062 -6.359375 C-63.8008993 -11.19838721 -31.15141939 -7.73016703 0 0 Z M-198.40185547 111.46923828 C-199.4448142 112.46822259 -200.4931075 113.4616756 -201.54736328 114.44873047 C-237.11555364 147.75317872 -254.11501039 195.76016492 -256.24609375 243.640625 C-257.41307683 288.74820088 -243.06394924 332.72641625 -215 368 C-214.46503906 368.763125 -213.93007813 369.52625 -213.37890625 370.3125 C-212.92386719 370.869375 -212.46882813 371.42625 -212 372 C-211.34 372 -210.68 372 -210 372 C-209.73227783 372.59151855 -209.46455566 373.18303711 -209.1887207 373.79248047 C-207.19395269 377.49687406 -204.15613598 380.18217824 -201.1875 383.125 C-200.51315918 383.79370117 -199.83881836 384.46240234 -199.14404297 385.15136719 C-193.14344598 391.00952932 -186.88908856 396.20189808 -180 401 C-179.06945801 401.65645508 -179.06945801 401.65645508 -178.12011719 402.32617188 C-135.49543317 432.09378181 -79.15888158 443.08292843 -28.0078125 434.03515625 C2.34573527 427.97768051 31.41472304 417.14997151 56 398 C56.87914062 397.34257813 57.75828125 396.68515625 58.6640625 396.0078125 C97.28585045 366.02050282 120.21520599 321.62896839 126.4765625 273.53125 C132.15507007 226.11073062 120.81233135 174.42635362 90.9453125 136.3828125 C89.98238281 135.20332031 89.98238281 135.20332031 89 134 C87.62438541 132.29216152 86.24938112 130.58383127 84.875 128.875 C84.19179688 128.02679688 83.50859375 127.17859375 82.8046875 126.3046875 C81 124 81 124 79 121 C78.34 121 77.68 121 77 121 C76.76152344 120.43667969 76.52304687 119.87335938 76.27734375 119.29296875 C61.24103019 92.30117653 18.43208453 73.39378899 -9.92236328 65.15039062 C-20.13109879 62.41116103 -30.49682588 60.22727306 -41 59 C-42.36125 58.83371094 -42.36125 58.83371094 -43.75 58.6640625 C-100.1550586 52.86687592 -157.54616037 72.25906862 -198.40185547 111.46923828 Z " fill="#3A84FE" transform="translate(578,260)"/>
<path d="M0 0 C3.11886578 1.69095133 5.39018854 3.78037709 7 7 C8.11548114 14.06350598 8.12982007 21.17371021 8.08178711 28.30541992 C8.07872055 29.38803604 8.07565399 30.47065216 8.07249451 31.58607483 C8.06538178 33.91915327 8.05601447 36.25222573 8.04459953 38.58528709 C8.02710758 42.2803576 8.01687865 45.97538429 8.00868225 49.67048645 C7.98431184 60.17025894 7.9485832 70.66997188 7.90405273 81.16967773 C7.87725713 87.60673448 7.86022491 94.04375765 7.84918404 100.48085976 C7.84298373 102.92845214 7.8329903 105.37603801 7.81910515 107.82359886 C7.79986649 111.24336389 7.79299009 114.66295177 7.78881836 118.08276367 C7.78005676 119.08916901 7.77129517 120.09557434 7.76226807 121.13247681 C7.67976897 130.10216613 7.67976897 130.10216613 11.625 137.875 C16.24890988 140.0652731 20.43881194 140.26019801 25.375 139.4375 C28.1604041 138.23917961 28.1604041 138.23917961 29.14909363 135.66394043 C30.37000475 130.40678667 30.26642867 125.31929698 30.23950195 119.93945312 C30.24151611 118.7290184 30.24353027 117.51858368 30.24560547 116.27146912 C30.24914676 113.64739282 30.24922333 111.02356933 30.24382973 108.39952087 C30.23619749 104.24711702 30.24690005 100.09488445 30.2610321 95.94250488 C30.29870974 84.13793234 30.31695605 72.33343864 30.30541992 60.52880859 C30.29919917 54.00229982 30.31080276 47.47606882 30.34186524 40.94962835 C30.36049212 36.82477638 30.35722912 32.70071297 30.33769763 28.57587433 C30.32918427 25.40400491 30.35326132 22.23235228 30.37231445 19.06054688 C30.35466286 17.35378029 30.35466286 17.35378029 30.33665466 15.61253357 C30.43816834 7.00362107 30.43816834 7.00362107 33.41423035 3.30871582 C37.44602042 -0.2910857 40.17650817 -0.3936215 45.44921875 -0.35546875 C49.5941459 0.2221551 51.21978497 1.93463471 54 5 C54.98331882 7.94995645 55.13142403 9.8760915 55.14476013 12.95198059 C55.15165863 13.97396042 55.15855713 14.99594025 55.16566467 16.04888916 C55.16827805 17.16946716 55.17089142 18.29004517 55.17358398 19.44458008 C55.180271 20.62531601 55.18695801 21.80605194 55.19384766 23.02256775 C55.21159009 26.26235465 55.225132 29.50213078 55.2374599 32.74194169 C55.25190579 36.1344417 55.27341945 39.52689437 55.29469299 42.9193573 C55.36586289 54.47556654 55.42563479 66.03182026 55.47680664 77.58813477 C55.50514368 83.97062909 55.54054353 90.35304621 55.58346039 96.73545951 C55.6058059 100.11144695 55.62433643 103.4873631 55.63390923 106.86341286 C55.64605953 110.63146444 55.67020922 114.39926463 55.69702148 118.16723633 C55.69761063 119.28174164 55.69819977 120.39624695 55.69880676 121.54452515 C55.58830916 130.36782802 55.58830916 130.36782802 59.75 137.8125 C62.65294946 139.34461221 64.70317689 139.87071282 68 140 C72.34986291 138.5500457 74.4325645 137.85115325 77 134 C78.32543572 126.62190536 78.12351376 118.97484799 78.05004883 111.50512695 C78.04063011 109.86876282 78.04063011 109.86876282 78.03102112 108.19934082 C78.01726245 105.85099809 78.00134916 103.50266716 77.98346901 101.15435219 C77.95663785 97.43372889 77.93889047 93.71316667 77.92399597 89.99247742 C77.88142444 79.42088885 77.83382643 68.84944246 77.75317383 58.27807617 C77.70461851 51.79446911 77.67565039 45.31102615 77.65942955 38.82726097 C77.64954728 36.36372061 77.63236049 33.90019805 77.60764503 31.43676186 C77.57384164 27.99320063 77.56500997 24.55039624 77.56176758 21.10668945 C77.54581543 20.0960997 77.52986328 19.08550995 77.51342773 18.04429626 C77.53902045 12.07213254 78.14164432 6.79847135 82 2 C86.482728 -0.69002201 90.89879761 -0.66968783 96 0 C100.15780167 2.33876344 101.5487736 4.55395281 103 9 C103.25726891 11.84509563 103.25726891 11.84509563 103.26742554 15.02287292 C103.27595551 16.23219986 103.28448547 17.44152679 103.29327393 18.6875 C103.29236755 20.00645264 103.29146118 21.32540527 103.29052734 22.68432617 C103.29651536 24.09426732 103.30332154 25.5042052 103.31088257 26.91413879 C103.32853916 30.74139309 103.33323829 34.5685579 103.33451414 38.39584899 C103.33593847 40.79459731 103.34021378 43.1933231 103.34550858 45.59206581 C103.36401988 53.98351093 103.37217933 62.37489257 103.37060547 70.76635742 C103.36940934 78.54776242 103.39040434 86.32888767 103.4220928 94.11022204 C103.44841696 100.81714352 103.4589658 107.5239747 103.45769465 114.23094732 C103.45718898 118.224425 103.46264782 122.217655 103.48405075 126.21108055 C103.62215217 153.91827077 101.83806147 176.2921886 83 198 C79.5978052 201.38581184 76.03678518 204.49530859 72.17578125 207.34765625 C68.00122944 210.49120495 67.13468041 212.96855178 66 218 C65.72188828 221.28612926 65.72188828 221.28612926 65.81542969 224.84106445 C65.82668947 225.90809711 65.82668947 225.90809711 65.83817673 226.99668598 C65.87512961 229.66503885 65.93533756 232.33217196 66 235 C66.0403109 236.67276819 66.0403109 236.67276819 66.08143616 238.37932968 C66.31430039 247.62246387 66.59325862 256.86401355 66.87827301 266.10565615 C67.00626855 270.27341626 67.13134811 274.44126411 67.25683594 278.60910034 C67.50024039 286.67725373 67.74647136 294.74531843 67.99373102 302.81335449 C68.19365247 309.33914951 68.39232972 315.86498141 68.59020996 322.39083862 C69.76607469 361.16493161 70.95797276 399.9385064 72.1875 438.7109375 C72.22202853 439.79980251 72.22202853 439.79980251 72.2572546 440.9106648 C72.78725106 457.61882385 73.32201649 474.32682546 73.86182022 491.03467083 C74.15157019 500.01709323 74.43358867 508.99974248 74.71239853 517.98251057 C74.89530651 523.82829962 75.09224496 529.67335601 75.30377579 535.51817799 C75.42707674 538.96904078 75.54142605 542.420162 75.65377045 545.87139702 C75.70625764 547.41772621 75.76277849 548.96392545 75.82395172 550.50993538 C76.38259808 564.67664849 75.72421394 576.79068281 65.875 587.75 C58.04735663 594.91004052 49.88917703 596.70735867 39.56542969 596.51928711 C29.77529651 596.05785844 23.1039006 592.98568644 15.9765625 586.2109375 C8.19545503 577.50716907 6.66577569 568.11917796 6.80175781 556.8449707 C6.8089043 555.75095853 6.8160508 554.65694635 6.82341385 553.5297823 C6.95416461 540.50110985 7.55685798 527.49347257 8.171875 514.48046875 C8.2966149 511.7635571 8.41957471 509.04656561 8.54257202 506.32957458 C8.8033504 500.58757135 9.06798353 494.84575759 9.33551025 489.10406494 C9.75640694 480.06946591 10.1696638 471.03452578 10.58154297 461.99951172 C10.72040869 458.95464998 10.85930291 455.90978954 10.99819946 452.8649292 C11.049666 451.73639141 11.049666 451.73639141 11.10217226 450.58505487 C11.34432371 445.27698115 11.58755127 439.96895736 11.83114624 434.66094971 C12.62811026 417.28411478 13.406131 399.90661495 14.1484375 382.52734375 C14.21194019 381.04214831 14.21194019 381.04214831 14.27672577 379.52694893 C14.48155727 374.73387629 14.68588567 369.94078236 14.88989258 365.14767456 C15.89424431 341.55265617 16.92846645 317.96078091 18.1328125 294.375 C18.20348875 292.98682131 18.20348875 292.98682131 18.2755928 291.5705986 C18.72501377 282.7486553 19.17891796 273.92700388 19.6522007 265.10630608 C20.76356618 244.60668656 20.76356618 244.60668656 21.296875 224.0859375 C21.31542542 223.21450104 21.33397583 222.34306458 21.35308838 221.44522095 C21.35581992 216.78134546 20.99866583 213.79974696 18 210 C15.61139751 207.79953259 15.61139751 207.79953259 12.875 205.75 C-3.20292285 192.8453514 -13.43912194 177.57375127 -17 157 C-17.11041201 155.13710484 -17.17527604 153.27119584 -17.20532227 151.40527344 C-17.22525742 150.29169968 -17.24519257 149.17812592 -17.26573181 148.0308075 C-17.29081566 146.21344841 -17.29081566 146.21344841 -17.31640625 144.359375 C-17.33727798 143.07710526 -17.35814972 141.79483551 -17.37965393 140.47370911 C-17.43586691 136.96452807 -17.48528941 133.45528331 -17.53263092 129.94597244 C-17.56253313 127.74756431 -17.59392857 125.54918183 -17.62567139 123.35079956 C-17.93882061 101.45205692 -18.10604554 79.55393151 -18.12293625 57.65296936 C-18.12497738 55.58541461 -18.12872619 53.51786894 -18.13284302 51.45031738 C-18.15396136 39.26426942 -18.17189765 27.0782093 -17.6171875 14.90234375 C-17.58682404 14.14264786 -17.55646057 13.38295197 -17.525177 12.60023499 C-17.32493424 8.97245505 -17.05438848 6.05480643 -15 3 C-10.65807004 -0.79918872 -5.48962441 -0.96463049 0 0 Z " fill="#3B84FE" transform="translate(219,206)"/>
<path d="M0 0 C1.67709351 1.03961182 1.67709351 1.03961182 3 3 C3.30805759 5.67680343 3.42707687 8.123904 3.41650391 10.80371094 C3.42941593 12.03196169 3.42941593 12.03196169 3.44258881 13.2850256 C3.46829421 16.10156004 3.47219285 18.91773153 3.4765625 21.734375 C3.4907132 23.8262466 3.50613089 25.91810994 3.52267456 28.00996399 C3.56560964 33.96762454 3.58893065 39.92524106 3.60964966 45.88301468 C3.63321565 51.81964818 3.67112766 57.75618778 3.70788717 63.69275057 C3.8184555 81.759512 3.89139481 99.82640942 3.96333909 117.89335793 C4.00722483 128.88459891 4.05418211 139.87582666 4.1008991 150.86705589 C4.27856793 192.73247949 4.45012915 234.59792652 4.60800254 276.46342945 C4.88030697 348.64950056 5.23235249 420.83448612 5.72738457 493.01938915 C5.77690064 500.27431503 5.8239101 507.529237 5.86331177 514.78422546 C5.87064964 516.12072344 5.87799348 517.45722138 5.88534355 518.79371929 C5.89939139 521.34846275 5.91332753 523.90320682 5.92714119 526.45795155 C5.96583789 533.05191785 6.02823518 539.64472398 6.12667561 546.23806953 C6.17766445 549.76131334 6.21459031 553.28461236 6.24864006 556.80805588 C6.27582063 559.02424863 6.32420719 561.23920866 6.37391663 563.45498657 C6.4628026 574.19831246 4.38973806 582.33461918 -3.07421875 590.24609375 C-10.43349477 596.94855812 -17.99787906 599.50887105 -27.90234375 599.3125 C-34.8776866 598.60880841 -41.24499163 595.74753146 -46.3984375 590.97265625 C-59.35221032 575.01739949 -54.80981947 553.27659213 -53.86328125 534.2890625 C-53.74197336 531.80656473 -53.62099485 529.32405086 -53.50032043 526.84152222 C-53.24196775 521.53562662 -52.98195267 516.22981668 -52.72052002 510.92407227 C-52.06276114 497.56932956 -51.41782005 484.21396264 -50.77252197 470.85861301 C-50.66760418 468.68776922 -50.56258635 466.51693029 -50.45755005 464.34609222 C-49.01902784 434.60690007 -47.63565279 404.86539993 -46.28939438 375.12187958 C-46.1255213 371.511485 -45.96037376 367.90115087 -45.79483032 364.29083252 C-45.53527964 358.62785166 -45.27871153 352.96474372 -45.02457237 347.30151749 C-44.93179276 345.24298918 -44.83808077 343.18450264 -44.74332619 341.1260643 C-42.0765339 318.65509658 -42.0765339 318.65509658 -49.07421875 298.53125 C-50.790154 296.69948238 -52.51465913 294.875718 -54.24609375 293.05859375 C-81.06239202 264.10153836 -86.16795067 219.46156121 -84.78515625 181.796875 C-82.06346957 126.61787412 -67.94018885 69.53029201 -34 25 C-33.25878906 24.02160156 -32.51757812 23.04320312 -31.75390625 22.03515625 C-13.03558886 -1.75479081 -13.03558886 -1.75479081 0 0 Z " fill="#3B84FE" transform="translate(815,202)"/>
<path d="M0 0 C0.99 0.33 1.98 0.66 3 1 C2.01 1 1.02 1 0 1 C0 0.67 0 0.34 0 0 Z " fill="#3E83F8" transform="translate(581,352)"/>
<path d="M0 0 C3 1 3 1 3 1 Z " fill="#4080EC" transform="translate(515,767)"/>
<path d="M0 0 C3 1 3 1 3 1 Z " fill="#4280ED" transform="translate(507,767)"/>
<path d="M0 0 C3 1 3 1 3 1 Z " fill="#4380EC" transform="translate(481,765)"/>
<path d="" fill="#4482EF" transform="translate(0,0)"/>
<path d="" fill="#4084F9" transform="translate(0,0)"/>
<path d="M0 0 C3 1 3 1 3 1 Z " fill="#4085FC" transform="translate(497,676)"/>
<path d="" fill="#4484F2" transform="translate(0,0)"/>
<path d="M0 0 C0.66 0.66 1.32 1.32 2 2 C1.34 2 0.68 2 0 2 C0 1.34 0 0.68 0 0 Z " fill="#4186FB" transform="translate(353,575)"/>
<path d="" fill="#3F86FB" transform="translate(0,0)"/>
<path d="" fill="#4086FB" transform="translate(0,0)"/>
<path d="" fill="#4185FD" transform="translate(0,0)"/>
<path d="M0 0 C3 1 3 1 3 1 Z " fill="#4085FB" transform="translate(560,325)"/>
<path d="" fill="#447DE5" transform="translate(0,0)"/>
<path d="M0 0 C2 1 2 1 2 1 Z " fill="#3F80ED" transform="translate(512,767)"/>
<path d="M0 0 C2 1 2 1 2 1 Z " fill="#417EEB" transform="translate(491,766)"/>
<path d="M0 0 C2 1 2 1 2 1 Z " fill="#4380EE" transform="translate(476,764)"/>
<path d="" fill="#4282EE" transform="translate(0,0)"/>
<path d="" fill="#4582F2" transform="translate(0,0)"/>
<path d="" fill="#4184F8" transform="translate(0,0)"/>
<path d="" fill="#4486FA" transform="translate(0,0)"/>
<path d="" fill="#4187FD" transform="translate(0,0)"/>
<path d="" fill="#4187FD" transform="translate(0,0)"/>
<path d="" fill="#4085FB" transform="translate(0,0)"/>
<path d="" fill="#4288FB" transform="translate(0,0)"/>
<path d="" fill="#4286FB" transform="translate(0,0)"/>
<path d="" fill="#3F87FD" transform="translate(0,0)"/>
<path d="" fill="#4187FB" transform="translate(0,0)"/>
<path d="" fill="#4486FA" transform="translate(0,0)"/>
<path d="" fill="#4185FB" transform="translate(0,0)"/>
<path d="" fill="#4582EF" transform="translate(0,0)"/>
<path d="" fill="#4482F1" transform="translate(0,0)"/>
<path d="M0 0 C2 1 2 1 2 1 Z " fill="#4281EF" transform="translate(201,368)"/>
<path d="" fill="#4184F2" transform="translate(0,0)"/>
<path d="M0 0 C2 1 2 1 2 1 Z " fill="#4289FC" transform="translate(241,344)"/>
<path d="M0 0 C2 1 2 1 2 1 Z " fill="#3E85FB" transform="translate(568,327)"/>
<path d="M0 0 C2 1 2 1 2 1 Z " fill="#4181F1" transform="translate(601,266)"/>
<path d="M0 0 C2 1 2 1 2 1 Z " fill="#4085F4" transform="translate(433,264)"/>
<path d="" fill="#4278DF" transform="translate(0,0)"/>
<path d="" fill="#3F7EED" transform="translate(0,0)"/>
<path d="" fill="#437DE6" transform="translate(0,0)"/>
<path d="" fill="#427EE6" transform="translate(0,0)"/>
<path d="" fill="#4283EF" transform="translate(0,0)"/>
<path d="" fill="#417FEC" transform="translate(0,0)"/>
<path d="" fill="#4181EB" transform="translate(0,0)"/>
<path d="" fill="#3F81EB" transform="translate(0,0)"/>
<path d="" fill="#417FEB" transform="translate(0,0)"/>
<path d="" fill="#4380EB" transform="translate(0,0)"/>
<path d="" fill="#4281EB" transform="translate(0,0)"/>
<path d="" fill="#427FEB" transform="translate(0,0)"/>
<path d="" fill="#457FEB" transform="translate(0,0)"/>
<path d="" fill="#4081EF" transform="translate(0,0)"/>
<path d="" fill="#4085F9" transform="translate(0,0)"/>
<path d="" fill="#4583F2" transform="translate(0,0)"/>
<path d="" fill="#407FF0" transform="translate(0,0)"/>
<path d="" fill="#3D81F2" transform="translate(0,0)"/>
<path d="" fill="#4280EF" transform="translate(0,0)"/>
<path d="" fill="#427FEF" transform="translate(0,0)"/>
<path d="" fill="#4182F1" transform="translate(0,0)"/>
<path d="" fill="#4286F9" transform="translate(0,0)"/>
<path d="" fill="#4284F1" transform="translate(0,0)"/>
<path d="" fill="#4383F4" transform="translate(0,0)"/>
<path d="" fill="#4382F5" transform="translate(0,0)"/>
<path d="" fill="#3F81F7" transform="translate(0,0)"/>
<path d="" fill="#4285F2" transform="translate(0,0)"/>
<path d="" fill="#4383F5" transform="translate(0,0)"/>
<path d="" fill="#4388FC" transform="translate(0,0)"/>
<path d="" fill="#4584F6" transform="translate(0,0)"/>
<path d="" fill="#4685F6" transform="translate(0,0)"/>
<path d="" fill="#4385F9" transform="translate(0,0)"/>
<path d="" fill="#4284F8" transform="translate(0,0)"/>
<path d="" fill="#4486F7" transform="translate(0,0)"/>
<path d="" fill="#3E83F7" transform="translate(0,0)"/>
<path d="" fill="#4582F1" transform="translate(0,0)"/>
<path d="" fill="#4584F1" transform="translate(0,0)"/>
<path d="" fill="#4185FC" transform="translate(0,0)"/>
<path d="" fill="#3F85F8" transform="translate(0,0)"/>
<path d="" fill="#4183F6" transform="translate(0,0)"/>
<path d="" fill="#4287FB" transform="translate(0,0)"/>
<path d="" fill="#4285FA" transform="translate(0,0)"/>
<path d="" fill="#4185F9" transform="translate(0,0)"/>
<path d="" fill="#4487FC" transform="translate(0,0)"/>
<path d="" fill="#4387FA" transform="translate(0,0)"/>
<path d="" fill="#4087FD" transform="translate(0,0)"/>
<path d="" fill="#4386FD" transform="translate(0,0)"/>
<path d="" fill="#4186FB" transform="translate(0,0)"/>
<path d="" fill="#4483F0" transform="translate(0,0)"/>
<path d="" fill="#4386FC" transform="translate(0,0)"/>
<path d="" fill="#4382F3" transform="translate(0,0)"/>
<path d="" fill="#4088FC" transform="translate(0,0)"/>
<path d="" fill="#4384F0" transform="translate(0,0)"/>
<path d="" fill="#4483F1" transform="translate(0,0)"/>
<path d="" fill="#4287FC" transform="translate(0,0)"/>
<path d="" fill="#4386FC" transform="translate(0,0)"/>
<path d="" fill="#4285FD" transform="translate(0,0)"/>
<path d="" fill="#4486FB" transform="translate(0,0)"/>
<path d="" fill="#4187FB" transform="translate(0,0)"/>
<path d="" fill="#4587FC" transform="translate(0,0)"/>
<path d="" fill="#4287F9" transform="translate(0,0)"/>
<path d="" fill="#4186FC" transform="translate(0,0)"/>
<path d="" fill="#4486FB" transform="translate(0,0)"/>
<path d="" fill="#4183FA" transform="translate(0,0)"/>
<path d="" fill="#4387FC" transform="translate(0,0)"/>
<path d="" fill="#4387FC" transform="translate(0,0)"/>
<path d="" fill="#4385FA" transform="translate(0,0)"/>
<path d="" fill="#4186FA" transform="translate(0,0)"/>
<path d="" fill="#4286FC" transform="translate(0,0)"/>
<path d="" fill="#4286FC" transform="translate(0,0)"/>
<path d="" fill="#4084FC" transform="translate(0,0)"/>
<path d="" fill="#4186FB" transform="translate(0,0)"/>
<path d="" fill="#4288FD" transform="translate(0,0)"/>
<path d="" fill="#4388FD" transform="translate(0,0)"/>
<path d="" fill="#4086FB" transform="translate(0,0)"/>
<path d="" fill="#4083FA" transform="translate(0,0)"/>
<path d="" fill="#4182F4" transform="translate(0,0)"/>
<path d="" fill="#4286FB" transform="translate(0,0)"/>
<path d="" fill="#4087FC" transform="translate(0,0)"/>
<path d="" fill="#4389FE" transform="translate(0,0)"/>
<path d="" fill="#3F84FD" transform="translate(0,0)"/>
<path d="" fill="#4185FB" transform="translate(0,0)"/>
<path d="" fill="#4388FC" transform="translate(0,0)"/>
<path d="" fill="#4087FD" transform="translate(0,0)"/>
<path d="" fill="#4285FC" transform="translate(0,0)"/>
<path d="" fill="#4286FC" transform="translate(0,0)"/>
<path d="" fill="#4486FD" transform="translate(0,0)"/>
<path d="" fill="#4286FC" transform="translate(0,0)"/>
<path d="" fill="#4183F1" transform="translate(0,0)"/>
<path d="" fill="#4483FB" transform="translate(0,0)"/>
<path d="" fill="#4486FB" transform="translate(0,0)"/>
<path d="" fill="#4383F1" transform="translate(0,0)"/>
<path d="" fill="#4488FE" transform="translate(0,0)"/>
<path d="" fill="#4488FD" transform="translate(0,0)"/>
<path d="" fill="#4187FD" transform="translate(0,0)"/>
<path d="" fill="#4084FB" transform="translate(0,0)"/>
<path d="" fill="#4285FD" transform="translate(0,0)"/>
<path d="" fill="#4584F2" transform="translate(0,0)"/>
<path d="" fill="#4484FA" transform="translate(0,0)"/>
<path d="" fill="#4684F5" transform="translate(0,0)"/>
<path d="" fill="#4385FB" transform="translate(0,0)"/>
<path d="" fill="#4385FB" transform="translate(0,0)"/>
<path d="" fill="#4287FE" transform="translate(0,0)"/>
<path d="" fill="#4386FC" transform="translate(0,0)"/>
<path d="" fill="#4286FE" transform="translate(0,0)"/>
<path d="" fill="#4387FC" transform="translate(0,0)"/>
<path d="" fill="#4287FC" transform="translate(0,0)"/>
<path d="" fill="#4287FD" transform="translate(0,0)"/>
<path d="" fill="#4088FD" transform="translate(0,0)"/>
<path d="" fill="#4388FB" transform="translate(0,0)"/>
<path d="" fill="#4185FB" transform="translate(0,0)"/>
<path d="" fill="#4286FC" transform="translate(0,0)"/>
<path d="" fill="#4286FA" transform="translate(0,0)"/>
<path d="" fill="#4285FD" transform="translate(0,0)"/>
<path d="" fill="#4388FA" transform="translate(0,0)"/>
<path d="" fill="#4482EE" transform="translate(0,0)"/>
<path d="" fill="#4489FA" transform="translate(0,0)"/>
<path d="" fill="#4184FD" transform="translate(0,0)"/>
<path d="" fill="#4284F9" transform="translate(0,0)"/>
<path d="" fill="#4287FB" transform="translate(0,0)"/>
<path d="" fill="#4085FC" transform="translate(0,0)"/>
<path d="" fill="#4385FB" transform="translate(0,0)"/>
<path d="" fill="#4284FB" transform="translate(0,0)"/>
<path d="" fill="#3F85F9" transform="translate(0,0)"/>
<path d="" fill="#4582F0" transform="translate(0,0)"/>
<path d="" fill="#4483ED" transform="translate(0,0)"/>
<path d="" fill="#4188FF" transform="translate(0,0)"/>
<path d="" fill="#4481EF" transform="translate(0,0)"/>
<path d="" fill="#4187FA" transform="translate(0,0)"/>
<path d="" fill="#4582EE" transform="translate(0,0)"/>
<path d="" fill="#4384EE" transform="translate(0,0)"/>
<path d="" fill="#4684F2" transform="translate(0,0)"/>
<path d="" fill="#428AFE" transform="translate(0,0)"/>
<path d="" fill="#4483F1" transform="translate(0,0)"/>
<path d="" fill="#4287FA" transform="translate(0,0)"/>
<path d="" fill="#4385FB" transform="translate(0,0)"/>
<path d="" fill="#4181F1" transform="translate(0,0)"/>
<path d="" fill="#4087FC" transform="translate(0,0)"/>
<path d="" fill="#4482F0" transform="translate(0,0)"/>
<path d="" fill="#4283FA" transform="translate(0,0)"/>
<path d="" fill="#4284FB" transform="translate(0,0)"/>
<path d="" fill="#4086FB" transform="translate(0,0)"/>
<path d="" fill="#4386F9" transform="translate(0,0)"/>
<path d="" fill="#4086FC" transform="translate(0,0)"/>
<path d="" fill="#4181F2" transform="translate(0,0)"/>
<path d="" fill="#4181F0" transform="translate(0,0)"/>
<path d="" fill="#4382EF" transform="translate(0,0)"/>
<path d="" fill="#4086FC" transform="translate(0,0)"/>
<path d="" fill="#4185FC" transform="translate(0,0)"/>
<path d="" fill="#4186FA" transform="translate(0,0)"/>
<path d="" fill="#4185FB" transform="translate(0,0)"/>
<path d="" fill="#4286FA" transform="translate(0,0)"/>
<path d="" fill="#4387FC" transform="translate(0,0)"/>
<path d="" fill="#4185FB" transform="translate(0,0)"/>
<path d="" fill="#4185FC" transform="translate(0,0)"/>
<path d="" fill="#4388FE" transform="translate(0,0)"/>
<path d="" fill="#4081FD" transform="translate(0,0)"/>
<path d="" fill="#3F87FE" transform="translate(0,0)"/>
<path d="" fill="#4184FE" transform="translate(0,0)"/>
<path d="" fill="#4386FD" transform="translate(0,0)"/>
<path d="" fill="#4487FC" transform="translate(0,0)"/>
<path d="" fill="#4086FD" transform="translate(0,0)"/>
<path d="" fill="#4187FB" transform="translate(0,0)"/>
<path d="" fill="#4287FB" transform="translate(0,0)"/>
<path d="" fill="#4286FB" transform="translate(0,0)"/>
<path d="" fill="#4485FD" transform="translate(0,0)"/>
<path d="" fill="#4286FE" transform="translate(0,0)"/>
<path d="" fill="#4188FC" transform="translate(0,0)"/>
<path d="" fill="#4085FC" transform="translate(0,0)"/>
<path d="" fill="#4087FC" transform="translate(0,0)"/>
<path d="" fill="#4185FC" transform="translate(0,0)"/>
<path d="" fill="#3E85FA" transform="translate(0,0)"/>
<path d="" fill="#3F86FD" transform="translate(0,0)"/>
<path d="" fill="#4185FB" transform="translate(0,0)"/>
<path d="" fill="#4386FA" transform="translate(0,0)"/>
<path d="" fill="#4286FB" transform="translate(0,0)"/>
<path d="" fill="#4387FA" transform="translate(0,0)"/>
<path d="" fill="#4285F9" transform="translate(0,0)"/>
<path d="" fill="#3F85FD" transform="translate(0,0)"/>
<path d="" fill="#3E86FC" transform="translate(0,0)"/>
<path d="" fill="#4586F9" transform="translate(0,0)"/>
<path d="" fill="#4386FA" transform="translate(0,0)"/>
<path d="" fill="#4586F8" transform="translate(0,0)"/>
<path d="" fill="#4182F4" transform="translate(0,0)"/>
<path d="" fill="#4685F8" transform="translate(0,0)"/>
<path d="" fill="#4388F8" transform="translate(0,0)"/>
<path d="" fill="#4684F5" transform="translate(0,0)"/>
<path d="" fill="#4486F5" transform="translate(0,0)"/>
<path d="" fill="#4281F2" transform="translate(0,0)"/>
<path d="" fill="#4282F1" transform="translate(0,0)"/>
<path d="" fill="#3E83EF" transform="translate(0,0)"/>
<path d="" fill="#4481F0" transform="translate(0,0)"/>
<path d="" fill="#4482EF" transform="translate(0,0)"/>
<path d="" fill="#4281EE" transform="translate(0,0)"/>
<path d="" fill="#4382EE" transform="translate(0,0)"/>
<path d="" fill="#447CE2" transform="translate(0,0)"/>
</svg>
