<?xml version="1.0" encoding="UTF-8"?>
<svg version="1.1" xmlns="http://www.w3.org/2000/svg" width="1024" height="1024">
<path d="M0 0 C1.28834244 -0.0071553 2.57668488 -0.01431061 3.90406799 -0.02168274 C5.33503699 -0.024523 6.76600625 -0.02723473 8.19697571 -0.02983093 C9.70166175 -0.03609642 11.20634625 -0.04274329 12.71102905 -0.04974365 C17.65595931 -0.07077886 22.60088985 -0.0811465 27.54585266 -0.09111023 C29.24916411 -0.09515819 30.9524754 -0.09927512 32.65578651 -0.10346031 C40.65949 -0.12251192 48.66318426 -0.13674221 56.66690606 -0.14507228 C65.89983698 -0.15484071 75.1325279 -0.18114998 84.36537427 -0.22157317 C91.50520551 -0.2517577 98.64496806 -0.26654343 105.78486186 -0.26985329 C110.04745527 -0.2722014 114.30979228 -0.28113033 118.57231712 -0.30631447 C122.58527954 -0.32964081 126.59781759 -0.33381029 130.61083031 -0.32355309 C132.07975173 -0.32305869 133.54869436 -0.3293506 135.01755142 -0.34310913 C143.95503018 -0.42210749 151.13758705 -0.42551348 157.87007141 6.11201477 C158.31608704 6.76299133 158.76210266 7.4139679 159.22163391 8.08467102 C159.91386047 9.05726868 159.91386047 9.05726868 160.62007141 10.04951477 C163.09780072 14.28690534 164.09764135 17.80223659 164.12129211 22.71260071 C164.13082413 23.80433594 164.14035614 24.89607117 164.150177 26.02088928 C164.14880989 27.77722687 164.14880989 27.77722687 164.14741516 29.56904602 C164.15170029 30.78360474 164.15598541 31.99816345 164.16040039 33.24952698 C164.1661398 35.81826658 164.16664683 38.38702243 164.16230774 40.95576477 C164.15915675 44.86881073 164.18258206 48.78109398 164.20796204 52.69404602 C164.21023607 55.19404507 164.21093804 57.69404614 164.20991516 60.19404602 C164.21912491 61.35684082 164.22833466 62.51963562 164.23782349 63.71766663 C164.18219893 73.57971674 162.6925788 81.11696787 155.81538391 88.41670227 C151.50036725 92.20946493 147.59746785 94.14717102 141.84663391 94.14717102 C141.91405744 100.51554041 142.00402549 106.88331617 142.10908508 113.25117493 C142.14217593 115.41386338 142.17025627 117.5766349 142.19306946 119.73945618 C142.22690817 122.86269776 142.27923742 125.98518879 142.33491516 129.10810852 C142.34450005 130.53998001 142.34450005 130.53998001 142.35427856 132.0007782 C142.5676098 141.91821145 144.64033039 150.95502527 151.84663391 158.14717102 C157.19601547 162.68939505 162.76864376 165.75868013 169.15913391 168.58467102 C191.70422357 178.96573693 212.39646201 195.57167309 222.07710266 219.14326477 C222.70432081 221.13317006 223.28276705 223.13839531 223.84663391 225.14717102 C224.50663391 225.47717102 225.16663391 225.80717102 225.84663391 226.14717102 C226.64158292 229.08998225 227.30971261 231.97623954 227.90913391 234.95967102 C228.08251282 235.76082336 228.25589172 236.56197571 228.43452454 237.3874054 C230.81504914 248.9069555 231.00296642 260.49396783 231.05195618 272.21870422 C231.06156656 273.69818882 231.07157831 275.17767085 231.08195496 276.65715027 C231.10886079 280.66366532 231.12999762 284.6701917 231.14995694 288.67674661 C231.17221121 292.96526185 231.19946867 297.2537459 231.22601318 301.54223633 C231.27028211 308.81279474 231.31096343 316.08336624 231.34931946 323.35395813 C231.38776647 330.63783401 231.42919524 337.92168301 231.47431946 345.20552063 C231.61208221 367.4767434 231.72824679 389.7479469 231.81435382 412.01943243 C231.83567716 417.50860547 231.85927895 422.99776333 231.88438767 428.4869203 C231.92598125 437.62139003 231.95967513 446.75582913 231.9796192 455.89037365 C231.98902136 460.16204402 232.00141876 464.4336414 232.02266121 468.70527077 C232.34435121 535.56987403 232.34435121 535.56987403 209.05757141 560.02607727 C196.27096629 572.18695491 177.85415467 579.28219846 160.34823608 579.26742554 C159.08490448 579.2688002 157.82157288 579.27017487 156.5199585 579.27159119 C155.13804602 579.26805299 153.75613379 579.26441819 152.3742218 579.26069641 C150.90522768 579.26041405 149.43623342 579.26057323 147.96723938 579.26113892 C143.99462763 579.26142498 140.02204628 579.25555905 136.04944158 579.24856496 C131.89211384 579.2422997 127.73478535 579.24172511 123.57745361 579.24053955 C115.7117937 579.23743558 107.84614774 579.2292348 99.98049396 579.21919006 C91.02282563 579.2079999 82.06515662 579.20251116 73.10748303 579.19749463 C54.68719209 579.18705139 36.26691412 579.16947006 17.84663391 579.14717102 C17.8522081 579.89305984 17.85778229 580.63894867 17.86352539 581.40744019 C17.86786087 582.39090927 17.87219635 583.37437836 17.87666321 584.38764954 C17.8822374 585.36041336 17.88781158 586.33317719 17.89355469 587.3354187 C17.59688218 605.11367563 9.97304959 621.96590015 -2.21586609 634.70967102 C-26.5921083 658.02173895 -56.56888974 664.89231127 -89.60258484 664.38935852 C-124.00666781 663.52357744 -168.60965161 652.74801178 -193.15336609 627.14717102 C-201.13362433 617.5163198 -203.03928719 609.55006647 -202.15336609 597.14717102 C-198.75057122 573.26573793 -180.0169935 552.9005956 -161.59037781 538.66426086 C-142.80822596 524.71585896 -122.21078742 517.43319873 -99.15336609 514.14717102 C-98.30774109 513.94092102 -97.46211609 513.73467102 -96.59086609 513.52217102 C-93.58973392 513.06045838 -91.12362275 513.60119792 -88.15336609 514.14717102 C-88.16811478 513.42220428 -88.18286346 512.69723755 -88.19805908 511.95030212 C-89.29524376 456.48385469 -89.18661701 401.02446688 -88.88663918 345.55116034 C-88.85025807 338.77802292 -88.81863855 332.00487421 -88.78889465 325.23170471 C-88.75167439 316.83371082 -88.70660387 308.43579768 -88.6521492 300.03789729 C-88.62391041 295.67819653 -88.59831892 291.3185293 -88.58043289 286.95877266 C-88.29282886 219.60603698 -88.29282886 219.60603698 -64.90336609 195.93232727 C-63.07880483 194.25369698 -63.07880483 194.25369698 -62.15336609 192.14717102 C-61.49336609 192.14717102 -60.83336609 192.14717102 -60.15336609 192.14717102 C-59.82336609 191.15717102 -59.49336609 190.16717102 -59.15336609 189.14717102 C-57.29252176 187.47626933 -55.45628859 185.96104128 -53.46586609 184.45967102 C-52.59345276 183.79765686 -52.59345276 183.79765686 -51.70341492 183.12226868 C-43.63938807 177.13443993 -34.90919887 172.45167006 -25.87846375 168.10102844 C-15.80815972 163.22743211 -7.26606935 158.16220186 -3.15336609 147.14717102 C-1.44308056 140.37858974 -0.87518478 133.94400797 -0.95805359 126.98310852 C-0.96088348 126.06502411 -0.96371338 125.1469397 -0.96662903 124.20103455 C-0.9777021 121.30793966 -1.00278141 118.41517016 -1.02836609 115.52217102 C-1.03841257 113.54431095 -1.04753548 111.56644596 -1.05570984 109.58857727 C-1.07759904 104.77465243 -1.11203777 99.96096662 -1.15336609 95.14717102 C-1.75954773 94.88887512 -2.36572937 94.63057922 -2.99028015 94.36445618 C-3.79175476 94.0168927 -4.59322937 93.66932922 -5.41899109 93.31123352 C-6.21079773 92.97043762 -7.00260437 92.62964172 -7.81840515 92.27851868 C-14.03862132 89.26466655 -18.30388193 84.72640836 -21.21586609 78.47138977 C-23.62184029 69.94020625 -24.46753991 58.78081951 -22.15336609 50.14717102 C-22.81336609 49.81717102 -23.47336609 49.48717102 -24.15336609 49.14717102 C-23.98836609 48.47943665 -23.82336609 47.81170227 -23.65336609 47.12373352 C-23.05557684 43.56501939 -23.09063456 40.11451112 -23.15336609 36.52217102 C-23.25536581 15.68101904 -23.25536581 15.68101904 -17.15336609 7.14717102 C-11.80653509 2.01921614 -7.42791834 0.02827908 0 0 Z " fill="#E0F6FE" transform="translate(648.1533660888672,198.8528289794922)"/>
<path d="M0 0 C0.94101562 0.77472656 1.88203125 1.54945313 2.8515625 2.34765625 C23.44281718 19.98590153 36.60444959 47.43885348 41 74 C41.17944626 76.40457986 41.16808545 78.59077515 41 81 C41.66 81.33 42.32 81.66 43 82 C43.56926698 116.96175045 39.79825822 147.67899039 29 181 C19.96555215 208.92781285 12.94348319 236.94357847 7.21569824 265.71929932 C-3.24481163 318.23683956 -19.17399583 365.91441971 -60.84375 402.09765625 C-63.03557722 403.97769531 -63.03557722 403.97769531 -65.03125 406.12109375 C-67.01657582 408.01581938 -68.53850479 408.8388353 -71 410 C-72.14078203 410.69940385 -73.27264735 411.41343048 -74.3984375 412.13671875 C-91.82721172 423.32959045 -109.42360399 431.33634472 -129.5625 436.25 C-130.56643799 436.4962915 -131.57037598 436.74258301 -132.60473633 436.99633789 C-146.10557413 440.151656 -159.42768946 441.34798633 -173.25 441.25 C-173.96424133 441.24855988 -174.67848267 441.24711975 -175.41436768 441.24563599 C-185.59768037 441.22160734 -195.61512872 440.73683869 -205.7109375 439.33984375 C-209.00144008 438.77155941 -209.00144008 438.77155941 -212 440 C-212.3933252 439.5373877 -212.78665039 439.07477539 -213.19189453 438.59814453 C-215.38589817 436.65891312 -217.10546216 436.17049352 -219.9296875 435.4296875 C-220.89003906 435.17316406 -221.85039062 434.91664063 -222.83984375 434.65234375 C-223.84144531 434.39582031 -224.84304688 434.13929688 -225.875 433.875 C-226.86886719 433.61074219 -227.86273438 433.34648438 -228.88671875 433.07421875 C-234.29425185 431.64626828 -234.29425185 431.64626828 -239.76220703 430.48095703 C-242 430 -242 430 -243 429 C-243.66 429.33 -244.32 429.66 -245 430 C-245 429.01 -245 428.02 -245 427 C-245.54309814 426.83636963 -246.08619629 426.67273926 -246.64575195 426.50415039 C-252.47865511 424.66477789 -257.79374742 422.30826895 -263.1875 419.4375 C-264.01048584 419.00131348 -264.83347168 418.56512695 -265.68139648 418.11572266 C-273.26958064 414.00511848 -280.17355117 409.26114846 -287 404 C-288.31677734 403.00033203 -288.31677734 403.00033203 -289.66015625 401.98046875 C-305.31620384 389.79802918 -317.67085003 375.97552654 -328.81420898 359.62890625 C-330.03999304 357.85633112 -330.03999304 357.85633112 -332 356 C-339.2765793 342.85626892 -344.65368734 329.18404392 -348.75 314.75 C-349.04813599 313.70610107 -349.04813599 313.70610107 -349.35229492 312.64111328 C-352.53928559 300.92315103 -353.37320543 289.45737562 -353.3125 277.375 C-353.31067719 276.6233255 -353.30885437 275.871651 -353.30697632 275.09719849 C-353.26088349 263.8101597 -352.74901146 252.9849611 -350 242 C-349.83371094 241.31309082 -349.66742188 240.62618164 -349.49609375 239.91845703 C-342.27367309 210.70109051 -325.53675629 184.69843139 -305 163 C-303.86858452 161.71394915 -302.74342054 160.42236783 -301.625 159.125 C-298.17148439 155.15747276 -294.6099606 151.2915236 -291.04736328 147.42236328 C-287.93096981 144.0320952 -284.88036421 140.59501415 -281.8671875 137.11328125 C-279.9611602 134.95604114 -278.01228729 132.84184578 -276.05493164 130.73120117 C-270.44864297 124.67885982 -265.15644135 118.44342093 -260 112 C-259.07759625 110.86916043 -258.15437804 109.73898485 -257.23046875 108.609375 C-247.69556574 96.90104003 -238.81162062 84.78198853 -230.45703125 72.203125 C-230.06306152 71.60997498 -229.6690918 71.01682495 -229.26318359 70.40570068 C-227.31337648 67.46519848 -225.37219763 64.51940928 -223.44287109 61.56542969 C-218.95266234 54.74015155 -214.23721982 48.27001808 -209 42 C-208.19695435 41.03078613 -208.19695435 41.03078613 -207.37768555 40.04199219 C-198.360452 29.24182229 -189.01745345 19.79844522 -178 11 C-177.20851563 10.34128906 -176.41703125 9.68257812 -175.6015625 9.00390625 C-127.09955672 -31.03844736 -50.39942565 -44.44609543 0 0 Z " fill="#E0F6FE" transform="translate(485,199)"/>
<path d="M0 0 C1.28834244 -0.0071553 2.57668488 -0.01431061 3.90406799 -0.02168274 C5.33503699 -0.024523 6.76600625 -0.02723473 8.19697571 -0.02983093 C9.70166175 -0.03609642 11.20634625 -0.04274329 12.71102905 -0.04974365 C17.65595931 -0.07077886 22.60088985 -0.0811465 27.54585266 -0.09111023 C29.24916411 -0.09515819 30.9524754 -0.09927512 32.65578651 -0.10346031 C40.65949 -0.12251192 48.66318426 -0.13674221 56.66690606 -0.14507228 C65.89983698 -0.15484071 75.1325279 -0.18114998 84.36537427 -0.22157317 C91.50520551 -0.2517577 98.64496806 -0.26654343 105.78486186 -0.26985329 C110.04745527 -0.2722014 114.30979228 -0.28113033 118.57231712 -0.30631447 C122.58527954 -0.32964081 126.59781759 -0.33381029 130.61083031 -0.32355309 C132.07975173 -0.32305869 133.54869436 -0.3293506 135.01755142 -0.34310913 C143.95503018 -0.42210749 151.13758705 -0.42551348 157.87007141 6.11201477 C158.31608704 6.76299133 158.76210266 7.4139679 159.22163391 8.08467102 C159.91386047 9.05726868 159.91386047 9.05726868 160.62007141 10.04951477 C163.09780072 14.28690534 164.09764135 17.80223659 164.12129211 22.71260071 C164.13082413 23.80433594 164.14035614 24.89607117 164.150177 26.02088928 C164.14880989 27.77722687 164.14880989 27.77722687 164.14741516 29.56904602 C164.15170029 30.78360474 164.15598541 31.99816345 164.16040039 33.24952698 C164.1661398 35.81826658 164.16664683 38.38702243 164.16230774 40.95576477 C164.15915675 44.86881073 164.18258206 48.78109398 164.20796204 52.69404602 C164.21023607 55.19404507 164.21093804 57.69404614 164.20991516 60.19404602 C164.21912491 61.35684082 164.22833466 62.51963562 164.23782349 63.71766663 C164.18219893 73.57971674 162.6925788 81.11696787 155.81538391 88.41670227 C151.50036725 92.20946493 147.59746785 94.14717102 141.84663391 94.14717102 C141.91405744 100.51554041 142.00402549 106.88331617 142.10908508 113.25117493 C142.14217593 115.41386338 142.17025627 117.5766349 142.19306946 119.73945618 C142.22690817 122.86269776 142.27923742 125.98518879 142.33491516 129.10810852 C142.34450005 130.53998001 142.34450005 130.53998001 142.35427856 132.0007782 C142.5676098 141.91821145 144.64033039 150.95502527 151.84663391 158.14717102 C157.19601547 162.68939505 162.76864376 165.75868013 169.15913391 168.58467102 C191.70422357 178.96573693 212.39646201 195.57167309 222.07710266 219.14326477 C222.70432081 221.13317006 223.28276705 223.13839531 223.84663391 225.14717102 C224.50663391 225.47717102 225.16663391 225.80717102 225.84663391 226.14717102 C226.64158292 229.08998225 227.30971261 231.97623954 227.90913391 234.95967102 C228.08251282 235.76082336 228.25589172 236.56197571 228.43452454 237.3874054 C230.81504914 248.9069555 231.00296642 260.49396783 231.05195618 272.21870422 C231.06156656 273.69818882 231.07157831 275.17767085 231.08195496 276.65715027 C231.10886079 280.66366532 231.12999762 284.6701917 231.14995694 288.67674661 C231.17221121 292.96526185 231.19946867 297.2537459 231.22601318 301.54223633 C231.27028211 308.81279474 231.31096343 316.08336624 231.34931946 323.35395813 C231.38776647 330.63783401 231.42919524 337.92168301 231.47431946 345.20552063 C231.61208221 367.4767434 231.72824679 389.7479469 231.81435382 412.01943243 C231.83567716 417.50860547 231.85927895 422.99776333 231.88438767 428.4869203 C231.92598125 437.62139003 231.95967513 446.75582913 231.9796192 455.89037365 C231.98902136 460.16204402 232.00141876 464.4336414 232.02266121 468.70527077 C232.34435121 535.56987403 232.34435121 535.56987403 209.05757141 560.02607727 C196.27096629 572.18695491 177.85415467 579.28219846 160.34823608 579.26742554 C159.08490448 579.2688002 157.82157288 579.27017487 156.5199585 579.27159119 C155.13804602 579.26805299 153.75613379 579.26441819 152.3742218 579.26069641 C150.90522768 579.26041405 149.43623342 579.26057323 147.96723938 579.26113892 C143.99462763 579.26142498 140.02204628 579.25555905 136.04944158 579.24856496 C131.89211384 579.2422997 127.73478535 579.24172511 123.57745361 579.24053955 C115.7117937 579.23743558 107.84614774 579.2292348 99.98049396 579.21919006 C91.02282563 579.2079999 82.06515662 579.20251116 73.10748303 579.19749463 C54.68719209 579.18705139 36.26691412 579.16947006 17.84663391 579.14717102 C17.8522081 579.89305984 17.85778229 580.63894867 17.86352539 581.40744019 C17.86786087 582.39090927 17.87219635 583.37437836 17.87666321 584.38764954 C17.8822374 585.36041336 17.88781158 586.33317719 17.89355469 587.3354187 C17.59688218 605.11367563 9.97304959 621.96590015 -2.21586609 634.70967102 C-26.5921083 658.02173895 -56.56888974 664.89231127 -89.60258484 664.38935852 C-124.00666781 663.52357744 -168.60965161 652.74801178 -193.15336609 627.14717102 C-201.13362433 617.5163198 -203.03928719 609.55006647 -202.15336609 597.14717102 C-198.75057122 573.26573793 -180.0169935 552.9005956 -161.59037781 538.66426086 C-142.80822596 524.71585896 -122.21078742 517.43319873 -99.15336609 514.14717102 C-98.30774109 513.94092102 -97.46211609 513.73467102 -96.59086609 513.52217102 C-93.58973392 513.06045838 -91.12362275 513.60119792 -88.15336609 514.14717102 C-88.16811478 513.42220428 -88.18286346 512.69723755 -88.19805908 511.95030212 C-89.29524376 456.48385469 -89.18661701 401.02446688 -88.88663918 345.55116034 C-88.85025807 338.77802292 -88.81863855 332.00487421 -88.78889465 325.23170471 C-88.75167439 316.83371082 -88.70660387 308.43579768 -88.6521492 300.03789729 C-88.62391041 295.67819653 -88.59831892 291.3185293 -88.58043289 286.95877266 C-88.29282886 219.60603698 -88.29282886 219.60603698 -64.90336609 195.93232727 C-63.07880483 194.25369698 -63.07880483 194.25369698 -62.15336609 192.14717102 C-61.49336609 192.14717102 -60.83336609 192.14717102 -60.15336609 192.14717102 C-59.82336609 191.15717102 -59.49336609 190.16717102 -59.15336609 189.14717102 C-57.29252176 187.47626933 -55.45628859 185.96104128 -53.46586609 184.45967102 C-52.59345276 183.79765686 -52.59345276 183.79765686 -51.70341492 183.12226868 C-43.63938807 177.13443993 -34.90919887 172.45167006 -25.87846375 168.10102844 C-15.80815972 163.22743211 -7.26606935 158.16220186 -3.15336609 147.14717102 C-1.44308056 140.37858974 -0.87518478 133.94400797 -0.95805359 126.98310852 C-0.96088348 126.06502411 -0.96371338 125.1469397 -0.96662903 124.20103455 C-0.9777021 121.30793966 -1.00278141 118.41517016 -1.02836609 115.52217102 C-1.03841257 113.54431095 -1.04753548 111.56644596 -1.05570984 109.58857727 C-1.07759904 104.77465243 -1.11203777 99.96096662 -1.15336609 95.14717102 C-1.75954773 94.88887512 -2.36572937 94.63057922 -2.99028015 94.36445618 C-3.79175476 94.0168927 -4.59322937 93.66932922 -5.41899109 93.31123352 C-6.21079773 92.97043762 -7.00260437 92.62964172 -7.81840515 92.27851868 C-14.03862132 89.26466655 -18.30388193 84.72640836 -21.21586609 78.47138977 C-23.62184029 69.94020625 -24.46753991 58.78081951 -22.15336609 50.14717102 C-22.81336609 49.81717102 -23.47336609 49.48717102 -24.15336609 49.14717102 C-23.98836609 48.47943665 -23.82336609 47.81170227 -23.65336609 47.12373352 C-23.05557684 43.56501939 -23.09063456 40.11451112 -23.15336609 36.52217102 C-23.25536581 15.68101904 -23.25536581 15.68101904 -17.15336609 7.14717102 C-11.80653509 2.01921614 -7.42791834 0.02827908 0 0 Z M22.84663391 94.14717102 C22.67659553 109.97145738 22.67659553 109.97145738 22.54878235 125.7960968 C22.32153565 144.59330853 19.87338748 160.76563508 6.84663391 175.14717102 C-0.26972555 182.08709182 -9.31946832 185.88482053 -18.15336609 190.14717102 C-38.24876124 199.84566343 -52.94714999 212.71476109 -61.15336609 234.14717102 C-65.9322105 247.99057269 -65.70291224 261.59488667 -65.62333679 276.09028625 C-65.62384638 278.68212471 -65.62610716 281.27396333 -65.62997437 283.86579895 C-65.63615485 290.13523727 -65.62132583 296.40445211 -65.59924874 302.67384761 C-65.5744212 309.97885724 -65.57163868 317.28382747 -65.56984498 324.58887304 C-65.56598155 337.61429493 -65.54359576 350.63961672 -65.51005554 363.66499329 C-65.47753442 376.30497153 -65.45635345 388.94489689 -65.4485321 401.58491516 C-65.44804661 402.36572602 -65.44756112 403.14653688 -65.44706092 403.95100867 C-65.44513222 407.08952636 -65.44322008 410.22804407 -65.44134482 413.3665618 C-65.43382427 425.42425615 -65.41820149 437.48194186 -65.40084821 449.53962563 C-65.3956095 453.18152696 -65.39067636 456.82342813 -65.38648629 460.46533084 C-65.3768325 468.75796826 -65.36229181 477.05056502 -65.33964729 485.3431778 C-65.33350442 487.85996965 -65.32906564 490.37676628 -65.32640457 492.89356422 C-65.32244864 496.31243603 -65.31235618 499.73123314 -65.30053711 503.15008545 C-65.30072147 504.15957809 -65.30090583 505.16907074 -65.30109578 506.20915407 C-65.29663794 507.11741097 -65.2921801 508.02566788 -65.28758717 508.96144772 C-65.2857986 509.75132641 -65.28401003 510.5412051 -65.28216726 511.35501951 C-65.34822169 513.17051505 -65.34822169 513.17051505 -64.15336609 514.14717102 C-62.1115348 514.46097271 -60.06863928 514.76904917 -58.02153015 515.04634094 C-37.89511821 517.80920433 -20.20478951 525.40246282 -5.15336609 539.14717102 C-4.41344421 539.81748352 -3.67352234 540.48779602 -2.91117859 541.17842102 C2.44498934 546.27183354 2.44498934 546.27183354 3.83635712 549.30415726 C5.24597964 552.10141042 6.53622191 554.0160618 8.84663391 556.14717102 C13.66945543 557.49622875 18.47516744 557.31775743 23.44233704 557.21650696 C24.93773983 557.21888141 26.43314075 557.22517887 27.92851257 557.23509216 C31.98357329 557.25047382 36.03634306 557.20992615 40.09103584 557.15851116 C44.34719713 557.11327077 48.60333396 557.11692157 52.85969543 557.11451721 C60.01556741 557.10344228 67.17057576 557.05858469 74.3261261 556.99092102 C83.47431164 556.90458386 92.62179879 556.87327229 101.7703476 556.85987473 C109.66973442 556.84786765 117.56897309 556.81035415 125.46825218 556.76883411 C127.98870884 556.75661474 130.50916044 556.74779811 133.02963257 556.73944855 C137.01564625 556.72460036 141.00125367 556.69371516 144.98706436 556.65113449 C146.43890322 556.6377379 147.89079614 556.62909123 149.34269333 556.62591171 C165.60429263 556.58236687 181.42411256 554.30021714 193.78413391 542.83467102 C207.56440967 527.45124437 207.42719759 510.25423838 207.33247375 490.75093079 C207.33462218 488.1806265 207.33850367 485.61032316 207.34397888 483.0400238 C207.35400916 476.80793146 207.34284736 470.57605313 207.32427828 464.34398741 C207.30339693 457.07142923 207.30365368 449.79891596 207.30462344 442.52633344 C207.30562249 429.54077027 207.28736221 416.55530595 207.258255 403.56977844 C207.23009053 390.99814554 207.21591344 378.42659958 207.21723938 365.85493469 C207.21731929 365.08068591 207.2173992 364.30643712 207.21748154 363.50872625 C207.2176026 362.34926933 207.2176026 362.34926933 207.21772611 361.16638905 C207.2191097 346.81350908 207.20730267 332.4606657 207.18941968 318.10779764 C207.18341395 313.05072093 207.18126377 307.993651 207.18035507 302.93657112 C207.17883957 296.1164882 207.16605755 289.29649741 207.1460228 282.47644424 C207.14020959 279.98124305 207.13771455 277.48603144 207.13887787 274.99082375 C207.14595471 250.5587857 205.71383963 227.0359053 187.94819641 208.13545227 C177.70120061 198.44080383 166.63132837 192.81195836 153.84663391 187.14717102 C140.09119447 180.9485173 129.02908342 172.05038518 123.47163391 157.58467102 C120.4473453 148.75205243 119.5396055 139.95372783 119.43257141 130.67060852 C119.41492737 129.73708557 119.39728333 128.80356262 119.37910461 127.8417511 C119.31671731 124.40205634 119.27006409 120.9620906 119.22163391 117.52217102 C119.09788391 109.80842102 118.97413391 102.09467102 118.84663391 94.14717102 C87.16663391 94.14717102 55.48663391 94.14717102 22.84663391 94.14717102 Z " fill="#499CD1" transform="translate(648.1533660888672,198.8528289794922)"/>
<path d="M0 0 C0.94101562 0.77472656 1.88203125 1.54945313 2.8515625 2.34765625 C23.44281718 19.98590153 36.60444959 47.43885348 41 74 C41.17944626 76.40457986 41.16808545 78.59077515 41 81 C41.66 81.33 42.32 81.66 43 82 C43.56926698 116.96175045 39.79825822 147.67899039 29 181 C19.96555215 208.92781285 12.94348319 236.94357847 7.21569824 265.71929932 C-3.24481163 318.23683956 -19.17399583 365.91441971 -60.84375 402.09765625 C-63.03557722 403.97769531 -63.03557722 403.97769531 -65.03125 406.12109375 C-67.01657582 408.01581938 -68.53850479 408.8388353 -71 410 C-72.14078203 410.69940385 -73.27264735 411.41343048 -74.3984375 412.13671875 C-91.82721172 423.32959045 -109.42360399 431.33634472 -129.5625 436.25 C-130.56643799 436.4962915 -131.57037598 436.74258301 -132.60473633 436.99633789 C-146.10557413 440.151656 -159.42768946 441.34798633 -173.25 441.25 C-173.96424133 441.24855988 -174.67848267 441.24711975 -175.41436768 441.24563599 C-185.59768037 441.22160734 -195.61512872 440.73683869 -205.7109375 439.33984375 C-209.00144008 438.77155941 -209.00144008 438.77155941 -212 440 C-212.3933252 439.5373877 -212.78665039 439.07477539 -213.19189453 438.59814453 C-215.38589817 436.65891312 -217.10546216 436.17049352 -219.9296875 435.4296875 C-220.89003906 435.17316406 -221.85039062 434.91664063 -222.83984375 434.65234375 C-223.84144531 434.39582031 -224.84304688 434.13929688 -225.875 433.875 C-226.86886719 433.61074219 -227.86273438 433.34648438 -228.88671875 433.07421875 C-234.29425185 431.64626828 -234.29425185 431.64626828 -239.76220703 430.48095703 C-242 430 -242 430 -243 429 C-243.66 429.33 -244.32 429.66 -245 430 C-245 429.01 -245 428.02 -245 427 C-245.54309814 426.83636963 -246.08619629 426.67273926 -246.64575195 426.50415039 C-252.47865511 424.66477789 -257.79374742 422.30826895 -263.1875 419.4375 C-264.01048584 419.00131348 -264.83347168 418.56512695 -265.68139648 418.11572266 C-273.26958064 414.00511848 -280.17355117 409.26114846 -287 404 C-288.31677734 403.00033203 -288.31677734 403.00033203 -289.66015625 401.98046875 C-305.31620384 389.79802918 -317.67085003 375.97552654 -328.81420898 359.62890625 C-330.03999304 357.85633112 -330.03999304 357.85633112 -332 356 C-339.2765793 342.85626892 -344.65368734 329.18404392 -348.75 314.75 C-349.04813599 313.70610107 -349.04813599 313.70610107 -349.35229492 312.64111328 C-352.53928559 300.92315103 -353.37320543 289.45737562 -353.3125 277.375 C-353.31067719 276.6233255 -353.30885437 275.871651 -353.30697632 275.09719849 C-353.26088349 263.8101597 -352.74901146 252.9849611 -350 242 C-349.83371094 241.31309082 -349.66742188 240.62618164 -349.49609375 239.91845703 C-342.27367309 210.70109051 -325.53675629 184.69843139 -305 163 C-303.86858452 161.71394915 -302.74342054 160.42236783 -301.625 159.125 C-298.17148439 155.15747276 -294.6099606 151.2915236 -291.04736328 147.42236328 C-287.93096981 144.0320952 -284.88036421 140.59501415 -281.8671875 137.11328125 C-279.9611602 134.95604114 -278.01228729 132.84184578 -276.05493164 130.73120117 C-270.44864297 124.67885982 -265.15644135 118.44342093 -260 112 C-259.07759625 110.86916043 -258.15437804 109.73898485 -257.23046875 108.609375 C-247.69556574 96.90104003 -238.81162062 84.78198853 -230.45703125 72.203125 C-230.06306152 71.60997498 -229.6690918 71.01682495 -229.26318359 70.40570068 C-227.31337648 67.46519848 -225.37219763 64.51940928 -223.44287109 61.56542969 C-218.95266234 54.74015155 -214.23721982 48.27001808 -209 42 C-208.19695435 41.03078613 -208.19695435 41.03078613 -207.37768555 40.04199219 C-198.360452 29.24182229 -189.01745345 19.79844522 -178 11 C-177.20851563 10.34128906 -176.41703125 9.68257812 -175.6015625 9.00390625 C-127.09955672 -31.03844736 -50.39942565 -44.44609543 0 0 Z M-184.57080078 48.4140625 C-189.02679847 53.35874323 -193.03702341 58.6580096 -197 64 C-198.16208984 65.56234375 -198.16208984 65.56234375 -199.34765625 67.15625 C-205.53217724 75.66383814 -211.3313605 84.42749457 -217.1159668 93.21044922 C-224.20407338 103.93691058 -231.74778848 114.14282028 -240 124 C-240.42684082 124.51320801 -240.85368164 125.02641602 -241.29345703 125.55517578 C-247.53591586 133.05753855 -253.96759478 140.34631743 -260.60742188 147.49853516 C-262.99669278 150.07462493 -265.37412964 152.66155392 -267.75 155.25 C-268.2133374 155.75466797 -268.6766748 156.25933594 -269.15405273 156.77929688 C-272.22375745 160.1310766 -275.23481209 163.52667099 -278.20703125 166.96484375 C-280.34545152 169.39211381 -282.55055295 171.75291189 -284.75 174.125 C-290.53096955 180.47530746 -295.8212318 187.15336654 -301 194 C-301.65814697 194.8647998 -301.65814697 194.8647998 -302.32958984 195.74707031 C-323.77349642 224.11999414 -333.36342944 257.33371703 -329.69970703 292.91650391 C-328.86589201 298.71497042 -327.5595302 304.35701027 -326 310 C-325.79101074 310.76602539 -325.58202148 311.53205078 -325.36669922 312.32128906 C-319.084212 334.59941228 -306.99690964 353.44343171 -291 370 C-290.26007813 370.79148437 -289.52015625 371.58296875 -288.7578125 372.3984375 C-267.46537208 394.62680937 -237.95797369 408.11865008 -208.3125 414.75 C-207.37438477 414.96108398 -206.43626953 415.17216797 -205.46972656 415.38964844 C-166.18162189 423.75261794 -124.23132411 416.54130537 -90.30859375 395.1171875 C-69.81213001 381.51220901 -53.73983802 363.53320314 -42 342 C-41.6601709 341.3807666 -41.3203418 340.7615332 -40.97021484 340.12353516 C-25.7229294 311.96965227 -19.47134501 281.08487233 -13.89453125 249.83984375 C-9.15166255 223.56974688 -1.88573732 198.29113343 6.54238892 172.99682617 C11.36040351 158.49148437 15.23879768 144.05438216 18 129 C18.13970215 128.28360352 18.2794043 127.56720703 18.42333984 126.82910156 C24.13434026 97.24053665 18.42006523 63.24513352 2.25 37.75 C-12.63130721 16.60590326 -32.85943162 3.04259935 -58.20703125 -2.1484375 C-107.40150325 -10.53206135 -151.81669699 13.45268927 -184.57080078 48.4140625 Z " fill="#4A9CD1" transform="translate(485,199)"/>
<path d="M0 0 C1.01835937 0.29261719 2.03671875 0.58523438 3.0859375 0.88671875 C14.21075425 4.20735045 23.27252021 9.3205083 30 19 C39.05758344 36.40631252 35.24387281 58.10337798 29.921875 76.16015625 C16.15851874 118.55829184 -12.06667921 153.15544069 -51.86328125 173.4609375 C-74.89840295 184.46179157 -102.24693842 187.69116709 -126.75 179.8125 C-140.9902508 174.73308 -151.15802267 166.47535779 -158 153 C-165.94524656 135.37949351 -163.20643063 114.98002153 -156.88818359 97.30712891 C-149.79823468 78.89041169 -139.83024616 62.92056716 -127 48 C-126.39414062 47.27167969 -125.78828125 46.54335938 -125.1640625 45.79296875 C-101.23462534 17.47827274 -62.12365463 0.75094986 -25.75 -2.3125 C-16.44194124 -3.06590968 -8.87758931 -3.13841538 0 0 Z " fill="#4A9CD1" transform="translate(430,659)"/>
<path d="M0 0 C10.8112073 9.06280731 16.3985473 20.86288143 18.1328125 34.83203125 C18.24579062 36.58036771 18.32484757 38.3310074 18.3828125 40.08203125 C18.434375 41.33628906 18.4859375 42.59054687 18.5390625 43.8828125 C19.34322497 72.45894271 9.86764732 103.00062015 -9.2421875 124.51953125 C-10.6942695 126.04633445 -12.15203441 127.56776689 -13.6171875 129.08203125 C-14.42349609 130.01595703 -14.42349609 130.01595703 -15.24609375 130.96875 C-23.94770653 140.67355624 -36.78530816 146.17287464 -49.57421875 147.35546875 C-65.17825033 147.88719198 -79.43606353 142.35724587 -91.30078125 132.33984375 C-103.06217596 120.87595481 -108.70751031 106.66987799 -108.9921875 90.51953125 C-108.97019855 63.99260905 -95.04542626 41.9248041 -77.6171875 23.08203125 C-76.58658203 21.92767578 -76.58658203 21.92767578 -75.53515625 20.75 C-58.27192011 2.2832267 -23.74548002 -17.40153835 0 0 Z " fill="#E0F6FE" transform="translate(352.6171875,374.91796875)"/>
<path d="M0 0 C4.00952617 3.71252423 6.7726509 7.50980482 9.5625 12.1875 C13.2180189 18.18213441 17.00645675 24.05751331 20.9375 29.875 C26.45804609 38.08447478 31.69643353 46.439964 36.765625 54.93505859 C37.55222182 56.25092804 38.34341128 57.56407067 39.140625 58.87353516 C48.25529154 73.84586104 56.62462843 90.92182459 56.5 108.75 C56.49427979 109.71010986 56.48855957 110.67021973 56.48266602 111.65942383 C56.11318423 126.47228432 50.02102941 139.5158371 39.3125 149.8125 C34.01097717 154.30272918 28.40827744 157.36576738 22 160 C21.19691406 160.3403125 20.39382813 160.680625 19.56640625 161.03125 C6.41206607 165.57738996 -11.4466797 164.75855965 -24 159 C-38.21650429 152.07580864 -48.1321584 141.83731396 -53.375 126.75 C-54.65254321 122.49698222 -55.67679752 118.44403409 -56 114 C-56.06316406 113.23945312 -56.12632812 112.47890625 -56.19140625 111.6953125 C-56.85620225 97.24136072 -51.21768509 83.74221698 -45 71 C-44.42636719 69.82308594 -43.85273437 68.64617187 -43.26171875 67.43359375 C-35.10384202 51.51962009 -24.95991564 36.64105403 -14.75390625 21.984375 C-9.71748912 14.73725332 -4.87590922 7.35559863 0 0 Z " fill="#E0F6FE" transform="translate(719,471)"/>
<path d="M0 0 C5.54952684 4.54861017 5.54952684 4.54861017 5.95458984 8.34082031 C7.22672066 43.23575399 -6.29216987 74.98600183 -29.85546875 100.5390625 C-48.16089036 119.7143451 -72.06599273 134.54469064 -99.16796875 135.703125 C-106.73635333 135.74059225 -113.87982198 135.5162799 -121.23828125 133.53515625 C-115.76872252 114.04985327 -102.73615467 96.30720651 -89.23828125 81.53515625 C-88.78259766 81.03419434 -88.32691406 80.53323242 -87.85742188 80.01708984 C-76.69583411 67.91487462 -63.50848555 58.08211517 -49.32714844 49.78076172 C-45.9111395 47.75212103 -43.22143471 46.03610224 -41.23828125 42.53515625 C-40.71072608 38.91763506 -40.77895812 37.2333274 -42.80078125 34.16015625 C-46.26643006 31.84972371 -48.10517838 32.00185265 -52.23828125 32.53515625 C-69.74983039 37.54740645 -85.28584318 50.2892148 -98.23828125 62.53515625 C-98.98722656 63.23125 -99.73617187 63.92734375 -100.5078125 64.64453125 C-116.17207306 79.6778321 -131.35228804 101.87717663 -138.23828125 122.53515625 C-138.89828125 122.53515625 -139.55828125 122.53515625 -140.23828125 122.53515625 C-146.46322417 108.73202194 -145.72173173 92.78864083 -140.55419922 78.66552734 C-134.79518049 63.74257683 -126.73570337 50.58923032 -116.23828125 38.53515625 C-115.70460938 37.8803125 -115.1709375 37.22546875 -114.62109375 36.55078125 C-93.70371716 10.99766174 -32.84059286 -21.4925346 0 0 Z " fill="#E0F6FE" transform="translate(435.23828125,684.46484375)"/>
<path d="M0 0 C15.47413622 13.17392678 23.72400424 32.90041089 25.3515625 52.96484375 C27.23936227 92.096819 16.48977212 128.30384714 -9.6484375 157.96484375 C-22.58241802 172.07840329 -39.22993133 183.47108162 -58.76123047 185.24804688 C-61.896188 185.3643572 -65.01168392 185.37491304 -68.1484375 185.33984375 C-69.18613281 185.35144531 -70.22382813 185.36304688 -71.29296875 185.375 C-81.84076347 185.33559354 -91.44001977 183.14811831 -100.7734375 178.21484375 C-101.45229004 177.86341309 -102.13114258 177.51198242 -102.83056641 177.14990234 C-123.25195676 166.36830225 -136.74879624 149.83414171 -143.61328125 127.87890625 C-150.13928972 102.55679042 -143.93694577 76.49517954 -131.01904297 54.30175781 C-116.81889165 30.90787677 -97.27591105 10.28188445 -72.6484375 -2.03515625 C-71.70315186 -2.51275391 -71.70315186 -2.51275391 -70.73876953 -3 C-47.72846044 -14.41063871 -21.28457723 -16.35584769 0 0 Z M-102.2109375 50.58984375 C-117.28540293 69.9656342 -125.08637707 91.35459063 -123.6484375 115.96484375 C-121.97284363 129.29273259 -114.79369392 142.85835737 -104.11962891 151.15283203 C-90.61342633 161.03474523 -75.41846647 166.04002053 -58.58984375 163.50390625 C-46.2830828 160.7832959 -37.57369981 154.62895381 -28.6484375 145.96484375 C-27.72611328 145.15273438 -27.72611328 145.15273438 -26.78515625 144.32421875 C-8.21485023 127.41883672 2.1166406 96.50079633 3.46142578 71.95996094 C3.99490784 53.57052042 2.51953582 35.01447403 -10.6484375 20.96484375 C-16.9978027 14.2702412 -24.06337291 10.91259673 -33.34814453 10.49169922 C-61.60447364 10.12158774 -85.32635376 29.63158406 -102.2109375 50.58984375 Z " fill="#479AD1" transform="translate(367.6484375,358.03515625)"/>
<path d="M0 0 C5.63190265 2.9584556 8.35316461 6.89104193 11.66796875 12.10546875 C12.18829178 12.90294022 12.70861481 13.70041168 13.2447052 14.52204895 C14.90352786 17.07011754 16.54569098 19.62844412 18.1875 22.1875 C19.27039759 23.85682529 20.35437335 25.5254517 21.43945312 27.19335938 C24.11977302 31.31879585 26.78500037 35.45375039 29.44674683 39.59118652 C30.96590462 41.94712426 32.49229842 44.29818136 34.02172852 46.64746094 C39.00819763 54.30993451 43.93543912 61.98779105 48.5625 69.875 C49.37291748 71.25606934 49.37291748 71.25606934 50.19970703 72.66503906 C65.88571578 99.59631094 80.78770203 127.66789308 72.97265625 159.69140625 C67.30322933 178.97656528 54.99014944 196.13147929 37.3359375 206.1328125 C23.90348759 213.38633545 11.61411844 216.32121048 -3.625 216.4375 C-5.30493042 216.45296875 -5.30493042 216.45296875 -7.01879883 216.46875 C-18.02502504 216.35264887 -28.42985385 214.47717347 -38.1875 209.25 C-38.86111572 208.89929443 -39.53473145 208.54858887 -40.22875977 208.18725586 C-60.25182957 197.55292501 -73.11363164 181.42944459 -80 160 C-87.00846446 133.25272019 -77.39854259 108.27901409 -65 85 C-64.67193359 84.37722168 -64.34386719 83.75444336 -64.00585938 83.11279297 C-57.67153757 71.17190921 -50.22622006 59.96587969 -42.77783203 48.69921875 C-40.778435 45.66360579 -38.80608124 42.61162219 -36.84179688 39.55322266 C-34.57529673 36.0263062 -32.28754248 32.5132905 -30 29 C-29.35820801 28.01161133 -28.71641602 27.02322266 -28.05517578 26.00488281 C-25.92092145 22.72634474 -23.77422498 19.45623975 -21.625 16.1875 C-20.94638916 15.14215088 -20.26777832 14.09680176 -19.56860352 13.01977539 C-18.91947998 12.0374292 -18.27035645 11.05508301 -17.6015625 10.04296875 C-17.02744629 9.16664795 -16.45333008 8.29032715 -15.86181641 7.38745117 C-11.32029084 1.56374563 -7.32796447 -0.61066371 0 0 Z M-4 31 C-5.68897317 33.41507378 -7.32234988 35.84831008 -8.9375 38.3125 C-10.02826157 39.96509744 -11.11943388 41.61742383 -12.2109375 43.26953125 C-12.81260742 44.1817041 -13.41427734 45.09387695 -14.03417969 46.03369141 C-16.14764099 49.22278167 -18.27870591 52.39977742 -20.4140625 55.57421875 C-52.34149895 99.87208499 -52.34149895 99.87208499 -58.875 151.9375 C-55.43169762 166.42148295 -47.49962301 178.61120516 -34.79296875 186.52832031 C-20.69226446 194.66156968 -4.29082785 196.6877592 11.6640625 193.0859375 C19.21837755 191.04057352 25.90427372 187.95736776 32 183 C32.68320312 182.48824219 33.36640625 181.97648438 34.0703125 181.44921875 C43.98639428 173.55028668 50.76988978 161.09285592 52.30273438 148.51611328 C53.9083478 128.39070645 47.45090414 112.35112595 38 95 C37.11054687 93.34871094 37.11054687 93.34871094 36.203125 91.6640625 C24.59456956 70.77858456 11.26739642 50.16939519 -3 31 C-3.33 31 -3.66 31 -4 31 Z " fill="#489BD1" transform="translate(723,440)"/>
<path d="M0 0 C45.54 0 91.08 0 138 0 C138 15.84 138 31.68 138 48 C92.46 48 46.92 48 0 48 C0 32.16 0 16.32 0 0 Z " fill="#DFF6FE" transform="translate(650,222)"/>
<path d="M0 0 C-0.64010723 5.54759598 -4.97851161 9.14612017 -9.0234375 12.52734375 C-17.18791319 18.54153505 -25.51510288 23.39352257 -35 27 C-35.65935547 27.2568457 -36.31871094 27.51369141 -36.99804688 27.77832031 C-59.34136576 36.0745288 -86.27522308 33.25645398 -109 28 C-109.69254883 27.85046875 -110.38509766 27.7009375 -111.09863281 27.546875 C-127.58104287 23.96338172 -148.0529466 17.1454587 -161 6 C-161 5.34 -161 4.68 -161 4 C-111.64874042 -22.82841342 -47.99898183 -40.05840952 0 0 Z " fill="#E0F6FE" transform="translate(636,808)"/>
<path d="M0 0 C8.05584523 7.62108533 16.36862513 18.53598312 16.84765625 30.109375 C16.83025391 31.29273438 16.83025391 31.29273438 16.8125 32.5 C16.80347656 33.29921875 16.79445313 34.0984375 16.78515625 34.921875 C16.76775391 35.82679688 16.76775391 35.82679688 16.75 36.75 C12.88089338 36.10360987 10.19534184 34.24771959 6.9375 32.125 C-3.74325595 25.36444704 -15.1069212 20.3067006 -27.25 16.75 C-27.97703125 16.53601563 -28.7040625 16.32203125 -29.453125 16.1015625 C-39.25921685 13.4377029 -49.2987346 13.53469901 -59.37597656 13.50976562 C-61.717169 13.50013505 -64.05745281 13.46906827 -66.3984375 13.4375 C-95.74233151 13.23123369 -121.90613509 23.79569253 -147.25 37.75 C-148.40886719 38.3790625 -149.56773437 39.008125 -150.76171875 39.65625 C-153.2619012 41.01358337 -155.75808773 42.37756452 -158.25 43.75 C-155.13817264 32.20348268 -148.35096521 24.31155521 -140.25 15.75 C-139.56164062 14.9971875 -138.87328125 14.244375 -138.1640625 13.46875 C-105.24062882 -21.29056288 -38.14549368 -32.58976862 0 0 Z " fill="#E1F6FE" transform="translate(627.25,752.25)"/>
<path d="M0 0 C45.54 0 91.08 0 138 0 C138 15.84 138 31.68 138 48 C92.46 48 46.92 48 0 48 C0 32.16 0 16.32 0 0 Z M1 2 C1 16.85 1 31.7 1 47 C45.55 47 90.1 47 136 47 C136 32.15 136 17.3 136 2 C91.45 2 46.9 2 1 2 Z " fill="#F9FDFE" transform="translate(650,222)"/>
<path d="M0 0 C49.83 0 99.66 0 151 0 C151 0.66 151 1.32 151 2 C101.83 2 52.66 2 2 2 C2 5.63 2 9.26 2 13 C1.625 17.125 1.625 17.125 1 20 C0.34 20.33 -0.32 20.66 -1 21 C-0.67 14.07 -0.34 7.14 0 0 Z " fill="#4893C6" transform="translate(664,776)"/>
<path d="M0 0 C0.53625 0.680625 1.0725 1.36125 1.625 2.0625 C2.40875 3.031875 3.1925 4.00125 4 5 C4.36609375 5.51949219 4.7321875 6.03898438 5.109375 6.57421875 C17.21126455 22.59801695 41.67073454 29.97510256 60 36 C60 36.33 60 36.66 60 37 C52.4045142 36.55968198 46.33829652 34.49014105 39.375 31.5 C37.79211182 30.82614258 37.79211182 30.82614258 36.17724609 30.13867188 C23.07521216 24.44021882 8.39709754 17.67503273 0.73828125 4.89453125 C0 3 0 3 0 0 Z " fill="#4993C7" transform="translate(450,816)"/>
<path d="M0 0 C1 3 1 3 0.13671875 5.09375 C-10.44827203 22.66882904 -24.79663481 32.59887827 -44 39 C-45.39439664 39.06665376 -46.79169875 39.08538199 -48.1875 39.0625 C-49.445625 39.041875 -50.70375 39.02125 -52 39 C-48.75154627 36.83436418 -46.20375511 36.15903672 -42.4375 35.1875 C-26.94150054 30.85117093 -13.03270457 21.69355507 -4.625 7.6875 C-3.74761291 6.12633917 -2.87229174 4.56401354 -2 3 C-1.34 2.01 -0.68 1.02 0 0 Z " fill="#4893C4" transform="translate(870,737)"/>
<path d="M0 0 C3.65104326 1.35441928 6.81398372 3.02086751 10.125 5.0625 C23.71479369 13.06630487 38.02890237 19.11186953 53 24 C53 24.33 53 24.66 53 25 C39.63106796 23.63106796 39.63106796 23.63106796 38 22 C37.01 22.495 37.01 22.495 36 23 C36 22.01 36 21.02 36 20 C35.46125244 19.83927002 34.92250488 19.67854004 34.36743164 19.51293945 C28.37629899 17.63317889 22.9677047 15.14322173 17.4375 12.1875 C16.63892578 11.77435547 15.84035156 11.36121094 15.01757812 10.93554688 C9.66196825 8.10279153 4.59396923 4.97711676 0 1 C0 0.67 0 0.34 0 0 Z " fill="#4994C7" transform="translate(204,606)"/>
<path d="M0 0 C0.59941406 0.20238281 1.19882812 0.40476563 1.81640625 0.61328125 C1.01976562 1.14115234 1.01976562 1.14115234 0.20703125 1.6796875 C-0.85257813 2.42025391 -0.85257813 2.42025391 -1.93359375 3.17578125 C-2.6296875 3.65144531 -3.32578125 4.12710938 -4.04296875 4.6171875 C-9.32814897 9.54552161 -10.41048268 13.55585588 -10.79296875 20.640625 C-10.85909362 23.27900721 -10.9061592 25.91227921 -10.93359375 28.55078125 C-10.96179046 29.91605292 -10.99172301 31.2812899 -11.0234375 32.64648438 C-11.09387548 35.96880919 -11.14670512 39.29044261 -11.18359375 42.61328125 C-14.14257812 39.984375 -14.14257812 39.984375 -14.51171875 36.64453125 C-14.43032078 32.96534317 -14.33486463 29.29032718 -14.18359375 25.61328125 C-14.16425781 24.618125 -14.14492188 23.62296875 -14.125 22.59765625 C-13.74139502 14.46058092 -11.23956548 7.06285038 -5.12109375 1.42578125 C-2.18359375 -0.38671875 -2.18359375 -0.38671875 0 0 Z " fill="#4C98CB" transform="translate(639.18359375,201.38671875)"/>
<path d="M0 0 C-0.64582031 0.24492187 -1.29164063 0.48984375 -1.95703125 0.7421875 C-18.17285362 7.17527709 -32.90502566 15.7738531 -47 26 C-47 25.01 -47 24.02 -47 23 C-44.76807287 21.14980938 -42.58938549 19.54175279 -40.1875 17.9375 C-39.47916016 17.45796875 -38.77082031 16.9784375 -38.04101562 16.484375 C-8.82864388 -2.85517953 -8.82864388 -2.85517953 0 0 Z " fill="#4894C6" transform="translate(360,182)"/>
<path d="M0 0 C4.20902978 1.52529061 6.27522426 4.58953693 8.75 8.125 C9.18248047 8.73593506 9.61496094 9.34687012 10.06054688 9.97631836 C15.99035665 18.59783511 24.61167397 31.29570553 24 42 C22.29803631 39.44705446 20.92706917 36.98764032 19.5625 34.25 C19.15128906 33.43015625 18.74007812 32.6103125 18.31640625 31.765625 C17.34602555 29.72696169 16.44280812 27.65600421 15.578125 25.5703125 C14.01755999 22.03972731 12.23398218 18.89452774 10.1875 15.625 C9.49011719 14.50996094 8.79273438 13.39492187 8.07421875 12.24609375 C5.4404284 8.12428625 2.75647854 4.04074695 0 0 Z " fill="#4793C6" transform="translate(495,211)"/>
<path d="M0 0 C4.52733754 0.64303834 8.37747513 2.36267402 12.4375 4.375 C13.13037109 4.71789062 13.82324219 5.06078125 14.53710938 5.4140625 C22.10424095 9.32500948 28.53401719 14.50391461 35 20 C34.505 21.485 34.505 21.485 34 23 C33.55011719 22.57589844 33.10023438 22.15179688 32.63671875 21.71484375 C22.94845476 12.88085554 11.55091641 7.00148829 0 1 C0 0.67 0 0.34 0 0 Z " fill="#4995C8" transform="translate(813,367)"/>
<path d="M0 0 C0.99 0.33 1.98 0.66 3 1 C2.20335937 1.71285156 1.40671875 2.42570313 0.5859375 3.16015625 C-6.34777896 9.34953334 -6.34777896 9.34953334 -12.625 16.1875 C-13.40875 17.115625 -14.1925 18.04375 -15 19 C-15.66 19 -16.32 19 -17 19 C-17.226875 19.5775 -17.45375 20.155 -17.6875 20.75 C-19.33038023 23.5663661 -21.39533227 25.08077114 -24 27 C-22.48771521 21.73724892 -19.07027734 18.47558958 -15.375 14.625 C-14.42983521 13.63016602 -14.42983521 13.63016602 -13.46557617 12.61523438 C-3.13550693 1.83233655 -3.13550693 1.83233655 0 0 Z " fill="#4994C7" transform="translate(301,215)"/>
<path d="M0 0 C0.66 0.33 1.32 0.66 2 1 C1.13375 1.72316406 1.13375 1.72316406 0.25 2.4609375 C-0.4925 3.09257813 -1.235 3.72421875 -2 4.375 C-2.7425 5.00148438 -3.485 5.62796875 -4.25 6.2734375 C-4.8275 6.84320312 -5.405 7.41296875 -6 8 C-6 8.66 -6 9.32 -6 10 C-6.58265625 10.11931885 -7.1653125 10.2386377 -7.765625 10.36157227 C-10.09476329 11.0270767 -11.71816961 11.90900441 -13.75 13.21484375 C-14.4409375 13.65376953 -15.131875 14.09269531 -15.84375 14.54492188 C-16.5553125 15.00447266 -17.266875 15.46402344 -18 15.9375 C-19.41563061 16.84406779 -20.8322667 17.74906778 -22.25 18.65234375 C-22.87390625 19.05445068 -23.4978125 19.45655762 -24.140625 19.87084961 C-26.07746178 21.04704054 -27.8966527 22.14840726 -30 23 C-30.99 22.67 -31.98 22.34 -33 22 C-32.15179688 21.53851562 -31.30359375 21.07703125 -30.4296875 20.6015625 C-19.61253895 14.62124911 -9.60186777 7.79592988 0 0 Z " fill="#4895C8" transform="translate(424,598)"/>
<path d="M0 0 C0.33 0 0.66 0 1 0 C0.97679687 1.02738281 0.95359375 2.05476562 0.9296875 3.11328125 C0.8027882 11.31414872 1.0939512 18.96736576 3 27 C3.66 27 4.32 27 5 27 C5.12375 26.38125 5.2475 25.7625 5.375 25.125 C6 23 6 23 8 21 C7.39009109 24.55780196 6.4216319 27.6828589 5 31 C4.34 31 3.68 31 3 31 C-0.20353897 23.89650054 -1.16453022 18.08018761 -1.125 10.3125 C-1.12886719 9.54099609 -1.13273437 8.76949219 -1.13671875 7.97460938 C-1.12672546 2.25345092 -1.12672546 2.25345092 0 0 Z " fill="#F2F9FC" transform="translate(292,776)"/>
<path d="M0 0 C0.99 0 1.98 0 3 0 C3.61101562 1.33224609 3.61101562 1.33224609 4.234375 2.69140625 C6.99637216 7.86709561 10.98341372 11.76847934 15 16 C15.62648437 16.66773438 16.25296875 17.33546875 16.8984375 18.0234375 C20.63389175 21.89411182 24.53814395 24.99507654 29 28 C28.34 28.66 27.68 29.32 27 30 C5.00141982 9.90547003 5.00141982 9.90547003 0 2 C0 1.34 0 0.68 0 0 Z " fill="#F2F8FC" transform="translate(181,552)"/>
<path d="M0 0 C10.50616365 1.24287333 20.63414459 11.96668885 28 19 C27.67 19.99 27.34 20.98 27 22 C26.61972656 21.56171875 26.23945313 21.1234375 25.84765625 20.671875 C19.33803501 13.66370509 11.53401432 8.5408926 3.66064453 3.20166016 C2 2 2 2 0 0 Z " fill="#4894C6" transform="translate(465,187)"/>
<path d="M0 0 C0.99 0.33 1.98 0.66 3 1 C2.51789063 1.39832031 2.03578125 1.79664063 1.5390625 2.20703125 C0.90742188 2.73683594 0.27578125 3.26664063 -0.375 3.8125 C-1.00148438 4.33457031 -1.62796875 4.85664062 -2.2734375 5.39453125 C-4.2221048 7.08225739 -4.2221048 7.08225739 -6 10 C-6.66 10 -7.32 10 -8 10 C-8.37318359 10.83337891 -8.37318359 10.83337891 -8.75390625 11.68359375 C-10.22095985 14.41074982 -11.98886002 16.65663723 -13.9375 19.0625 C-14.62714844 19.91972656 -15.31679688 20.77695312 -16.02734375 21.66015625 C-17.61614692 23.54469703 -19.22058755 25.29868089 -21 27 C-20.5659751 22.1172199 -18.13459773 19.28712947 -15 15.75 C-14.51104248 15.18514893 -14.02208496 14.62029785 -13.51831055 14.03833008 C-9.2318809 9.13925564 -4.70631738 4.49714772 0 0 Z " fill="#4694C8" transform="translate(478,745)"/>
<path d="M0 0 C0.99 0.33 1.98 0.66 3 1 C1.2527456 2.29537826 -0.49791517 3.58616273 -2.25 4.875 C-3.22453125 5.59429687 -4.1990625 6.31359375 -5.203125 7.0546875 C-7.43902154 8.60982225 -9.52872493 9.88204223 -12 11 C-12 11.66 -12 12.32 -12 13 C-13.390625 14.3671875 -13.390625 14.3671875 -15.25 15.875 C-17.97805828 18.1327034 -20.54236923 20.444064 -23 23 C-22.42676569 19.13066838 -20.61046448 16.84777943 -18 14 C-17.34 14 -16.68 14 -16 14 C-15.67 13.01 -15.34 12.02 -15 11 C-12.88701058 9.20036547 -10.7859101 7.52531723 -8.5625 5.875 C-7.96373047 5.41996094 -7.36496094 4.96492188 -6.74804688 4.49609375 C-2.34361264 1.17180632 -2.34361264 1.17180632 0 0 Z " fill="#4693C7" transform="translate(604,377)"/>
<path d="M0 0 C0.33 0.66 0.66 1.32 1 2 C-13.53663793 22.82512315 -13.53663793 22.82512315 -24 30 C-22.50219439 26.42459306 -20.45312658 24.36761877 -17.625 21.75 C-10.87300973 15.17569368 -5.50382605 7.62213711 0 0 Z " fill="#F4FAFD" transform="translate(372,497)"/>
<path d="M0 0 C0.66 0.33 1.32 0.66 2 1 C-5.33333333 9 -12.66666667 17 -20 25 C-20 21.03970674 -18.7395409 20.28843415 -16.0625 17.4375 C-15.2478125 16.55964844 -14.433125 15.68179687 -13.59375 14.77734375 C-12.7378125 13.86082031 -11.881875 12.94429688 -11 12 C-9.35059808 10.16987657 -7.70458931 8.33668755 -6.0625 6.5 C-4.07656523 4.28640075 -2.10275392 2.10275392 0 0 Z " fill="#4792C5" transform="translate(199,341)"/>
<path d="M0 0 C0.99 0.33 1.98 0.66 3 1 C2.113125 1.721875 1.22625 2.44375 0.3125 3.1875 C-5.3452432 7.92421524 -10.14544755 13.36188663 -15.01171875 18.890625 C-17 21 -17 21 -19 22 C-17.74938727 17.41442 -15.20511795 15.0105385 -11.87109375 11.8359375 C-10.05612562 10.05507106 -8.43454037 8.20635403 -6.8125 6.25 C-4.7390154 3.80152351 -2.84739929 1.57097892 0 0 Z " fill="#4793C6" transform="translate(317,693)"/>
<path d="M0 0 C0.66 0 1.32 0 2 0 C2.33 8.91 2.66 17.82 3 27 C2.34 26.67 1.68 26.34 1 26 C-1.12451466 17.29073228 -1.19724706 8.83374179 0 0 Z " fill="#4B94C5" transform="translate(268,777)"/>
<path d="M0 0 C2.56164656 2.31208384 4.04232569 4.65720595 5.62890625 7.7109375 C6.10650391 8.62617187 6.58410156 9.54140625 7.07617188 10.484375 C7.56666016 11.43828125 8.05714844 12.3921875 8.5625 13.375 C9.3040332 14.79425781 9.3040332 14.79425781 10.06054688 16.2421875 C14.8214394 25.41608596 14.8214394 25.41608596 16 29 C15.67 29.99 15.34 30.98 15 32 C14.5978125 30.5459375 14.5978125 30.5459375 14.1875 29.0625 C13.795625 28.051875 13.40375 27.04125 13 26 C12.01 25.67 11.02 25.34 10 25 C9.92910156 24.19046875 9.85820313 23.3809375 9.78515625 22.546875 C8.7672384 17.94851973 6.72499012 14.33455356 4.4375 10.25 C3.5992732 8.73635828 2.76445858 7.22082031 1.93359375 5.703125 C1.56290771 5.03958008 1.19222168 4.37603516 0.81030273 3.69238281 C0 2 0 2 0 0 Z " fill="#2281C5" transform="translate(774,516)"/>
<path d="M0 0 C0.8457107 2.44316424 1.00714136 3.95868215 0.5625 6.53125 C-0.15804297 10.97459833 -0.35615056 15.38267126 -0.5625 19.875 C-0.60568359 20.75414062 -0.64886719 21.63328125 -0.69335938 22.5390625 C-0.79869339 24.69255797 -0.89977649 26.84626064 -1 29 C-1.33 29 -1.66 29 -2 29 C-2.36639923 26.64717188 -2.71830159 24.29359364 -3.0625 21.9375 C-3.16626953 21.28072266 -3.27003906 20.62394531 -3.37695312 19.94726562 C-4.0387065 15.314992 -3.8450091 11.54413983 -3 7 C-2.34 7 -1.68 7 -1 7 C-0.67 4.69 -0.34 2.38 0 0 Z " fill="#2A89C9" transform="translate(292,768)"/>
<path d="M0 0 C0.66 0.33 1.32 0.66 2 1 C1.60167969 1.44730469 1.20335937 1.89460938 0.79296875 2.35546875 C-2.19409788 5.7640679 -4.7105371 9.07520645 -7 13 C-8.5625 14.8125 -8.5625 14.8125 -10 16 C-10.66 16 -11.32 16 -12 16 C-12.2475 16.598125 -12.495 17.19625 -12.75 17.8125 C-14.16370012 20.28647521 -15.65055383 21.43370255 -18 23 C-16.31583893 18.96195299 -13.52110533 15.89136046 -10.6875 12.625 C-9.73286101 11.51320275 -8.77843283 10.40122446 -7.82421875 9.2890625 C-7.35806152 8.74797852 -6.8919043 8.20689453 -6.41162109 7.64941406 C-4.24801647 5.12134197 -2.12410589 2.56130802 0 0 Z " fill="#F0F8FC" transform="translate(253,314)"/>
<path d="M0 0 C0.33 0.99 0.66 1.98 1 3 C-0.48281788 5.41886523 -1.98688244 7.61845642 -3.6875 9.875 C-4.13544922 10.48730469 -4.58339844 11.09960938 -5.04492188 11.73046875 C-7.6132308 15.22217259 -10.26780941 18.6343507 -13 22 C-13.99 21.67 -14.98 21.34 -16 21 C-15.34773438 20.23816406 -14.69546875 19.47632813 -14.0234375 18.69140625 C-8.93415705 12.69645592 -4.15963962 6.69600524 0 0 Z " fill="#4693C7" transform="translate(439,774)"/>
<path d="M0 0 C0.5775 0.226875 1.155 0.45375 1.75 0.6875 C0.95335937 1.21537109 0.95335937 1.21537109 0.140625 1.75390625 C-5.47295077 5.67726304 -9.4130824 9.2096332 -10.70703125 16.1328125 C-10.96427058 18.32106172 -11.15020322 20.48698098 -11.25 22.6875 C-11.58 22.6875 -11.91 22.6875 -12.25 22.6875 C-12.99746095 15.2820998 -12.37076655 10.63117929 -7.953125 4.5625 C-3.38216855 -0.46974563 -3.38216855 -0.46974563 0 0 Z " fill="#438FC3" transform="translate(639.25,201.3125)"/>
<path d="M0 0 C3.82964668 3.55610049 6.86744222 7.45174498 9 12.25 C10.29024907 14.50793588 11.68413346 14.91443756 14 16 C14.66 16.99 15.32 17.98 16 19 C11.86695956 17.65352167 9.69206386 15.97407451 6.875 12.6875 C5.88113281 11.54861328 5.88113281 11.54861328 4.8671875 10.38671875 C0 4.16527197 0 4.16527197 0 0 Z " fill="#4993C4" transform="translate(273,811)"/>
<path d="M0 0 C0.66 0.33 1.32 0.66 2 1 C1.73783691 1.48879639 1.47567383 1.97759277 1.20556641 2.48120117 C0.0093398 4.715198 -1.18285861 6.95132067 -2.375 9.1875 C-2.7875 9.95642578 -3.2 10.72535156 -3.625 11.51757812 C-5.62877719 15.2827401 -7.53510452 18.98361075 -9 23 C-9.76724391 20.74080605 -10.13618605 19.43350395 -9.41088867 17.12475586 C-9.0832251 16.49448486 -8.75556152 15.86421387 -8.41796875 15.21484375 C-7.88526367 14.17166992 -7.88526367 14.17166992 -7.34179688 13.10742188 C-6.96087891 12.39134766 -6.57996094 11.67527344 -6.1875 10.9375 C-5.81818359 10.21755859 -5.44886719 9.49761719 -5.06835938 8.75585938 C-3.49568074 5.71497088 -1.90269965 2.85404947 0 0 Z " fill="#4592C6" transform="translate(576,404)"/>
<path d="M0 0 C0.66 0.33 1.32 0.66 2 1 C1.43152344 1.6290625 0.86304688 2.258125 0.27734375 2.90625 C-4.5271682 8.23211968 -9.29600848 13.58511587 -14 19 C-14.33 18.01 -14.66 17.02 -15 16 C-14.36384766 15.38125 -14.36384766 15.38125 -13.71484375 14.75 C-9.75129367 10.84742761 -6.01204355 6.81667838 -2.3828125 2.6015625 C-1.61429517 1.71147181 -0.83152881 0.83152881 0 0 Z " fill="#4894C7" transform="translate(217,321)"/>
<path d="M0 0 C0.66 0.33 1.32 0.66 2 1 C1.67201416 1.50450684 1.34402832 2.00901367 1.00610352 2.52880859 C-0.4761785 4.81017226 -1.95685741 7.09257202 -3.4375 9.375 C-3.95376953 10.1690625 -4.47003906 10.963125 -5.00195312 11.78125 C-5.49501953 12.54179687 -5.98808594 13.30234375 -6.49609375 14.0859375 C-6.95169678 14.7876709 -7.4072998 15.4894043 -7.87670898 16.21240234 C-9.04092365 18.00082655 -9.04092365 18.00082655 -10 20 C-10.66 20 -11.32 20 -12 20 C-11.39235744 17.00265444 -10.46199224 14.88962107 -8.75 12.36328125 C-8.3065625 11.70392578 -7.863125 11.04457031 -7.40625 10.36523438 C-6.9421875 9.68783203 -6.478125 9.01042969 -6 8.3125 C-5.5359375 7.62349609 -5.071875 6.93449219 -4.59375 6.22460938 C-1.18332067 1.18332067 -1.18332067 1.18332067 0 0 Z " fill="#4793C6" transform="translate(263,259)"/>
<path d="M0 0 C0.66 0.33 1.32 0.66 2 1 C1.50072998 1.46897705 1.00145996 1.9379541 0.48706055 2.42114258 C-1.779924 4.55110144 -4.04621889 6.6817927 -6.3125 8.8125 C-7.49102539 9.91948242 -7.49102539 9.91948242 -8.69335938 11.04882812 C-9.45068359 11.76103516 -10.20800781 12.47324219 -10.98828125 13.20703125 C-11.68477783 13.8616333 -12.38127441 14.51623535 -13.09887695 15.19067383 C-14.75847489 16.77013708 -16.38891345 18.37128186 -18 20 C-18.66 19.67 -19.32 19.34 -20 19 C-17.60838068 16.57913227 -15.21096558 14.16408349 -12.8125 11.75 C-12.13896484 11.06808594 -11.46542969 10.38617188 -10.77148438 9.68359375 C-7.32936311 6.22468165 -3.90714016 2.94363181 0 0 Z " fill="#F4FAFD" transform="translate(320,229)"/>
<path d="M0 0 C3.56695102 3.14822199 5.31721434 6.30063614 7.25 10.625 C7.77078125 11.77226562 8.2915625 12.91953125 8.828125 14.1015625 C10 17 10 17 10 19 C10.66 19 11.32 19 12 19 C12 21.31 12 23.62 12 26 C8.93016703 22.93016703 7.89273696 18.85370542 6.38671875 14.84960938 C5.07398222 11.44533666 3.6569875 8.28562874 1.8046875 5.13671875 C0 2 0 2 0 0 Z " fill="#1E7FC3" transform="translate(488,238)"/>
<path d="M0 0 C0.66 0 1.32 0 2 0 C0.51991304 5.00113594 -1.6318336 9.32915597 -4.125 13.875 C-4.49753906 14.56335938 -4.87007813 15.25171875 -5.25390625 15.9609375 C-6.16499526 17.64294798 -7.08190315 19.32180436 -8 21 C-8.84205836 18.62077693 -9.14174203 17.40070408 -8.28735352 14.98535156 C-7.90506592 14.2940918 -7.52277832 13.60283203 -7.12890625 12.890625 C-6.71962891 12.13652344 -6.31035156 11.38242187 -5.88867188 10.60546875 C-5.2322168 9.43951172 -5.2322168 9.43951172 -4.5625 8.25 C-3.9118457 7.06083984 -3.9118457 7.06083984 -3.24804688 5.84765625 C-2.17607546 3.89219191 -1.09321878 1.94364092 0 0 Z " fill="#4792C6" transform="translate(287,728)"/>
<path d="M0 0 C-1 2 -1 2 -2.625 2.625 C-5.7660575 3.12095645 -8.82601831 3.06103811 -12 3 C-12 2.67 -12 2.34 -12 2 C-15.3 1.67 -18.6 1.34 -22 1 C-22 0.67 -22 0.34 -22 0 C-19.27119539 -0.19555932 -16.54228931 -0.38170447 -13.8125 -0.5625 C-13.04357422 -0.61857422 -12.27464844 -0.67464844 -11.48242188 -0.73242188 C-7.45938647 -0.99141557 -3.93927628 -1.06573607 0 0 Z " fill="#D5EBF7" transform="translate(317,543)"/>
<path d="M0 0 C0.33 0 0.66 0 1 0 C0.60983685 7.80326294 -1.75773658 13.92923365 -5 21 C-6.4245373 16.52581026 -5.0646781 13.12004752 -3.625 8.8125 C-3.39039063 8.07580078 -3.15578125 7.33910156 -2.9140625 6.58007812 C-1.15836522 1.15836522 -1.15836522 1.15836522 0 0 Z " fill="#4894C8" transform="translate(516,366)"/>
<path d="M0 0 C-6.49358047 4.88779267 -13.18727471 9.50408776 -21 12 C-21.99 11.67 -22.98 11.34 -24 11 C-22.94039062 10.52949219 -21.88078125 10.05898438 -20.7890625 9.57421875 C-19.40083666 8.94576516 -18.01282697 8.31683394 -16.625 7.6875 C-15.92632813 7.37876953 -15.22765625 7.07003906 -14.5078125 6.75195312 C-11.00002215 5.14983734 -9.18236807 4.2735521 -7 1 C-2.5 -1.25 -2.5 -1.25 0 0 Z " fill="#1F7FC4" transform="translate(769,640)"/>
<path d="M0 0 C1.125 3.75 1.125 3.75 0 6 C0.55429687 5.69964844 1.10859375 5.39929688 1.6796875 5.08984375 C2.40414063 4.70957031 3.12859375 4.32929687 3.875 3.9375 C4.59429687 3.55464844 5.31359375 3.17179688 6.0546875 2.77734375 C6.69664062 2.52082031 7.33859375 2.26429688 8 2 C8.66 2.33 9.32 2.66 10 3 C8.41779413 3.96019364 6.83418669 4.91807798 5.25 5.875 C3.92742187 6.67550781 3.92742187 6.67550781 2.578125 7.4921875 C0.41725907 8.75596666 -1.74570395 9.91498835 -4 11 C-3.52269162 9.5410574 -3.04308958 8.08286504 -2.5625 6.625 C-2.29566406 5.81289063 -2.02882813 5.00078125 -1.75390625 4.1640625 C-1 2 -1 2 0 0 Z " fill="#EDF6FB" transform="translate(473,785)"/>
<path d="M0 0 C4.44209835 0.50766838 6.80450885 1.88644452 10 5 C11.75880586 7.3198973 12.78907109 9.28751925 14 12 C13.25 14.4375 13.25 14.4375 12 16 C11.62875 14.783125 11.2575 13.56625 10.875 12.3125 C9.16437785 7.70196601 6.93362169 5.86826582 3 3 C1.98319689 2.01709032 0.97261781 1.02665213 0 0 Z " fill="#4993C4" transform="translate(797,201)"/>
<path d="M0 0 C0.66 0 1.32 0 2 0 C1.60983685 7.80326294 -0.75773658 13.92923365 -4 21 C-5.09868574 17.72606396 -4.9040331 15.9556512 -3.6875 12.75 C-2.16480955 8.53815439 -1.02998959 4.35764827 0 0 Z " fill="#EEF7FB" transform="translate(853,711)"/>
<path d="M0 0 C0.66 0 1.32 0 2 0 C2.67090715 7.24579719 0.58125682 11.75838097 -3 18 C-4.23652951 14.2162197 -3.46866315 12.46728254 -1.76953125 8.8828125 C-0.59258862 6.00318638 -0.31377018 3.07494773 0 0 Z " fill="#4B96C8" transform="translate(647,336)"/>
<path d="M0 0 C0.66 0 1.32 0 2 0 C2.4125 0.721875 2.825 1.44375 3.25 2.1875 C5.35891686 5.57683067 7.88395506 7.53313109 11 10 C12.01680311 10.98290968 13.02738219 11.97334787 14 13 C8.71465294 12.67967594 5.56779936 9.61273386 2 6 C0 3 0 3 0 0 Z " fill="#4994C7" transform="translate(629,278)"/>
<path d="M0 0 C1.32 0.33 2.64 0.66 4 1 C4 1.66 4 2.32 4 3 C4.56203125 3.25523437 5.1240625 3.51046875 5.703125 3.7734375 C8.29386482 5.15692781 10.45107845 6.79938583 12.75 8.625 C13.54921875 9.25664063 14.3484375 9.88828125 15.171875 10.5390625 C15.77515625 11.02117188 16.3784375 11.50328125 17 12 C16.01 12.33 15.02 12.66 14 13 C11.40625 11.26953125 11.40625 11.26953125 8.5 8.8125 C7.5409375 8.01457031 6.581875 7.21664062 5.59375 6.39453125 C3.39584527 4.36544149 1.67502228 2.46160369 0 0 Z " fill="#4591C5" transform="translate(185,591)"/>
<path d="M0 0 C0.66 0 1.32 0 2 0 C0.57497833 3.90455937 -1.26652127 7.24835962 -3.5 10.75 C-4.1084375 11.71421875 -4.716875 12.6784375 -5.34375 13.671875 C-7 16 -7 16 -9 17 C-8.44884919 12.42968793 -6.61856432 9.47306361 -4.0625 5.6875 C-3.35222656 4.61886719 -2.64195312 3.55023438 -1.91015625 2.44921875 C-1.27980469 1.64097656 -0.64945313 0.83273437 0 0 Z " fill="#F0F8FC" transform="translate(702,496)"/>
<path d="M0 0 C-1.53115703 4.13697706 -4.50472062 6.27771285 -7.9375 8.8125 C-8.47568359 9.23208984 -9.01386719 9.65167969 -9.56835938 10.08398438 C-11.15234375 11.26953125 -11.15234375 11.26953125 -14 13 C-14.99 12.67 -15.98 12.34 -17 12 C-15.75283203 11.07767578 -15.75283203 11.07767578 -14.48046875 10.13671875 C-13.38271657 9.32044149 -12.28506563 8.50402807 -11.1875 7.6875 C-10.64029297 7.28337891 -10.09308594 6.87925781 -9.52929688 6.46289062 C-7.30850629 4.80739219 -5.18224579 3.18547853 -3.23828125 1.20703125 C-2 0 -2 0 0 0 Z " fill="#4893C6" transform="translate(412,808)"/>
<path d="M0 0 C0.33 0 0.66 0 1 0 C1.8089913 7.1191234 -1.06720223 12.62116486 -4 19 C-4.66 19 -5.32 19 -6 19 C-4.12275039 12.62267685 -2.14328358 6.29304541 0 0 Z " fill="#4794C6" transform="translate(662,798)"/>
<path d="M0 0 C0.57621094 0.21914063 1.15242188 0.43828125 1.74609375 0.6640625 C-0.00116065 1.95944076 -1.75182142 3.25022523 -3.50390625 4.5390625 C-4.4784375 5.25835938 -5.45296875 5.97765625 -6.45703125 6.71875 C-8.69292779 8.27388475 -10.78263118 9.54610473 -13.25390625 10.6640625 C-11.05679296 5.99519677 -5.72703823 -0.85359669 0 0 Z " fill="#4794C9" transform="translate(495.25390625,733.3359375)"/>
<path d="M0 0 C0.66 0.99 1.32 1.98 2 3 C-1.3 5.97 -4.6 8.94 -8 12 C-8 8.03869629 -6.65122875 7.17085599 -4 4.3125 C-3.2575 3.50425781 -2.515 2.69601562 -1.75 1.86328125 C-1.1725 1.24839844 -0.595 0.63351562 0 0 Z " fill="#318CCA" transform="translate(256,387)"/>
<path d="M0 0 C-0.98742187 0.34933594 -1.97484375 0.69867187 -2.9921875 1.05859375 C-4.28648214 1.51816214 -5.58075167 1.97780123 -6.875 2.4375 C-7.52597656 2.66759766 -8.17695313 2.89769531 -8.84765625 3.13476562 C-12.48434022 4.42160116 -12.48434022 4.42160116 -16 6 C-18.00800456 5.71887936 -20.01014051 5.38932033 -22 5 C-22 4.67 -22 4.34 -22 4 C-18.89948553 3.1321772 -15.79413335 2.28313233 -12.6875 1.4375 C-11.80642578 1.19064453 -10.92535156 0.94378906 -10.01757812 0.68945312 C-9.17001953 0.46064453 -8.32246094 0.23183594 -7.44921875 -0.00390625 C-6.66893311 -0.21861572 -5.88864746 -0.4333252 -5.0847168 -0.65454102 C-3 -1 -3 -1 0 0 Z " fill="#2382C6" transform="translate(365,815)"/>
<path d="M0 0 C3.01693943 2.85674795 5.40554531 5.82348931 7.75 9.25 C8.67039063 10.58804688 8.67039063 10.58804688 9.609375 11.953125 C10.06828125 12.62859375 10.5271875 13.3040625 11 14 C10.01 14 9.02 14 8 14 C5.95703125 11.69921875 5.95703125 11.69921875 3.8125 8.6875 C3.09707031 7.70136719 2.38164062 6.71523438 1.64453125 5.69921875 C0 3 0 3 0 0 Z " fill="#4691C3" transform="translate(157,557)"/>
<path d="M0 0 C2.53833449 1.26916725 2.89400901 2.41624809 4.125 4.9375 C4.47820312 5.64777344 4.83140625 6.35804688 5.1953125 7.08984375 C6 9 6 9 6 11 C6.66 11 7.32 11 8 11 C9.6875 13.3125 9.6875 13.3125 11 16 C10.67 16.99 10.34 17.98 10 19 C0 5.1369863 0 5.1369863 0 0 Z " fill="#EFF7FB" transform="translate(248,485)"/>
<path d="M0 0 C5.40204077 1.30958564 9.08799755 5.43303964 12 10 C11.67 10.99 11.34 11.98 11 13 C10.54109375 12.45730469 10.0821875 11.91460938 9.609375 11.35546875 C8.99578125 10.64003906 8.3821875 9.92460938 7.75 9.1875 C7.14671875 8.47980469 6.5434375 7.77210938 5.921875 7.04296875 C4.06082782 4.94002444 4.06082782 4.94002444 1.765625 3.36328125 C1.18296875 2.91339844 0.6003125 2.46351563 0 2 C0 1.34 0 0.68 0 0 Z " fill="#4694C7" transform="translate(447,667)"/>
<path d="M0 0 C4.78642607 0.5746621 8.53788787 1.98245643 12.875 4.0625 C14.60363281 4.88427734 14.60363281 4.88427734 16.3671875 5.72265625 C17.67042969 6.35494141 17.67042969 6.35494141 19 7 C18.34 7.66 17.68 8.32 17 9 C14.53911263 7.88032618 12.08134464 6.75455994 9.625 5.625 C8.92632813 5.30789063 8.22765625 4.99078125 7.5078125 4.6640625 C2.2265625 2.2265625 2.2265625 2.2265625 0 0 Z " fill="#F2F9FD" transform="translate(800,387)"/>
<path d="M0 0 C4.90974115 3.22640133 7.89672543 7.5615329 10 13 C9.67 13.99 9.34 14.98 9 16 C7.68370433 13.89812468 6.37187003 11.79368324 5.0625 9.6875 C4.68931641 9.09259766 4.31613281 8.49769531 3.93164062 7.88476562 C2.31175806 5.27252256 0.97592942 2.92778827 0 0 Z " fill="#EDF7FB" transform="translate(631,758)"/>
<path d="M0 0 C0.66 0.99 1.32 1.98 2 3 C0.88910872 8.30759165 -2.04037363 12.54926416 -5 17 C-5.33 16.34 -5.66 15.68 -6 15 C-5.28873684 12.99053701 -4.48150609 11.0144821 -3.625 9.0625 C-2.31463917 6.05013419 -1.03896128 3.11688385 0 0 Z " fill="#2583C4" transform="translate(854,717)"/>
<path d="M0 0 C4.16354957 1.35151871 6.34803116 3.06869392 9.1875 6.375 C9.86167969 7.14585937 10.53585937 7.91671875 11.23046875 8.7109375 C12.81147698 10.75612696 13.95264715 12.64748436 15 15 C11.56803232 13.85601077 11.15805749 13.13797957 9.1875 10.25 C6.48095312 6.47168769 3.64028353 3.86022277 0 1 C0 0.67 0 0.34 0 0 Z " fill="#F1F8FB" transform="translate(349,374)"/>
<path d="M0 0 C0.33 0 0.66 0 1 0 C1 5.28 1 10.56 1 16 C-0.95167729 13.07248407 -1.36553384 11.9152711 -1.75 8.5625 C-1.84796875 7.80066406 -1.9459375 7.03882813 -2.046875 6.25390625 C-1.99311664 3.66902511 -1.30508837 2.20359151 0 0 Z " fill="#4896CA" transform="translate(627,248)"/>
<path d="M0 0 C0.81210937 0.33837891 0.81210937 0.33837891 1.640625 0.68359375 C-0.48170479 1.85535893 -2.60695291 3.0211416 -4.734375 4.18359375 C-5.33765625 4.51746094 -5.9409375 4.85132813 -6.5625 5.1953125 C-11.1328125 7.68359375 -11.1328125 7.68359375 -13.359375 7.68359375 C-13.359375 7.02359375 -13.359375 6.36359375 -13.359375 5.68359375 C-11.61814951 4.64786479 -9.86600905 3.63046855 -8.109375 2.62109375 C-6.64757812 1.76837891 -6.64757812 1.76837891 -5.15625 0.8984375 C-2.359375 -0.31640625 -2.359375 -0.31640625 0 0 Z " fill="#4895C9" transform="translate(511.359375,724.31640625)"/>
<path d="M0 0 C3.27863638 3.1572054 6.28242887 6.35069019 9 10 C8.67 10.99 8.34 11.98 8 13 C6.84237881 11.78192862 5.6993417 10.54998765 4.5625 9.3125 C3.92441406 8.62800781 3.28632812 7.94351562 2.62890625 7.23828125 C0.83778902 4.77710578 0.37201442 2.99183426 0 0 Z " fill="#4995C8" transform="translate(792,348)"/>
<path d="M0 0 C0.33 0.66 0.66 1.32 1 2 C-0.09740625 3.62957312 -1.20318192 5.25351228 -2.3125 6.875 C-2.92738281 7.77992188 -3.54226562 8.68484375 -4.17578125 9.6171875 C-6 12 -6 12 -9 14 C-7.65070536 10.16336928 -5.92248975 7.34827431 -3.375 4.1875 C-2.42753906 3.00220703 -2.42753906 3.00220703 -1.4609375 1.79296875 C-0.97882813 1.20128906 -0.49671875 0.60960937 0 0 Z " fill="#4491C4" transform="translate(249,280)"/>
<path d="M0 0 C4.06160357 0.5478442 6.17140666 2.65064077 9.125 5.375 C9.99382812 6.16648438 10.86265625 6.95796875 11.7578125 7.7734375 C14 10 14 10 16 13 C12.34584258 11.43636055 9.7880312 9.17824958 6.875 6.5 C6.00617188 5.7059375 5.13734375 4.911875 4.2421875 4.09375 C2.80591578 2.75256247 1.38954317 1.38954317 0 0 Z " fill="#F1F8FB" transform="translate(463,214)"/>
<path d="M0 0 C0.33 0 0.66 0 1 0 C1.33266291 6.20970773 0.45029331 10.28264895 -2 16 C-3.3805087 12.23331402 -2.59568159 9.55210827 -1.5625 5.75 C-1.27503906 4.67234375 -0.98757813 3.5946875 -0.69140625 2.484375 C-0.46324219 1.66453125 -0.23507812 0.8446875 0 0 Z " fill="#4895C9" transform="translate(486,483)"/>
<path d="M0 0 C5.98511371 0.34302035 10.75117306 0.82307843 16 4 C12.11764181 5.49828872 9.56550712 4.43110582 5.75 3.0625 C4.67234375 2.68222656 3.5946875 2.30195313 2.484375 1.91015625 C1.66453125 1.60980469 0.8446875 1.30945313 0 1 C0 0.67 0 0.34 0 0 Z " fill="#4894C7" transform="translate(436,176)"/>
<path d="M0 0 C0.33 0 0.66 0 1 0 C1.18451025 10.55808656 1.18451025 10.55808656 0 15 C-2 13 -2 13 -2.01171875 10.46875 C-1.90472656 9.4890625 -1.79773438 8.509375 -1.6875 7.5 C-1.58824219 6.5203125 -1.48898437 5.540625 -1.38671875 4.53125 C-1 2 -1 2 0 0 Z " fill="#308BC9" transform="translate(474,432)"/>
<path d="M0 0 C3.35882075 1.41231461 5.13329047 3.03368978 7.3125 5.9375 C8.11107422 6.97197266 8.11107422 6.97197266 8.92578125 8.02734375 C9.28027344 8.67832031 9.63476562 9.32929688 10 10 C9.67 10.99 9.34 11.98 9 13 C7.49710267 11.02297434 5.99758658 9.0435417 4.5 7.0625 C4.07074219 6.49853516 3.64148438 5.93457031 3.19921875 5.35351562 C0 1.11328125 0 1.11328125 0 0 Z " fill="#4793C6" transform="translate(853,395)"/>
<path d="M0 0 C0.66 0 1.32 0 2 0 C0.23570801 4.97209562 -2.3939166 9.43438061 -5 14 C-5.67578125 12.328125 -5.67578125 12.328125 -6 10 C-4.85546875 7.421875 -4.85546875 7.421875 -3.1875 4.75 C-2.37345703 3.41195313 -2.37345703 3.41195313 -1.54296875 2.046875 C-1.03378906 1.37140625 -0.52460938 0.6959375 0 0 Z " fill="#4792C4" transform="translate(155,394)"/>
<path d="M0 0 C0.33 0.99 0.66 1.98 1 3 C-0.58203125 5.69921875 -0.58203125 5.69921875 -2.8125 8.6875 C-3.90498047 10.17830078 -3.90498047 10.17830078 -5.01953125 11.69921875 C-5.99986328 12.83810547 -5.99986328 12.83810547 -7 14 C-7.66 14 -8.32 14 -9 14 C-7.65070536 10.16336928 -5.92248975 7.34827431 -3.375 4.1875 C-2.42753906 3.00220703 -2.42753906 3.00220703 -1.4609375 1.79296875 C-0.97882813 1.20128906 -0.49671875 0.60960937 0 0 Z " fill="#4490C5" transform="translate(454,564)"/>
<path d="M0 0 C0.66 0.33 1.32 0.66 2 1 C-0.8437209 5.85105329 -5.21313431 7.21396096 -10.4375 8.6875 C-10.953125 8.790625 -11.46875 8.89375 -12 9 C-9.67350413 6.49280542 -7.17318479 4.67816399 -4.3125 2.8125 C-3.50425781 2.28269531 -2.69601562 1.75289062 -1.86328125 1.20703125 C-1.24839844 0.80871094 -0.63351562 0.41039062 0 0 Z " fill="#2683C5" transform="translate(623,822)"/>
<path d="M0 0 C0.33 0 0.66 0 1 0 C1.31563182 5.26053037 0.66590937 8.44573816 -2 13 C-2.33 13 -2.66 13 -3 13 C-3.46192125 8.07284004 -1.8275283 4.49267375 0 0 Z " fill="#4893C3" transform="translate(875,721)"/>
<path d="M0 0 C0.66 0.33 1.32 0.66 2 1 C-0.08291164 4.12436746 -0.61276477 4.5365026 -3.9375 5.75 C-4.62714844 6.01296875 -5.31679688 6.2759375 -6.02734375 6.546875 C-8 7 -8 7 -11 6 C-9.21385682 4.96953278 -7.42089982 3.95086764 -5.625 2.9375 C-4.62726562 2.36902344 -3.62953125 1.80054688 -2.6015625 1.21484375 C-1.74304688 0.81394531 -0.88453125 0.41304687 0 0 Z " fill="#2383C6" transform="translate(751,625)"/>
<path d="M0 0 C1.41750563 0.11509661 2.83401169 0.24253658 4.25 0.375 C5.03890625 0.44460938 5.8278125 0.51421875 6.640625 0.5859375 C9.085877 1.01507113 10.84836903 1.78600638 13 3 C5.25 4.125 5.25 4.125 3 3 C3 2.34 3 1.68 3 1 C2.01 0.67 1.02 0.34 0 0 Z " fill="#2886C7" transform="translate(268,612)"/>
<path d="M0 0 C0.66 0 1.32 0 2 0 C2.8638129 1.45264038 3.71580454 2.9123163 4.5625 4.375 C5.27599609 5.59316406 5.27599609 5.59316406 6.00390625 6.8359375 C6.33261719 7.55007813 6.66132813 8.26421875 7 9 C6.67 9.66 6.34 10.32 6 11 C3.37997275 8.62949916 1.64180091 6.12723983 0 3 C0 2.01 0 1.02 0 0 Z " fill="#4690C4" transform="translate(149,544)"/>
<path d="M0 0 C0 3.54404336 -0.60989485 4.10267905 -2.875 6.6875 C-3.40867187 7.31011719 -3.94234375 7.93273437 -4.4921875 8.57421875 C-6 10 -6 10 -8 10 C-6.34908222 5.70761377 -3.26245434 3.1206085 0 0 Z " fill="#4491C6" transform="translate(443,579)"/>
<path d="M0 0 C0.66 0.33 1.32 0.66 2 1 C-0.31 4.3 -2.62 7.6 -5 11 C-5.33 10.01 -5.66 9.02 -6 8 C-4.78515625 5.95703125 -4.78515625 5.95703125 -3.0625 3.8125 C-2.49660156 3.09707031 -1.93070313 2.38164062 -1.34765625 1.64453125 C-0.90292969 1.10183594 -0.45820313 0.55914062 0 0 Z " fill="#438FC2" transform="translate(164,382)"/>
<path d="M0 0 C0.99 0.33 1.98 0.66 3 1 C0.36 3.97 -2.28 6.94 -5 10 C-5.33 9.34 -5.66 8.68 -6 8 C-4.02 5.36 -2.04 2.72 0 0 Z " fill="#4792C5" transform="translate(175,367)"/>
<path d="M0 0 C0.59296875 0.21527344 1.1859375 0.43054688 1.796875 0.65234375 C0.70241662 1.51891491 -0.40410281 2.37027099 -1.515625 3.21484375 C-2.13050781 3.69050781 -2.74539063 4.16617188 -3.37890625 4.65625 C-3.98089844 4.98496094 -4.58289063 5.31367188 -5.203125 5.65234375 C-6.193125 5.32234375 -7.183125 4.99234375 -8.203125 4.65234375 C-2.74543269 -0.43323317 -2.74543269 -0.43323317 0 0 Z " fill="#4B95C6" transform="translate(639.203125,201.34765625)"/>
<path d="M0 0 C0.33 0.99 0.66 1.98 1 3 C0.07421875 4.82421875 0.07421875 4.82421875 -1.3125 6.6875 C-1.76238281 7.31011719 -2.21226562 7.93273437 -2.67578125 8.57421875 C-3.11277344 9.04472656 -3.54976562 9.51523437 -4 10 C-4.66 10 -5.32 10 -6 10 C-4.34832443 6.4213696 -2.21713508 3.25179812 0 0 Z " fill="#4893C5" transform="translate(654,819)"/>
<path d="M0 0 C0.66 0.33 1.32 0.66 2 1 C0.68 4.3 -0.64 7.6 -2 11 C-2.33 11 -2.66 11 -3 11 C-2.53199289 6.94393835 -2.12046792 3.53411321 0 0 Z " fill="#448EC0" transform="translate(143,418)"/>
<path d="M0 0 C3.35595828 0.59927826 5.37801226 1.84622436 8 4 C7.67 5.32 7.34 6.64 7 8 C6.401875 7.236875 5.80375 6.47375 5.1875 5.6875 C3.53040668 3.6516425 1.89702326 1.8021721 0 0 Z " fill="#EEF8FC" transform="translate(628,804)"/>
<path d="M0 0 C0.66 0.33 1.32 0.66 2 1 C0.7391988 2.03319813 -0.53403258 3.05124379 -1.8125 4.0625 C-2.87404297 4.91521484 -2.87404297 4.91521484 -3.95703125 5.78515625 C-4.63121094 6.18605469 -5.30539062 6.58695313 -6 7 C-6.99 6.67 -7.98 6.34 -9 6 C-6.03 4.02 -3.06 2.04 0 0 Z " fill="#F3F9FB" transform="translate(399,588)"/>
<path d="M0 0 C0.556875 0.226875 1.11375 0.45375 1.6875 0.6875 C-5.0625 4.6875 -5.0625 4.6875 -7.3125 4.6875 C-7.3125 4.0275 -7.3125 3.3675 -7.3125 2.6875 C-3.15982824 -0.42700382 -3.15982824 -0.42700382 0 0 Z " fill="#4693C7" transform="translate(343.3125,676.3125)"/>
<path d="M0 0 C2.31 1.98 4.62 3.96 7 6 C6.01 6.33 5.02 6.66 4 7 C2 5.1875 2 5.1875 0 3 C0 2.01 0 1.02 0 0 Z " fill="#4993C5" transform="translate(177,582)"/>
<path d="M0 0 C0.33 0 0.66 0 1 0 C0.125 7.75 0.125 7.75 -1 10 C-1.66 9.67 -2.32 9.34 -3 9 C-2.01 6.03 -1.02 3.06 0 0 Z " fill="#4793C7" transform="translate(506,397)"/>
<path d="M0 0 C0.598125 0.20625 1.19625 0.4125 1.8125 0.625 C-0.4975 1.945 -2.8075 3.265 -5.1875 4.625 C-5.1875 3.635 -5.1875 2.645 -5.1875 1.625 C-2.1875 -0.375 -2.1875 -0.375 0 0 Z " fill="#4793C7" transform="translate(614.1875,372.375)"/>
<path d="M0 0 C0.66 0.33 1.32 0.66 2 1 C0.02 3.31 -1.96 5.62 -4 8 C-4.33 7.34 -4.66 6.68 -5 6 C-3.35 4.02 -1.7 2.04 0 0 Z " fill="#4591C4" transform="translate(231,304)"/>
<path d="M0 0 C0.33 0 0.66 0 1 0 C1 1.98 1 3.96 1 6 C0.67 6 0.34 6 0 6 C0 4.02 0 2.04 0 0 Z " fill="#5CA3D0" transform="translate(791,328)"/>
<path d="M0 0 C1.485 0.99 1.485 0.99 3 2 C1.68 1.67 0.36 1.34 -1 1 C-0.67 0.67 -0.34 0.34 0 0 Z " fill="#5CA0CD" transform="translate(465,836)"/>
<path d="M0 0 C0.66 0.99 1.32 1.98 2 3 C1.01 2.67 0.02 2.34 -1 2 C-0.67 1.34 -0.34 0.68 0 0 Z " fill="#5EA0CB" transform="translate(145,541)"/>
<path d="M0 0 C0.33 1.32 0.66 2.64 1 4 C0.34 3.34 -0.32 2.68 -1 2 C-0.67 1.34 -0.34 0.68 0 0 Z " fill="#5EA0C8" transform="translate(130,483)"/>
<path d="M0 0 C4 1 4 1 4 1 Z " fill="#5DA1CC" transform="translate(536,862)"/>
<path d="M0 0 C0.99 0.33 1.98 0.66 3 1 C2.01 1.33 1.02 1.66 0 2 C0 1.34 0 0.68 0 0 Z " fill="#5DA0CC" transform="translate(480,845)"/>
<path d="M0 0 C4 1 4 1 4 1 Z " fill="#5FA8D4" transform="translate(545,712)"/>
<path d="M0 0 C1 4 1 4 1 4 Z " fill="#5EA0C9" transform="translate(132,500)"/>
<path d="M0 0 C1 4 1 4 1 4 Z " fill="#5EA2CD" transform="translate(624,222)"/>
<path d="M0 0 C3 1 3 1 3 1 Z " fill="#5D9EC8" transform="translate(342,843)"/>
<path d="M0 0 C3 1 3 1 3 1 Z " fill="#60A6D2" transform="translate(420,656)"/>
<path d="M0 0 C0.66 0 1.32 0 2 0 C1.67 0.66 1.34 1.32 1 2 C0.67 1.34 0.34 0.68 0 0 Z " fill="#5EA1CD" transform="translate(227,622)"/>
<path d="M0 0 C3 1 3 1 3 1 Z " fill="#5EA1CC" transform="translate(224,621)"/>
<path d="" fill="#5FA6D4" transform="translate(0,0)"/>
<path d="M0 0 C0.33 0.66 0.66 1.32 1 2 C0.34 1.67 -0.32 1.34 -1 1 C-0.67 0.67 -0.34 0.34 0 0 Z " fill="#61A7D4" transform="translate(561,434)"/>
<path d="M0 0 C3 1 3 1 3 1 Z " fill="#5DA0C9" transform="translate(177,360)"/>
<path d="" fill="#5DA4D0" transform="translate(0,0)"/>
<path d="" fill="#5DA4D2" transform="translate(0,0)"/>
<path d="M0 0 C3 1 3 1 3 1 Z " fill="#5EA6D3" transform="translate(641,293)"/>
<path d="" fill="#5EA1CD" transform="translate(0,0)"/>
<path d="M0 0 C3 1 3 1 3 1 Z " fill="#5FA2CB" transform="translate(328,192)"/>
<path d="M0 0 C2 1 2 1 2 1 Z " fill="#5FA1CC" transform="translate(585,863)"/>
<path d="M0 0 C2 1 2 1 2 1 Z " fill="#5DA0CD" transform="translate(530,861)"/>
<path d="M0 0 C2 1 2 1 2 1 Z " fill="#5EA0CC" transform="translate(508,855)"/>
<path d="M0 0 C2 1 2 1 2 1 Z " fill="#5B9FCB" transform="translate(499,852)"/>
<path d="" fill="#5C9DC8" transform="translate(0,0)"/>
<path d="" fill="#5EA4D0" transform="translate(0,0)"/>
<path d="" fill="#5999C2" transform="translate(0,0)"/>
<path d="" fill="#5B9DC5" transform="translate(0,0)"/>
<path d="" fill="#5D9EC8" transform="translate(0,0)"/>
<path d="M0 0 C2 1 2 1 2 1 Z " fill="#5D9EC8" transform="translate(814,779)"/>
<path d="M0 0 C2 1 2 1 2 1 Z " fill="#5E9FCA" transform="translate(810,779)"/>
<path d="M0 0 C2 1 2 1 2 1 Z " fill="#5EA4CF" transform="translate(694,779)"/>
<path d="" fill="#60A2CD" transform="translate(0,0)"/>
<path d="" fill="#5BA1CC" transform="translate(0,0)"/>
<path d="M0 0 C2 1 2 1 2 1 Z " fill="#61A7D4" transform="translate(538,713)"/>
<path d="M0 0 C2 1 2 1 2 1 Z " fill="#5FA7D4" transform="translate(428,657)"/>
<path d="M0 0 C2 1 2 1 2 1 Z " fill="#5FA6D3" transform="translate(389,657)"/>
<path d="M0 0 C2 1 2 1 2 1 Z " fill="#60A7D5" transform="translate(344,638)"/>
<path d="M0 0 C2 1 2 1 2 1 Z " fill="#62AAD5" transform="translate(372,631)"/>
<path d="" fill="#5C9DC9" transform="translate(0,0)"/>
<path d="" fill="#5FA0CB" transform="translate(0,0)"/>
<path d="" fill="#5C9EC7" transform="translate(0,0)"/>
<path d="" fill="#5C9FC9" transform="translate(0,0)"/>
<path d="" fill="#5EA1CB" transform="translate(0,0)"/>
<path d="" fill="#5E9FC7" transform="translate(0,0)"/>
<path d="M0 0 C2 1 2 1 2 1 Z " fill="#60A3CB" transform="translate(129,467)"/>
<path d="" fill="#5FA1CB" transform="translate(0,0)"/>
<path d="" fill="#5EA0C8" transform="translate(0,0)"/>
<path d="M0 0 C2 1 2 1 2 1 Z " fill="#62A8D3" transform="translate(617,368)"/>
<path d="" fill="#5FA6D3" transform="translate(0,0)"/>
<path d="" fill="#5FA5D3" transform="translate(0,0)"/>
<path d="" fill="#5DA3D1" transform="translate(0,0)"/>
<path d="" fill="#5EA4D0" transform="translate(0,0)"/>
<path d="" fill="#5DA3D1" transform="translate(0,0)"/>
<path d="" fill="#5FA3D0" transform="translate(0,0)"/>
<path d="" fill="#5EA3D1" transform="translate(0,0)"/>
<path d="" fill="#5A9EC8" transform="translate(0,0)"/>
<path d="" fill="#5A9CC7" transform="translate(0,0)"/>
<path d="" fill="#5A9DC6" transform="translate(0,0)"/>
<path d="M0 0 C2 1 2 1 2 1 Z " fill="#5BA0CA" transform="translate(698,197)"/>
<path d="M0 0 C2 1 2 1 2 1 Z " fill="#5FA1CD" transform="translate(344,184)"/>
<path d="M0 0 C2 1 2 1 2 1 Z " fill="#5CA0CB" transform="translate(446,176)"/>
<path d="" fill="#344247" transform="translate(0,0)"/>
<path d="" fill="#43606D" transform="translate(0,0)"/>
<path d="" fill="#5FA1CC" transform="translate(0,0)"/>
<path d="" fill="#5FA1CC" transform="translate(0,0)"/>
<path d="" fill="#5CA0CB" transform="translate(0,0)"/>
<path d="" fill="#5DA1CB" transform="translate(0,0)"/>
<path d="" fill="#5EA1CC" transform="translate(0,0)"/>
<path d="" fill="#5EA0CA" transform="translate(0,0)"/>
<path d="" fill="#5EA0C7" transform="translate(0,0)"/>
<path d="" fill="#5B9EC9" transform="translate(0,0)"/>
<path d="" fill="#5B9EC9" transform="translate(0,0)"/>
<path d="" fill="#5EA4CE" transform="translate(0,0)"/>
<path d="" fill="#5A9DC8" transform="translate(0,0)"/>
<path d="" fill="#5EA3CB" transform="translate(0,0)"/>
<path d="" fill="#5CA1CB" transform="translate(0,0)"/>
<path d="" fill="#5B9BC5" transform="translate(0,0)"/>
<path d="" fill="#5D9DC6" transform="translate(0,0)"/>
<path d="" fill="#5C9DC7" transform="translate(0,0)"/>
<path d="" fill="#5D9CC5" transform="translate(0,0)"/>
<path d="" fill="#5B9AC4" transform="translate(0,0)"/>
<path d="" fill="#5CA1CB" transform="translate(0,0)"/>
<path d="" fill="#5C9FCB" transform="translate(0,0)"/>
<path d="" fill="#599ECA" transform="translate(0,0)"/>
<path d="" fill="#5B9DC7" transform="translate(0,0)"/>
<path d="" fill="#5D9FC9" transform="translate(0,0)"/>
<path d="" fill="#5EA1CD" transform="translate(0,0)"/>
<path d="" fill="#5DA3CD" transform="translate(0,0)"/>
<path d="" fill="#5B9BC2" transform="translate(0,0)"/>
<path d="" fill="#5D9CC4" transform="translate(0,0)"/>
<path d="" fill="#5B9BC0" transform="translate(0,0)"/>
<path d="" fill="#5F9BC2" transform="translate(0,0)"/>
<path d="" fill="#5EA0CA" transform="translate(0,0)"/>
<path d="" fill="#60A5D0" transform="translate(0,0)"/>
<path d="" fill="#5CA3CF" transform="translate(0,0)"/>
<path d="" fill="#5FA3CE" transform="translate(0,0)"/>
<path d="" fill="#5EA0D0" transform="translate(0,0)"/>
<path d="" fill="#5A9AC1" transform="translate(0,0)"/>
<path d="" fill="#5DA3CF" transform="translate(0,0)"/>
<path d="" fill="#5F9FC8" transform="translate(0,0)"/>
<path d="" fill="#60A3CF" transform="translate(0,0)"/>
<path d="" fill="#5AA2CC" transform="translate(0,0)"/>
<path d="" fill="#5EA5D4" transform="translate(0,0)"/>
<path d="" fill="#5999C2" transform="translate(0,0)"/>
<path d="" fill="#5FA3D0" transform="translate(0,0)"/>
<path d="" fill="#60A5D1" transform="translate(0,0)"/>
<path d="" fill="#61A6D2" transform="translate(0,0)"/>
<path d="" fill="#5A9BC4" transform="translate(0,0)"/>
<path d="" fill="#5FA8D4" transform="translate(0,0)"/>
<path d="" fill="#5DA2CD" transform="translate(0,0)"/>
<path d="" fill="#5BA1CD" transform="translate(0,0)"/>
<path d="" fill="#5DA3CE" transform="translate(0,0)"/>
<path d="" fill="#5EA2CF" transform="translate(0,0)"/>
<path d="" fill="#5DA2D0" transform="translate(0,0)"/>
<path d="" fill="#5EA6D0" transform="translate(0,0)"/>
<path d="" fill="#60A6D1" transform="translate(0,0)"/>
<path d="" fill="#5FA6D3" transform="translate(0,0)"/>
<path d="" fill="#5DA5D2" transform="translate(0,0)"/>
<path d="" fill="#5B9CC5" transform="translate(0,0)"/>
<path d="" fill="#60A6D3" transform="translate(0,0)"/>
<path d="" fill="#5AA0C9" transform="translate(0,0)"/>
<path d="" fill="#5EA5D3" transform="translate(0,0)"/>
<path d="" fill="#5DA0C8" transform="translate(0,0)"/>
<path d="" fill="#63A8D3" transform="translate(0,0)"/>
<path d="" fill="#5DA1CA" transform="translate(0,0)"/>
<path d="" fill="#5D9DC6" transform="translate(0,0)"/>
<path d="" fill="#5FA5D5" transform="translate(0,0)"/>
<path d="" fill="#599AC1" transform="translate(0,0)"/>
<path d="" fill="#5DA3CD" transform="translate(0,0)"/>
<path d="" fill="#599DC5" transform="translate(0,0)"/>
<path d="" fill="#5FA6D5" transform="translate(0,0)"/>
<path d="" fill="#5FA5D2" transform="translate(0,0)"/>
<path d="" fill="#599DC8" transform="translate(0,0)"/>
<path d="" fill="#5EA6D2" transform="translate(0,0)"/>
<path d="" fill="#5FA7D3" transform="translate(0,0)"/>
<path d="" fill="#5FA6D3" transform="translate(0,0)"/>
<path d="" fill="#5FA7D2" transform="translate(0,0)"/>
<path d="" fill="#60A7D4" transform="translate(0,0)"/>
<path d="" fill="#60A7D5" transform="translate(0,0)"/>
<path d="" fill="#5EA6D2" transform="translate(0,0)"/>
<path d="" fill="#5B9ECA" transform="translate(0,0)"/>
<path d="" fill="#5EA3CF" transform="translate(0,0)"/>
<path d="" fill="#61A8D6" transform="translate(0,0)"/>
<path d="" fill="#62A9D5" transform="translate(0,0)"/>
<path d="" fill="#5FAAD5" transform="translate(0,0)"/>
<path d="" fill="#5B9EC9" transform="translate(0,0)"/>
<path d="" fill="#5AA0CB" transform="translate(0,0)"/>
<path d="" fill="#60A8D3" transform="translate(0,0)"/>
<path d="" fill="#62A8D5" transform="translate(0,0)"/>
<path d="" fill="#5FA6D3" transform="translate(0,0)"/>
<path d="" fill="#62A8D2" transform="translate(0,0)"/>
<path d="" fill="#5FA2D1" transform="translate(0,0)"/>
<path d="" fill="#5FA2D0" transform="translate(0,0)"/>
<path d="" fill="#5DA4CF" transform="translate(0,0)"/>
<path d="" fill="#61A6D3" transform="translate(0,0)"/>
<path d="" fill="#5EA5CE" transform="translate(0,0)"/>
<path d="" fill="#5FA3D0" transform="translate(0,0)"/>
<path d="" fill="#62AAD5" transform="translate(0,0)"/>
<path d="" fill="#61A4D3" transform="translate(0,0)"/>
<path d="" fill="#5FA6D2" transform="translate(0,0)"/>
<path d="" fill="#60A5D4" transform="translate(0,0)"/>
<path d="" fill="#60A6D2" transform="translate(0,0)"/>
<path d="" fill="#60A8D5" transform="translate(0,0)"/>
<path d="" fill="#5EA7D2" transform="translate(0,0)"/>
<path d="" fill="#62A8D2" transform="translate(0,0)"/>
<path d="" fill="#61A7D3" transform="translate(0,0)"/>
<path d="" fill="#5FA5D3" transform="translate(0,0)"/>
<path d="" fill="#60A8D2" transform="translate(0,0)"/>
<path d="" fill="#61A8D3" transform="translate(0,0)"/>
<path d="" fill="#61A8D5" transform="translate(0,0)"/>
<path d="" fill="#5DA5D2" transform="translate(0,0)"/>
<path d="" fill="#62AAD4" transform="translate(0,0)"/>
<path d="" fill="#64A8D2" transform="translate(0,0)"/>
<path d="" fill="#62A7D5" transform="translate(0,0)"/>
<path d="" fill="#61A7D4" transform="translate(0,0)"/>
<path d="" fill="#61A7D4" transform="translate(0,0)"/>
<path d="" fill="#60A7D6" transform="translate(0,0)"/>
<path d="" fill="#5BA3D2" transform="translate(0,0)"/>
<path d="" fill="#5FA4D1" transform="translate(0,0)"/>
<path d="" fill="#61A7D5" transform="translate(0,0)"/>
<path d="" fill="#5FA4D1" transform="translate(0,0)"/>
<path d="" fill="#5BA0CD" transform="translate(0,0)"/>
<path d="" fill="#5BA3CE" transform="translate(0,0)"/>
<path d="" fill="#5FA6D4" transform="translate(0,0)"/>
<path d="" fill="#5FA5D4" transform="translate(0,0)"/>
<path d="" fill="#5EA4D3" transform="translate(0,0)"/>
<path d="" fill="#60A6D3" transform="translate(0,0)"/>
<path d="" fill="#5FA1CC" transform="translate(0,0)"/>
<path d="" fill="#61A7D6" transform="translate(0,0)"/>
<path d="" fill="#60A5D5" transform="translate(0,0)"/>
<path d="" fill="#61A6D5" transform="translate(0,0)"/>
<path d="" fill="#5EA3CE" transform="translate(0,0)"/>
<path d="" fill="#5DA1CE" transform="translate(0,0)"/>
<path d="" fill="#60A5D2" transform="translate(0,0)"/>
<path d="" fill="#61A2CF" transform="translate(0,0)"/>
<path d="" fill="#5B9ECA" transform="translate(0,0)"/>
<path d="" fill="#5EA1CC" transform="translate(0,0)"/>
<path d="" fill="#5BA0CA" transform="translate(0,0)"/>
<path d="" fill="#5C9FCA" transform="translate(0,0)"/>
<path d="" fill="#5A9EC8" transform="translate(0,0)"/>
<path d="" fill="#5D9ECA" transform="translate(0,0)"/>
<path d="" fill="#5DA0C9" transform="translate(0,0)"/>
<path d="" fill="#5D9DC9" transform="translate(0,0)"/>
<path d="" fill="#5E9ECA" transform="translate(0,0)"/>
<path d="" fill="#5D9FC9" transform="translate(0,0)"/>
<path d="" fill="#5B9EC9" transform="translate(0,0)"/>
<path d="" fill="#5FA6D4" transform="translate(0,0)"/>
<path d="" fill="#5B9FCA" transform="translate(0,0)"/>
<path d="" fill="#5A9CC8" transform="translate(0,0)"/>
<path d="" fill="#5C9FCA" transform="translate(0,0)"/>
<path d="" fill="#5C9FCA" transform="translate(0,0)"/>
<path d="" fill="#5FA7D3" transform="translate(0,0)"/>
<path d="" fill="#5C9EC7" transform="translate(0,0)"/>
<path d="" fill="#5D9EC8" transform="translate(0,0)"/>
<path d="" fill="#5CA3CD" transform="translate(0,0)"/>
<path d="" fill="#5FA2CC" transform="translate(0,0)"/>
<path d="" fill="#5C9EC9" transform="translate(0,0)"/>
<path d="" fill="#5C9DC6" transform="translate(0,0)"/>
<path d="" fill="#5B9EC8" transform="translate(0,0)"/>
<path d="" fill="#5B9BC4" transform="translate(0,0)"/>
<path d="" fill="#5B9FC9" transform="translate(0,0)"/>
<path d="" fill="#5CA0C9" transform="translate(0,0)"/>
<path d="" fill="#5A9EC8" transform="translate(0,0)"/>
<path d="" fill="#5D9EC9" transform="translate(0,0)"/>
<path d="" fill="#5D9FCA" transform="translate(0,0)"/>
<path d="" fill="#5EA6D4" transform="translate(0,0)"/>
<path d="" fill="#5FA6D4" transform="translate(0,0)"/>
<path d="" fill="#5DA0C8" transform="translate(0,0)"/>
<path d="" fill="#5D9FC8" transform="translate(0,0)"/>
<path d="" fill="#5C9FC7" transform="translate(0,0)"/>
<path d="" fill="#5FA3CA" transform="translate(0,0)"/>
<path d="" fill="#61A8D5" transform="translate(0,0)"/>
<path d="" fill="#5FA1C9" transform="translate(0,0)"/>
<path d="" fill="#5DA6D5" transform="translate(0,0)"/>
<path d="" fill="#5FA1CA" transform="translate(0,0)"/>
<path d="" fill="#5FA2CA" transform="translate(0,0)"/>
<path d="" fill="#60A7D5" transform="translate(0,0)"/>
<path d="" fill="#5F9EC9" transform="translate(0,0)"/>
<path d="" fill="#5DA1CC" transform="translate(0,0)"/>
<path d="" fill="#5FA5D3" transform="translate(0,0)"/>
<path d="" fill="#61AAD5" transform="translate(0,0)"/>
<path d="" fill="#5DA3CC" transform="translate(0,0)"/>
<path d="" fill="#60A8D5" transform="translate(0,0)"/>
<path d="" fill="#5FA5D5" transform="translate(0,0)"/>
<path d="" fill="#5D9FC7" transform="translate(0,0)"/>
<path d="" fill="#5CA2CC" transform="translate(0,0)"/>
<path d="" fill="#5FA7D4" transform="translate(0,0)"/>
<path d="" fill="#5BA1CD" transform="translate(0,0)"/>
<path d="" fill="#5C9FCB" transform="translate(0,0)"/>
<path d="" fill="#5FA6D3" transform="translate(0,0)"/>
<path d="" fill="#5B9DC6" transform="translate(0,0)"/>
<path d="" fill="#5C9DC7" transform="translate(0,0)"/>
<path d="" fill="#5EA3D3" transform="translate(0,0)"/>
<path d="" fill="#61A5D1" transform="translate(0,0)"/>
<path d="" fill="#5CA0C8" transform="translate(0,0)"/>
<path d="" fill="#60A7D4" transform="translate(0,0)"/>
<path d="" fill="#5C9FCB" transform="translate(0,0)"/>
<path d="" fill="#5FA1CD" transform="translate(0,0)"/>
<path d="" fill="#67AAD4" transform="translate(0,0)"/>
<path d="" fill="#5EA4D0" transform="translate(0,0)"/>
<path d="" fill="#5E9EC7" transform="translate(0,0)"/>
<path d="" fill="#61A6D1" transform="translate(0,0)"/>
<path d="" fill="#5EA2CD" transform="translate(0,0)"/>
<path d="" fill="#5EA1CA" transform="translate(0,0)"/>
<path d="" fill="#5FA1CD" transform="translate(0,0)"/>
<path d="" fill="#62A6CE" transform="translate(0,0)"/>
<path d="" fill="#61A7D5" transform="translate(0,0)"/>
<path d="" fill="#5EA1CD" transform="translate(0,0)"/>
<path d="" fill="#5FA4CF" transform="translate(0,0)"/>
<path d="" fill="#5EA5D2" transform="translate(0,0)"/>
<path d="" fill="#60A4CC" transform="translate(0,0)"/>
<path d="" fill="#5EA5D1" transform="translate(0,0)"/>
<path d="" fill="#5FA6D5" transform="translate(0,0)"/>
<path d="" fill="#60A6D0" transform="translate(0,0)"/>
<path d="" fill="#5FA7D4" transform="translate(0,0)"/>
<path d="" fill="#5FA2CC" transform="translate(0,0)"/>
<path d="" fill="#5EA0C9" transform="translate(0,0)"/>
<path d="" fill="#5EA0CC" transform="translate(0,0)"/>
<path d="" fill="#5B9DCA" transform="translate(0,0)"/>
<path d="" fill="#5DA0CB" transform="translate(0,0)"/>
<path d="" fill="#5DA0CA" transform="translate(0,0)"/>
<path d="" fill="#5CA3CE" transform="translate(0,0)"/>
<path d="" fill="#5FA0CE" transform="translate(0,0)"/>
<path d="" fill="#5DA0CB" transform="translate(0,0)"/>
<path d="" fill="#5FA4D0" transform="translate(0,0)"/>
<path d="" fill="#5EA4D2" transform="translate(0,0)"/>
<path d="" fill="#5FA0CB" transform="translate(0,0)"/>
<path d="" fill="#5EA5D1" transform="translate(0,0)"/>
<path d="" fill="#5CA1CA" transform="translate(0,0)"/>
<path d="" fill="#5C9EC7" transform="translate(0,0)"/>
<path d="" fill="#5E9FCA" transform="translate(0,0)"/>
<path d="" fill="#5FA6D2" transform="translate(0,0)"/>
<path d="" fill="#5EA7D2" transform="translate(0,0)"/>
<path d="" fill="#5EA1CA" transform="translate(0,0)"/>
<path d="" fill="#5B9FCA" transform="translate(0,0)"/>
<path d="" fill="#5EA6D1" transform="translate(0,0)"/>
<path d="" fill="#599DC9" transform="translate(0,0)"/>
<path d="" fill="#5FA5D2" transform="translate(0,0)"/>
<path d="" fill="#599CC8" transform="translate(0,0)"/>
<path d="" fill="#60A5CF" transform="translate(0,0)"/>
<path d="" fill="#5EA6D0" transform="translate(0,0)"/>
<path d="" fill="#5B9CC7" transform="translate(0,0)"/>
<path d="" fill="#5CA0C9" transform="translate(0,0)"/>
<path d="" fill="#5A9DC8" transform="translate(0,0)"/>
<path d="" fill="#5A9DC6" transform="translate(0,0)"/>
<path d="" fill="#5DA0C9" transform="translate(0,0)"/>
<path d="" fill="#5B9DC7" transform="translate(0,0)"/>
<path d="" fill="#5EA4CF" transform="translate(0,0)"/>
<path d="" fill="#5EA3CF" transform="translate(0,0)"/>
<path d="" fill="#5B9CC5" transform="translate(0,0)"/>
<path d="" fill="#5EA2CC" transform="translate(0,0)"/>
<path d="" fill="#5DA1CD" transform="translate(0,0)"/>
<path d="" fill="#5C9EC8" transform="translate(0,0)"/>
<path d="" fill="#5B9DC8" transform="translate(0,0)"/>
<path d="" fill="#5998BD" transform="translate(0,0)"/>
<path d="" fill="#5B9EC7" transform="translate(0,0)"/>
<path d="" fill="#5997BF" transform="translate(0,0)"/>
<path d="" fill="#5D9DC9" transform="translate(0,0)"/>
<path d="" fill="#5DA1C9" transform="translate(0,0)"/>
<path d="" fill="#5CA1CB" transform="translate(0,0)"/>
<path d="" fill="#5A9EC8" transform="translate(0,0)"/>
<path d="" fill="#5B9FC9" transform="translate(0,0)"/>
<path d="" fill="#5B9DC9" transform="translate(0,0)"/>
<path d="" fill="#5B9FC8" transform="translate(0,0)"/>
<path d="" fill="#5B9EC9" transform="translate(0,0)"/>
<path d="" fill="#5C9EC6" transform="translate(0,0)"/>
<path d="" fill="#5C9EC9" transform="translate(0,0)"/>
<path d="" fill="#5D9FC8" transform="translate(0,0)"/>
<path d="" fill="#5DA0CD" transform="translate(0,0)"/>
<path d="" fill="#5B9FCC" transform="translate(0,0)"/>
<path d="" fill="#5CA0CA" transform="translate(0,0)"/>
<path d="" fill="#5CA0CB" transform="translate(0,0)"/>
<path d="" fill="#5CA0CA" transform="translate(0,0)"/>
<path d="" fill="#5BA0CC" transform="translate(0,0)"/>
<path d="" fill="#5CA0CD" transform="translate(0,0)"/>
<path d="" fill="#5CA0CB" transform="translate(0,0)"/>
<path d="" fill="#5A9CC7" transform="translate(0,0)"/>
<path d="" fill="#5DA0CA" transform="translate(0,0)"/>
</svg>
