<?xml version="1.0" encoding="UTF-8"?>
<svg version="1.1" xmlns="http://www.w3.org/2000/svg" width="1024" height="1024">
<path d="M0 0 C5.42887027 2.99485199 10.6457939 6.34506587 15.76171875 9.84375 C16.42300781 10.29105469 17.08429688 10.73835938 17.765625 11.19921875 C18.2915625 11.58207031 18.8175 11.96492188 19.359375 12.359375 C22.56033545 13.66468469 24.82587504 13.53954079 28.265625 13.13671875 C31.41980496 11.67770945 34.25375126 9.81293501 37.140625 7.88671875 C53.80433613 -3.00328801 53.80433613 -3.00328801 61.88671875 -1.59765625 C69.79449853 0.84349744 76.63757249 5.91190629 83.26953125 10.71875 C86.25177746 12.83725367 88.43771033 13.56592574 92.14355469 13.51123047 C96.66129138 12.71392167 100.49944547 10.01840773 104.390625 7.69921875 C106.13967604 6.6736039 107.8921802 5.65385036 109.6484375 4.640625 C110.79916748 3.95722046 110.79916748 3.95722046 111.97314453 3.26000977 C115.8373297 1.36660019 118.52689778 1.00480318 122.765625 1.76171875 C127.16887857 3.49156837 130.12640515 5.85827906 132.265625 10.13671875 C132.37242246 12.40577454 132.41235675 14.67804629 132.42384338 16.94958496 C132.42878207 17.66073534 132.43372075 18.37188573 132.4388091 19.10458612 C132.45425769 21.50787273 132.46257341 23.91113218 132.47094727 26.31445312 C132.48052326 28.04122141 132.49052233 29.76798739 132.50091171 31.49475098 C132.52814119 36.23905872 132.54907407 40.98337655 132.56889749 45.72772026 C132.59105252 50.79298502 132.61871938 55.85822019 132.64555359 60.92346191 C132.70834012 73.02462956 132.76132557 85.12583275 132.81331825 97.22705078 C132.83787744 102.88249042 132.86365045 108.53792451 132.88928223 114.19335938 C133.0174208 142.62375898 133.12888203 171.05420322 133.23060477 199.48470879 C133.25664539 206.73557915 133.28410645 213.98644294 133.31243896 221.23730469 C133.38841405 240.78458004 133.45561437 260.33180257 133.48862934 279.8792038 C133.4913445 281.48091127 133.49406656 283.08261873 133.49679565 284.68432617 C133.4987887 285.86101356 133.4987887 285.86101356 133.50082201 287.06147242 C133.51085809 292.56094878 133.52849148 298.06036942 133.54934692 303.55981445 C133.57434832 310.18586743 133.5889749 316.81183801 133.58946365 323.43794012 C133.58994587 326.76395806 133.59663312 330.08963541 133.61322594 333.41563416 C133.63012805 336.97646134 133.62854979 340.53680616 133.62207031 344.09765625 C133.63128793 345.12551491 133.64050554 346.15337357 133.65000248 347.21237946 C133.60994431 354.04246401 132.8116878 358.99657463 128.390625 364.44921875 C123.66088604 368.20518792 119.03977353 368.42258345 113.18547058 368.37722778 C111.97237267 368.37979106 111.97237267 368.37979106 110.73476774 368.38240612 C108.02775927 368.38569756 105.32099926 368.37470301 102.61401367 368.36376953 C100.6724142 368.36320534 98.73081431 368.36352213 96.78921509 368.36465454 C91.51898075 368.36522876 86.24883731 368.35346326 80.97862411 368.33950663 C75.47064279 368.32701077 69.96265944 368.32582967 64.45466614 368.32345581 C54.02481017 368.31723768 43.59499609 368.30082234 33.16515857 368.28075683 C21.29103014 368.25840821 9.41689971 368.24740701 -2.45724452 368.23736596 C-26.88297791 368.21645642 -51.30867411 368.18127394 -75.734375 368.13671875 C-75.72105133 368.73060898 -75.70772766 369.32449921 -75.69400024 369.93638611 C-75.56066494 376.14983332 -75.47051947 382.36287048 -75.40478516 388.57739258 C-75.37471878 390.89266483 -75.33385383 393.20782418 -75.28173828 395.52270508 C-75.20847841 398.86177504 -75.17481577 402.19933202 -75.1484375 405.5390625 C-75.10198593 407.07710793 -75.10198593 407.07710793 -75.05459595 408.64622498 C-75.05120626 415.97882816 -76.86629178 420.61431303 -81.734375 426.13671875 C-84.40893555 428.19311523 -84.40893555 428.19311523 -87.12109375 429.5078125 C-88.13155762 430.01368896 -89.14202148 430.51956543 -90.18310547 431.04077148 C-91.78629639 431.79982788 -91.78629639 431.79982788 -93.421875 432.57421875 C-95.68907542 433.6986678 -97.95600046 434.82367225 -100.22265625 435.94921875 C-101.33592285 436.49191406 -102.44918945 437.03460937 -103.59619141 437.59375 C-107.81449826 439.66778916 -111.96301529 441.86090028 -116.109375 444.07421875 C-124.86510713 448.70076777 -133.65773732 453.2557986 -142.453125 457.80639648 C-149.03401349 461.21243337 -155.60294191 464.63983542 -162.16113281 468.08935547 C-176.20292531 475.45908724 -176.20292531 475.45908724 -183.234375 478.88671875 C-184.61109375 479.55960938 -184.61109375 479.55960938 -186.015625 480.24609375 C-194.56009311 483.04514365 -201.36113389 479.28243371 -208.94482422 475.56152344 C-212.53634111 473.74054438 -216.10644612 471.88302103 -219.671875 470.01171875 C-220.96936494 469.33514909 -222.26705606 468.65896512 -223.56494141 467.9831543 C-227.29149175 466.0408009 -231.01341742 464.08976516 -234.734375 462.13671875 C-236.13212158 461.40364502 -236.13212158 461.40364502 -237.55810547 460.65576172 C-241.40339107 458.63753459 -245.24566642 456.61368756 -249.0859375 454.5859375 C-253.40739522 452.30584166 -257.7371208 450.0418087 -262.06933594 447.78222656 C-264.00290523 446.77366128 -265.93585507 445.76390747 -267.86816406 444.75292969 C-272.94218003 442.10079697 -278.02749296 439.47423115 -283.1328125 436.8828125 C-284.1753418 436.34962402 -285.21787109 435.81643555 -286.29199219 435.26708984 C-288.2860447 434.24784396 -290.28391591 433.23602283 -292.28613281 432.23291016 C-299.6677767 428.44464946 -305.68754505 424.26585736 -308.734375 416.13671875 C-309.87423823 408.99250616 -309.88319916 401.7024171 -309.87963867 394.48388672 C-309.88299728 393.48236572 -309.8863559 392.48084473 -309.88981628 391.44897461 C-309.8992282 388.1756055 -309.90126399 384.902288 -309.90234375 381.62890625 C-309.90556152 379.33448262 -309.90892597 377.0400592 -309.91242981 374.74563599 C-309.91839548 369.95297774 -309.92027219 365.16033747 -309.91967773 360.36767578 C-309.91957589 354.24030826 -309.93326267 348.11305603 -309.95044994 341.98571587 C-309.9615869 337.25354486 -309.96359647 332.52140167 -309.96306801 327.7892189 C-309.96424423 325.53029099 -309.96864581 323.27136227 -309.97640038 321.01244736 C-309.98624093 317.85180367 -309.98330685 314.69140976 -309.97729492 311.53076172 C-309.98572418 310.14650497 -309.98572418 310.14650497 -309.99432373 308.73428345 C-309.95503009 300.56969794 -309.35398571 292.4587808 -303.734375 286.13671875 C-295.80733688 280.49545085 -286.65156137 276.56435429 -277.91259766 272.36401367 C-273.54909342 270.2665442 -269.19284637 268.1540951 -264.8359375 266.04296875 C-263.96833801 265.62301636 -263.10073853 265.20306396 -262.20684814 264.77038574 C-254.68302462 261.1238624 -247.20214311 257.39640142 -239.734375 253.63671875 C-231.12489062 249.30911065 -222.48839982 245.04737876 -213.796875 240.88671875 C-212.84876953 240.43232422 -211.90066406 239.97792969 -210.92382812 239.50976562 C-195.03732489 231.94643406 -195.03732489 231.94643406 -185.52929688 235.25048828 C-181.96366998 236.80469656 -178.46840343 238.47278353 -174.984375 240.19921875 C-173.81132812 240.76060547 -172.63828125 241.32199219 -171.4296875 241.90039062 C-165.41646973 244.79136071 -159.45145837 247.77641728 -153.48431396 250.76097107 C-152.83463087 251.08586879 -152.18494778 251.41076652 -151.51557732 251.74550962 C-149.92182051 252.54253394 -148.32809466 253.33962016 -146.734375 254.13671875 C-146.73290844 252.88989256 -146.73144188 251.64306637 -146.72993088 250.35845757 C-146.69423104 220.76317559 -146.63799305 191.16800656 -146.55645405 161.57281905 C-146.54643656 157.93038237 -146.53659243 154.28794525 -146.52685547 150.64550781 C-146.52394341 149.55778952 -146.52394341 149.55778952 -146.52097252 148.44809712 C-146.48994905 136.70570978 -146.47297091 124.96334199 -146.46118078 113.22092138 C-146.448771 101.1726444 -146.42127358 89.12447003 -146.37976193 77.07625782 C-146.3568777 70.30871128 -146.34097443 63.54129732 -146.34249115 56.77370834 C-146.34323496 50.40597463 -146.3253962 44.0385654 -146.29320717 37.6709156 C-146.28467721 35.33201768 -146.28297911 32.9930835 -146.28857231 30.65417671 C-146.29518688 27.46355806 -146.27735145 24.27397948 -146.25335693 21.08346558 C-146.26111735 20.15544219 -146.26887777 19.2274188 -146.27687335 18.27127349 C-146.20315777 12.74362095 -145.47448922 9.49136756 -141.734375 5.13671875 C-137.56335222 2.35603689 -133.68108461 1.15135465 -128.734375 2.13671875 C-123.94077679 4.37960795 -119.48641606 7.24453987 -115.00390625 10.046875 C-108.87667998 13.71678732 -108.87667998 13.71678732 -101.95703125 13.75 C-97.97623206 12.44909683 -94.54152341 10.50749206 -91.046875 8.19921875 C-78.98511129 0.32004465 -78.98511129 0.32004465 -71.6484375 0.51953125 C-64.58509424 2.01552084 -58.20654638 6.78279903 -52.30859375 10.78125 C-51.64472656 11.22855469 -50.98085938 11.67585938 -50.296875 12.13671875 C-49.76191406 12.52859375 -49.22695313 12.92046875 -48.67578125 13.32421875 C-45.38362948 14.7020207 -43.30546621 14.60884115 -39.734375 14.13671875 C-36.05525439 12.33322093 -32.69910198 10.09962428 -29.296875 7.82421875 C-9.92337384 -4.93933698 -9.92337384 -4.93933698 0 0 Z M-16.234375 23.69921875 C-16.85296387 24.05765869 -17.47155273 24.41609863 -18.10888672 24.78540039 C-22.98376609 27.63273608 -27.73319073 30.65568548 -32.4296875 33.7890625 C-37.22318707 36.59204106 -42.30103673 36.73650284 -47.734375 36.13671875 C-52.33766542 34.86566095 -56.25107168 32.48798909 -60.203125 29.8671875 C-60.81647705 29.46105225 -61.4298291 29.05491699 -62.06176758 28.63647461 C-63.28025628 27.81780501 -64.48899588 26.98439015 -65.6862793 26.13500977 C-69.54737785 23.50216792 -72.08343993 22.36761881 -76.734375 23.13671875 C-79.15628295 24.28094959 -81.29015686 25.42298037 -83.546875 26.82421875 C-84.16143555 27.18708984 -84.77599609 27.54996094 -85.40917969 27.92382812 C-88.06959956 29.49633877 -90.69310358 31.11019162 -93.29296875 32.78125 C-98.75790905 36.16152502 -103.32956423 37.37856756 -109.734375 36.13671875 C-114.1620421 34.46121307 -118.14681454 32.36034387 -121.8984375 29.46875 C-123.62613469 27.94096884 -123.62613469 27.94096884 -125.734375 28.13671875 C-125.76341392 32.22003714 -125.78118689 36.30332895 -125.796875 40.38671875 C-125.80525391 41.54558594 -125.81363281 42.70445312 -125.82226562 43.8984375 C-125.82548828 45.01347656 -125.82871094 46.12851562 -125.83203125 47.27734375 C-125.83726807 48.30375977 -125.84250488 49.33017578 -125.84790039 50.38769531 C-125.81723818 53.3784482 -125.81723818 53.3784482 -124.734375 57.13671875 C-46.524375 57.13671875 31.685625 57.13671875 112.265625 57.13671875 C112.265625 46.57671875 112.265625 36.01671875 112.265625 25.13671875 C107.9683346 27.67073798 107.9683346 27.67073798 103.68139648 30.22216797 C97.95273546 33.54762261 92.2453406 35.92803655 85.484375 34.796875 C77.19913173 32.33172339 69.98416949 26.6983869 63.08984375 21.67578125 C59.63444078 19.7927539 58.15248624 19.4628063 54.265625 20.13671875 C51.14480512 21.64368357 48.28534717 23.48751038 45.390625 25.38671875 C28.655796 36.13877583 28.655796 36.13877583 21.265625 35.13671875 C14.10532763 33.26929552 8.48103666 30.19858905 2.55859375 25.8203125 C-4.61473897 20.553351 -8.3207942 19.02533324 -16.234375 23.69921875 Z M-124.734375 78.13671875 C-124.734375 139.84671875 -124.734375 201.55671875 -124.734375 265.13671875 C-117.804375 268.43671875 -110.874375 271.73671875 -103.734375 275.13671875 C-80.64255391 286.43697163 -80.64255391 286.43697163 -78.10908794 291.17860508 C-75.98810667 294.45596555 -75.98810667 294.45596555 -72.32452869 294.87779903 C-70.93687917 294.90426313 -69.54836231 294.89755451 -68.1608429 294.86497498 C-67.01133826 294.87372315 -67.01133826 294.87372315 -65.8386113 294.88264805 C-63.2682879 294.89488244 -60.70027271 294.86420626 -58.13012695 294.83374023 C-56.28881665 294.83368486 -54.44750467 294.83625655 -52.60620117 294.84126282 C-47.60412839 294.84726305 -42.60289672 294.81605904 -37.60099053 294.77801394 C-32.37377065 294.74425879 -27.14654726 294.74363753 -21.91923523 294.73927307 C-13.14351768 294.72730968 -4.36811396 294.69347796 4.4074707 294.64428711 C16.80009602 294.57486878 29.19258087 294.54554316 41.58536851 294.52388656 C51.19104779 294.5056071 60.79669783 294.4761438 70.40234375 294.4453125 C71.43619194 294.44214106 72.47004013 294.43896963 73.53521705 294.43570209 C79.46639631 294.41692652 85.39750325 294.39261494 91.32862091 294.35958672 C93.12942269 294.35023655 94.9302341 294.34257367 96.73105049 294.33667374 C99.17843467 294.32826984 101.62570172 294.31369612 104.07304382 294.29734802 C104.79500983 294.29616815 105.51697585 294.29498827 106.26081961 294.29377264 C109.54557326 294.54624603 109.54557326 294.54624603 112.265625 293.13671875 C112.36351074 290.36772248 112.39555838 287.62365696 112.38587952 284.85423279 C112.38673553 283.9775444 112.38759155 283.10085602 112.38847351 282.19760132 C112.39013913 279.22733579 112.38458825 276.25712567 112.37915039 273.28686523 C112.37884431 271.13409712 112.37897711 268.9813289 112.37951565 266.82856083 C112.37974224 261.0418801 112.37392901 255.25521988 112.36690521 249.46854401 C112.36122772 244.04677767 112.36094305 238.62501643 112.36022949 233.20324707 C112.35497351 217.32690156 112.34101247 201.4505599 112.328125 185.57421875 C112.2971875 132.39265625 112.2971875 132.39265625 112.265625 78.13671875 C34.055625 78.13671875 -44.154375 78.13671875 -124.734375 78.13671875 Z M-201.921875 258.63671875 C-203.38016843 259.37898466 -204.83850284 260.12117004 -206.296875 260.86328125 C-207.039375 261.24387695 -207.781875 261.62447266 -208.546875 262.01660156 C-211.83039386 263.69793912 -215.12415413 265.35843891 -218.421875 267.01171875 C-219.06793701 267.33591797 -219.71399902 267.66011719 -220.37963867 267.99414062 C-226.85487832 271.2266803 -233.39574185 274.31834581 -239.93603516 277.41650391 C-247.31985905 280.92135538 -254.63913284 284.54289367 -261.93408203 288.22851562 C-264.86335274 289.70626 -267.79915805 291.17082277 -270.734375 292.63671875 C-271.70375 293.12140625 -272.673125 293.60609375 -273.671875 294.10546875 C-274.3525 294.44578125 -275.033125 294.78609375 -275.734375 295.13671875 C-275.734375 295.79671875 -275.734375 296.45671875 -275.734375 297.13671875 C-275.21707825 297.39536713 -274.69978149 297.6540155 -274.16680908 297.92050171 C-233.734375 318.13671875 -233.734375 318.13671875 -231.58555603 319.2144928 C-229.66613048 320.17071697 -227.73049218 321.08209825 -225.78515625 321.984375 C-224.20561519 322.72241237 -222.62619492 323.46070829 -221.046875 324.19921875 C-220.21124023 324.58899902 -219.37560547 324.9787793 -218.51464844 325.38037109 C-214.25269305 327.39077291 -210.06325834 329.46597358 -205.94921875 331.765625 C-205.19664795 332.18384521 -204.44407715 332.60206543 -203.66870117 333.03295898 C-202.24691732 333.83276206 -200.83366858 334.6479959 -199.4309082 335.48071289 C-198.783396 335.84414795 -198.13588379 336.20758301 -197.46875 336.58203125 C-196.91413086 336.90703613 -196.35951172 337.23204102 -195.78808594 337.56689453 C-188.10317373 339.69915619 -180.60205747 334.39577529 -174.03125 331.046875 C-172.78681089 330.42125001 -171.54194936 329.79646463 -170.29669189 329.17247009 C-167.01809033 327.52647902 -163.74581839 325.86826453 -160.47460938 324.2076416 C-157.85839315 322.88204284 -155.23787821 321.56508743 -152.61707306 320.24859047 C-140.87249484 314.34897919 -129.15046768 308.40405005 -117.5 302.3203125 C-116.72485046 301.91804947 -115.94970093 301.51578644 -115.15106201 301.10133362 C-111.16994954 299.00553786 -111.16994954 299.00553786 -107.734375 296.13671875 C-122.54799581 288.68070623 -137.3653682 281.24935541 -152.35375977 274.14916992 C-160.54927197 270.25566448 -168.6619991 266.20404065 -176.75732422 262.10668945 C-189.05451266 255.31963484 -189.05451266 255.31963484 -201.921875 258.63671875 Z M-288.734375 314.13671875 C-288.78073432 325.89800406 -288.81626255 337.65926759 -288.83799934 349.42062569 C-288.84843239 354.88201248 -288.86258295 360.34333671 -288.88525391 365.8046875 C-288.9069992 371.07609547 -288.91894724 376.3474433 -288.92412949 381.61889267 C-288.9278222 383.62910789 -288.93503312 385.63931985 -288.94583511 387.64950943 C-288.96037233 390.46709534 -288.96235199 393.28443335 -288.96142578 396.10205078 C-288.96861633 396.93139633 -288.97580688 397.76074188 -288.98321533 398.61521912 C-288.96703582 403.1697518 -288.56106207 406.87829703 -286.734375 411.13671875 C-285.25844118 412.5912762 -285.25844118 412.5912762 -283.3828125 413.41015625 C-282.69445312 413.76078125 -282.00609375 414.11140625 -281.296875 414.47265625 C-280.575 414.81554687 -279.853125 415.1584375 -279.109375 415.51171875 C-278.44164062 415.846875 -277.77390625 416.18203125 -277.0859375 416.52734375 C-275.57299047 417.28381727 -274.05532501 418.03088864 -272.53442383 418.77124023 C-260.11008089 424.83012506 -247.8070757 431.13627794 -235.50463867 437.43774414 C-232.77673731 438.83452999 -230.04756998 440.22882129 -227.31835938 441.62304688 C-225.55200598 442.52719265 -223.78572724 443.43148429 -222.01953125 444.3359375 C-221.21935074 444.744384 -220.41917023 445.15283051 -219.59474182 445.57365417 C-214.85095568 448.0071038 -210.18896547 450.54459608 -205.57200623 453.21174622 C-203.7795152 454.28658747 -203.7795152 454.28658747 -201.734375 454.13671875 C-201.734375 422.12671875 -201.734375 390.11671875 -201.734375 357.13671875 C-214.274375 350.86671875 -226.814375 344.59671875 -239.734375 338.13671875 C-249.859375 332.82421875 -249.859375 332.82421875 -253.98828125 330.625 C-259.90397499 327.49925202 -265.87915934 324.48989746 -271.85760498 321.48648071 C-273.14203325 320.84087087 -274.42577605 320.19389535 -275.70880127 319.54550171 C-277.49780196 318.64209708 -279.28985385 317.7447424 -281.08203125 316.84765625 C-282.12367432 316.32478027 -283.16531738 315.8019043 -284.23852539 315.26318359 C-286.5818165 313.99959325 -286.5818165 313.99959325 -288.734375 314.13671875 Z M-101.5390625 315.97265625 C-102.35246094 316.37871094 -103.16585937 316.78476562 -104.00390625 317.203125 C-104.86371094 317.63496094 -105.72351563 318.06679688 -106.609375 318.51171875 C-107.79466797 319.10146484 -107.79466797 319.10146484 -109.00390625 319.703125 C-114.05781672 322.23397385 -119.0698683 324.83671573 -124.063797 327.4833374 C-136.25240113 333.94029632 -148.57518244 340.11359166 -160.921875 346.26171875 C-168.12 349.85046875 -175.318125 353.43921875 -182.734375 357.13671875 C-182.734375 389.14671875 -182.734375 421.15671875 -182.734375 454.13671875 C-178.1334463 453.21653301 -174.92206829 451.81203395 -170.921875 449.57421875 C-169.56476058 448.83287806 -168.20665737 448.0933451 -166.84765625 447.35546875 C-165.8124585 446.79279297 -165.8124585 446.79279297 -164.75634766 446.21875 C-161.74011292 444.60465288 -158.6773188 443.08672935 -155.609375 441.57421875 C-138.91013542 433.29374475 -122.31822696 424.74231813 -105.984375 415.76171875 C-104.73479004 415.07468872 -104.73479004 415.07468872 -103.45996094 414.3737793 C-99.88161481 412.55755664 -99.88161481 412.55755664 -96.734375 410.13671875 C-96.6390928 407.15373661 -96.60885325 404.1939553 -96.62084961 401.21069336 C-96.62070358 400.27420456 -96.62055756 399.33771576 -96.6204071 398.37284851 C-96.62110663 395.26156336 -96.62890085 392.15033726 -96.63671875 389.0390625 C-96.63858279 386.88814832 -96.64000676 384.73723372 -96.64100647 382.58631897 C-96.64483275 376.91290117 -96.65466398 371.2395088 -96.66571045 365.56610107 C-96.6759222 359.78170109 -96.68050358 353.99729702 -96.68554688 348.21289062 C-96.69628615 336.85415547 -96.71336389 325.49543922 -96.734375 314.13671875 C-98.50354203 314.13671875 -99.98036904 315.19454462 -101.5390625 315.97265625 Z M-75.734375 315.13671875 C-75.734375 325.69671875 -75.734375 336.25671875 -75.734375 347.13671875 C-13.694375 347.13671875 48.345625 347.13671875 112.265625 347.13671875 C112.265625 336.57671875 112.265625 326.01671875 112.265625 315.13671875 C50.225625 315.13671875 -11.814375 315.13671875 -75.734375 315.13671875 Z " fill="#3D94DC" transform="translate(667.734375,290.86328125)"/>
<path d="M0 0 C7.0385155 5.05640481 11.83323887 11.39780403 16.32421875 18.7265625 C20.51334496 24.29490963 25.12289353 25.72770256 31.6015625 27.27734375 C43.98606436 30.5149513 52.82464117 34.169432 59.53515625 45.6015625 C62.2091399 50.70280313 64.30359097 55.78731126 66.0390625 61.27734375 C67.74067289 66.54684688 69.04054695 70.18651587 74.0390625 73.0625 C77.50202549 74.83185765 81.02279306 76.44517605 84.578125 78.01953125 C91.96169773 81.43248179 95.9529495 85.17909948 99.7890625 92.33984375 C101.64704421 98.12023128 101.51847261 103.26882673 99.06738281 108.81982422 C93.9843886 117.72259604 81.87428693 119.90756798 72.7890625 122.77734375 C71.17147198 123.29986075 69.55428599 123.8236317 67.9375 124.34863281 C64.74195918 125.38349067 61.54379773 126.40947919 58.34277344 127.42724609 C54.48694276 128.65389451 50.64045481 129.9072891 46.796875 131.171875 C44.8361908 131.8119743 42.87527615 132.45136845 40.9140625 133.08984375 C39.60091064 133.52091431 39.60091064 133.52091431 38.26123047 133.96069336 C37.46604004 134.21471924 36.67084961 134.46874512 35.8515625 134.73046875 C35.17996094 134.94735352 34.50835937 135.16423828 33.81640625 135.38769531 C31.9140625 135.83984375 31.9140625 135.83984375 27.9140625 135.83984375 C28.15189453 137.25716797 28.15189453 137.25716797 28.39453125 138.703125 C32.77848618 169.76457477 22.51083192 201.53757281 4.38671875 226.6875 C-0.03014147 232.44215061 -4.97512655 237.70139801 -10.0859375 242.83984375 C-10.56933594 243.32727051 -11.05273438 243.81469727 -11.55078125 244.31689453 C-31.62926774 264.27975288 -59.7239956 279.11815669 -88.4375 279.06445312 C-89.47648438 279.05220703 -90.51546875 279.03996094 -91.5859375 279.02734375 C-92.65585937 279.02669922 -93.72578125 279.02605469 -94.828125 279.02539062 C-102.662501 278.98098925 -102.662501 278.98098925 -106.0859375 277.83984375 C-106.311604 278.75193604 -106.53727051 279.66402832 -106.76977539 280.60375977 C-109.3779722 291.11130837 -112.05140202 301.60119428 -114.81274414 312.06958008 C-115.28950332 313.8860473 -115.76145293 315.70378319 -116.22875977 317.52270508 C-116.91811239 320.20325479 -117.62343721 322.87916846 -118.33203125 325.5546875 C-118.53428818 326.35486801 -118.7365451 327.15504852 -118.94493103 327.97947693 C-120.81235494 334.91466866 -123.45249849 341.49900907 -128.8984375 346.33984375 C-134.27736918 348.87110572 -138.80592098 349.42185997 -144.5234375 348.02734375 C-153.47282648 344.62903625 -159.02054662 334.82277487 -164.26171875 327.28515625 C-168.45526023 321.66383513 -171.63220958 320.06409385 -178.2734375 318.40234375 C-184.77254903 316.63580211 -190.46480227 314.65555741 -196.0859375 310.83984375 C-196.9728125 310.28296875 -197.8596875 309.72609375 -198.7734375 309.15234375 C-205.80307142 302.12270983 -208.62447379 293.09887957 -211.46240234 283.796875 C-213.54144922 277.30935186 -215.7864956 274.71769205 -221.76953125 271.3125 C-222.67832031 270.84714844 -223.58710938 270.38179687 -224.5234375 269.90234375 C-231.90516533 265.92909159 -237.61822904 261.72475226 -241.0859375 253.83984375 C-242.72429059 247.84842459 -242.45820932 243.22829731 -239.58203125 237.7265625 C-235.40885764 232.46378743 -230.71496328 229.94553718 -224.3984375 227.97265625 C-223.30057167 227.61163315 -223.30057167 227.61163315 -222.18052673 227.24331665 C-219.81973618 226.47057405 -217.45324174 225.71736827 -215.0859375 224.96484375 C-213.46000988 224.43762611 -211.83444118 223.90930031 -210.20922852 223.37988281 C-206.2286263 222.08654366 -202.24317892 220.80893263 -198.25616455 219.53552246 C-195.14201541 218.53726412 -192.03395223 217.5206019 -188.92578125 216.50390625 C-186.95864357 215.86492954 -184.99122358 215.22682087 -183.0234375 214.58984375 C-182.13978516 214.30254395 -181.25613281 214.01524414 -180.34570312 213.71923828 C-174.4393751 211.83984375 -174.4393751 211.83984375 -171.0859375 211.83984375 C-171.32715332 210.74784668 -171.32715332 210.74784668 -171.57324219 209.63378906 C-176.80418805 181.12762503 -166.13971033 151.23182282 -150.98046875 127.55078125 C-131.63319551 100.13248983 -103.53047615 78.75433441 -70.17626953 72.37890625 C-60.8848509 70.77778392 -46.8411601 68.46223245 -38.0859375 72.83984375 C-37.96757538 72.10533493 -37.84921326 71.37082611 -37.7272644 70.61405945 C-36.0446356 60.32572126 -33.98790275 50.12989166 -31.88232422 39.92114258 C-31.43381854 37.73749074 -30.98982457 35.55290749 -30.55029297 33.36743164 C-29.90814591 30.17510486 -29.2524447 26.98582341 -28.59375 23.796875 C-28.30602219 22.34810722 -28.30602219 22.34810722 -28.01248169 20.87007141 C-25.03795562 6.6996113 -25.03795562 6.6996113 -20.0859375 1.90234375 C-19.4259375 1.55171875 -18.7659375 1.20109375 -18.0859375 0.83984375 C-17.0959375 0.28296875 -17.0959375 0.28296875 -16.0859375 -0.28515625 C-10.68599345 -2.64763177 -5.2427107 -2.91588966 0 0 Z M-7.0859375 22.83984375 C-7.24674805 23.67418945 -7.40755859 24.50853516 -7.57324219 25.36816406 C-8.1891439 28.56189121 -8.80564428 31.75550164 -9.42254639 34.94903564 C-9.69753552 36.37310828 -9.97231672 37.79722109 -10.24688721 39.22137451 C-11.59490146 46.21198825 -12.94454663 53.20146552 -14.375 60.17578125 C-14.56094727 61.08424805 -14.74689453 61.99271484 -14.93847656 62.92871094 C-15.27730951 64.57347574 -15.62016558 66.21741888 -15.96777344 67.86035156 C-16.73227786 71.57436338 -17.28102517 75.04313747 -17.0859375 78.83984375 C-16.48007812 79.10796875 -15.87421875 79.37609375 -15.25 79.65234375 C-8.36992444 82.87010217 -2.79136569 86.84994781 2.9140625 91.83984375 C3.59210938 92.39929688 4.27015625 92.95875 4.96875 93.53515625 C12.10247574 99.92399496 16.32473953 108.56401544 20.9140625 116.83984375 C29.40146426 114.60162325 37.78598124 112.08021781 46.1640625 109.46484375 C47.1175206 109.1675386 47.1175206 109.1675386 48.09024048 108.86422729 C52.36712104 107.52995368 56.64132535 106.18733742 60.9140625 104.83984375 C61.82655762 104.55222168 62.73905273 104.26459961 63.67919922 103.96826172 C65.8228939 103.28819004 67.96317196 102.59888255 70.1015625 101.90234375 C71.20886719 101.54269531 72.31617188 101.18304688 73.45703125 100.8125 C76.04094524 99.97775883 76.04094524 99.97775883 77.9140625 97.83984375 C76.32078125 97.09541016 76.32078125 97.09541016 74.6953125 96.3359375 C61.77976805 90.17971629 52.11729646 84.11092548 47.0703125 70.078125 C46.22346234 67.60650419 45.40584797 65.12709093 44.59765625 62.64257812 C42.85900867 57.59241342 41.18896924 54.29729184 36.9140625 50.83984375 C33.09292129 49.07079689 29.51230716 47.98072502 25.4140625 47.015625 C12.60386928 43.95512521 5.04109938 39.4076066 -2.39453125 28.29296875 C-3.8405897 26.19568305 -5.26768513 24.59601256 -7.0859375 22.83984375 Z M-111.0859375 114.83984375 C-111.90320313 115.52691406 -112.72046875 116.21398437 -113.5625 116.921875 C-124.17613879 126.04040368 -132.21392493 136.698261 -139.0859375 148.83984375 C-139.79363281 150.08507812 -139.79363281 150.08507812 -140.515625 151.35546875 C-151.13001884 171.26569818 -154.41784928 194.13766649 -148.33984375 215.93359375 C-143.88744233 230.42945649 -135.13534871 242.0873164 -122.0859375 249.83984375 C-121.32925781 250.31164062 -120.57257813 250.7834375 -119.79296875 251.26953125 C-104.73937153 259.79233838 -85.65085969 259.55066164 -69.39453125 255.1640625 C-52.98125866 250.3383749 -39.40030678 241.66651524 -27.0859375 229.83984375 C-25.94511719 228.77636719 -25.94511719 228.77636719 -24.78125 227.69140625 C-5.25495412 208.97589082 7.41099169 182.39761041 8.19555664 155.25683594 C8.42572428 137.77859383 3.59441112 121.87690062 -8.55151367 108.97436523 C-20.31593878 97.34799709 -36.16471935 92.47963625 -52.4375 91.80859375 C-73.50023282 91.9890026 -95.45767347 100.83841266 -111.0859375 114.83984375 Z M-170.31103516 232.16918945 C-171.20932037 232.45981766 -172.10760559 232.75044586 -173.03311157 233.04988098 C-174.50172134 233.52792427 -174.50172134 233.52792427 -176 234.015625 C-177.0030014 234.34145065 -178.00600281 234.66727631 -179.03939819 235.00297546 C-181.16991641 235.69576766 -183.30016767 236.38938129 -185.43017578 237.08374023 C-188.67500283 238.14063918 -191.92143066 239.1925113 -195.16796875 240.24414062 C-197.23708013 240.91765866 -199.30609367 241.59147735 -201.375 242.265625 C-202.3419278 242.57824783 -203.30885559 242.89087067 -204.30508423 243.21296692 C-209.35582301 244.86544442 -214.24087809 246.65467766 -219.0859375 248.83984375 C-215.6167706 251.76158248 -212.13553649 254.00228651 -208.1484375 256.15234375 C-197.8085062 262.17129886 -194.97135155 268.69901366 -191.0859375 279.83984375 C-188.18465182 288.40612153 -188.18465182 288.40612153 -182.0859375 294.83984375 C-177.60323647 296.80516587 -172.97204823 298.28896301 -168.27734375 299.66015625 C-156.17185752 303.4720966 -149.25849935 312.43342034 -142.01953125 322.3125 C-141.38144531 323.14652344 -140.74335938 323.98054688 -140.0859375 324.83984375 C-139.7559375 324.83984375 -139.4259375 324.83984375 -139.0859375 324.83984375 C-137.20471219 317.49207666 -135.33627897 310.14114375 -133.47680664 302.7878418 C-132.8423981 300.28546158 -132.20503836 297.78382767 -131.56469727 295.28295898 C-130.64607744 291.69315496 -129.73802038 288.10082205 -128.83203125 284.5078125 C-128.54251083 283.38585983 -128.25299042 282.26390717 -127.95469666 281.10795593 C-127.5641787 279.54667717 -127.5641787 279.54667717 -127.16577148 277.95385742 C-126.93260727 277.03674484 -126.69944305 276.11963226 -126.45921326 275.17472839 C-125.87811377 272.69327187 -125.87811377 272.69327187 -127.0859375 269.83984375 C-129.36819665 268.39647028 -129.36819665 268.39647028 -132.1484375 267.08984375 C-136.87316649 264.63839139 -140.59850892 261.93476991 -144.4296875 258.2578125 C-146.14156175 256.61199293 -146.14156175 256.61199293 -149.0859375 255.83984375 C-149.80141111 254.53205182 -150.45886937 253.19225189 -151.0859375 251.83984375 C-152.31056402 250.11323069 -153.5634828 248.40651802 -154.8359375 246.71484375 C-158.19036886 242.17505778 -161.16019581 237.54080263 -163.95703125 232.640625 C-164.32957031 232.04636719 -164.70210937 231.45210937 -165.0859375 230.83984375 C-166.89962929 230.83984375 -168.59994167 231.61432734 -170.31103516 232.16918945 Z " fill="#3D94DD" transform="translate(369.0859375,310.16015625)"/>
<path d="M0 0 C0.86625 0.53625 1.7325 1.0725 2.625 1.625 C9.08666377 8.08666377 12.108108 15.1834946 12.3125 24.1875 C12.21062862 33.29480168 9.23295579 39.57476263 3.05078125 46.20703125 C-2.71488733 51.24787292 -9.39300459 53.87925404 -17 54 C-25.61791571 52.89513901 -33.1889933 49.57800758 -39 43 C-44.45381036 35.01706 -46.41805231 27.59343212 -45 18 C-42.99895402 10.39368487 -38.17545079 3.88628931 -31.72265625 -0.57421875 C-21.52064707 -6.4985136 -10.02374335 -6.50252203 0 0 Z M-22.4375 17.5 C-24.64099302 21.02558884 -24.79669284 23.95014472 -24 28 C-22.66666667 30.66666667 -22.66666667 30.66666667 -20 32 C-17.18943213 32.60473284 -14.80463806 32.653842 -12 32 C-9.25387006 30.08817732 -9.25387006 30.08817732 -8 27 C-8 23.07983866 -8.44773715 20.82839428 -10.625 17.5625 C-14.68058861 14.8943496 -18.32445087 14.96889284 -22.4375 17.5 Z " fill="#3D94DC" transform="translate(601,200)"/>
<path d="M0 0 C5.76658992 5.83540364 8.72732748 12.7505579 8.94921875 20.84375 C8.83419183 29.49377467 5.3767631 35.66121825 -0.4296875 41.9296875 C-6.82338729 47.63880934 -14.14305925 49.01206954 -22.4765625 48.9453125 C-26.96606749 48.49575449 -30.44858814 46.80019957 -34.36328125 44.65625 C-35.25015625 44.264375 -36.13703125 43.8725 -37.05078125 43.46875 C-42.16091028 39.46351373 -46.06899232 32.99826578 -47.36328125 26.65625 C-48.10831257 18.772464 -47.28071025 11.81442466 -42.6640625 5.234375 C-31.74611073 -7.89290689 -13.94194744 -10.65957753 0 0 Z M-26.36328125 16.65625 C-26.82231197 20.26291998 -26.7467969 22.72143061 -25.36328125 26.09375 C-22.64813194 28.21496039 -20.61402247 28.16732301 -17.23828125 27.96875 C-15.27074578 27.74283068 -15.27074578 27.74283068 -13.36328125 26.59375 C-11.75471603 23.47715489 -11.94114744 21.09362531 -12.36328125 17.65625 C-13.84321281 15.09286311 -13.84321281 15.09286311 -16.36328125 13.65625 C-20.61916129 13.03560083 -23.52047077 13.2667452 -26.36328125 16.65625 Z " fill="#3E95DC" transform="translate(480.36328125,258.34375)"/>
<path d="M0 0 C4.46615069 3.92149817 7.263766 8.13036353 7.8359375 14.10546875 C8.03593776 20.66701586 7.83972026 25.2948708 4.046875 30.76171875 C2.36592929 32.447088 0.73532698 33.30751309 -1.4375 34.25 C-0.66841787 36.27150045 0.10285489 38.29216752 0.875 40.3125 C1.55369141 42.09527344 1.55369141 42.09527344 2.24609375 43.9140625 C3.22924357 46.40548668 4.26837347 48.78399337 5.4375 51.1875 C6.75789859 54.78191838 6.7948287 56.63516915 5.5625 60.25 C3.32685107 62.73405436 1.92048564 63.18906627 -1.375 63.75 C-5.33440389 63.10356671 -7.1133626 61.36335815 -9.4375 58.25 C-11.10815015 55.0675054 -12.43621433 51.78054855 -13.75 48.4375 C-14.10900391 47.55384766 -14.46800781 46.67019531 -14.83789062 45.75976562 C-15.71584693 43.59414008 -16.58190827 41.42453598 -17.4375 39.25 C-17.7675 39.25 -18.0975 39.25 -18.4375 39.25 C-18.4468457 39.87044189 -18.45619141 40.49088379 -18.46582031 41.13012695 C-18.51950995 43.94172677 -18.60315646 46.7516598 -18.6875 49.5625 C-18.70876953 51.02719727 -18.70876953 51.02719727 -18.73046875 52.52148438 C-18.76269531 53.45927734 -18.79492188 54.39707031 -18.828125 55.36328125 C-18.8595459 56.65939331 -18.8595459 56.65939331 -18.89160156 57.98168945 C-19.4375 60.25 -19.4375 60.25 -21.25683594 62.02807617 C-24.48045809 63.83441617 -26.81125667 63.70328042 -30.4375 63.25 C-32.875 61.375 -32.875 61.375 -34.4375 59.25 C-34.4375 58.59 -34.4375 57.93 -34.4375 57.25 C-35.0975 56.92 -35.7575 56.59 -36.4375 56.25 C-35.7775 56.25 -35.1175 56.25 -34.4375 56.25 C-34.44194122 55.6096431 -34.44638245 54.96928619 -34.45095825 54.30952454 C-34.4952188 47.64232617 -34.52537783 40.97516958 -34.54736328 34.30786133 C-34.55741832 31.81988835 -34.57106416 29.33192718 -34.58837891 26.84399414 C-34.61264866 23.26706019 -34.62398819 19.69028255 -34.6328125 16.11328125 C-34.64313507 15.00165115 -34.65345764 13.89002106 -34.66409302 12.7447052 C-34.66424408 11.70400375 -34.66439514 10.66330231 -34.66455078 9.59106445 C-34.668992 8.6783931 -34.67343323 7.76572174 -34.67800903 6.82539368 C-34.30518746 2.83318466 -33.27766876 0.09016876 -30.4375 -2.75 C-21.35667663 -5.88338301 -8.42217951 -4.28765502 0 0 Z M-19.4375 11.25 C-19.4375 15.87 -19.4375 20.49 -19.4375 25.25 C-18.179375 25.311875 -16.92125 25.37375 -15.625 25.4375 C-14.91730469 25.47230469 -14.20960938 25.50710938 -13.48046875 25.54296875 C-11.36794157 25.39612781 -11.36794157 25.39612781 -9.6875 24.03125 C-8.07174586 21.72880036 -8.12894161 20.34684299 -8.25 17.5625 C-8.27707031 16.75425781 -8.30414062 15.94601562 -8.33203125 15.11328125 C-8.36683594 14.49839844 -8.40164063 13.88351562 -8.4375 13.25 C-13.85784422 10.34393024 -13.85784422 10.34393024 -19.4375 11.25 Z " fill="#3992DB" transform="translate(766.4375,442.75)"/>
<path d="M0 0 C3.17676129 3.1061666 4.78472891 5.3183082 6.125 9.5625 C6 13 6 13 3.9375 15.9375 C1 18 1 18 -2.0625 18.625 C-5 18 -5 18 -6.9375 15.5625 C-8.86050738 12.65113134 -8.86050738 12.65113134 -12.625 12.0625 C-13.73875 12.041875 -14.8525 12.02125 -16 12 C-19.96752703 15.96752703 -19.12750081 23.36266182 -19.13671875 28.75976562 C-19.13285156 29.51966797 -19.12898437 30.27957031 -19.125 31.0625 C-19.12886719 31.82626953 -19.13273438 32.59003906 -19.13671875 33.37695312 C-19.52292189 41.87596516 -19.52292189 41.87596516 -16 49 C-12.95817107 49.25005386 -12.95817107 49.25005386 -10 49 C-8.33657163 47.33657163 -8.63951903 45.2174291 -8.4375 42.9375 C-8.35371094 42.01839844 -8.26992188 41.09929687 -8.18359375 40.15234375 C-8.09271484 39.08693359 -8.09271484 39.08693359 -8 38 C-9.65 38 -11.3 38 -13 38 C-14.16343227 35.67313547 -14.19895988 34.15278587 -14.25 31.5625 C-14.27578125 30.78003906 -14.3015625 29.99757813 -14.328125 29.19140625 C-14 27 -14 27 -12.99609375 25.2265625 C-9.80424415 23.26523026 -6.43518505 23.68910723 -2.8125 23.8125 C-1.68811523 23.83280273 -1.68811523 23.83280273 -0.54101562 23.85351562 C1.30629767 23.88881461 3.15324066 23.94262083 5 24 C7.0378512 29.0824496 7.33497989 33.48881799 7.3125 38.875 C7.32861328 39.63941406 7.34472656 40.40382813 7.36132812 41.19140625 C7.36676498 47.59602419 6.29493155 53.1912778 2.16796875 58.2421875 C-3.62858458 63.02119991 -7.70706058 65.26446853 -15.375 64.9375 C-22.39739723 64.11583175 -26.94781606 61.5382275 -31.375 56.0625 C-35.395658 48.48510608 -35.37243124 41.31468714 -35.37060547 32.94262695 C-35.37496822 30.70380957 -35.41130782 28.46698374 -35.44921875 26.22851562 C-35.521687 17.2100842 -34.96504356 9.89703318 -29.10546875 2.66015625 C-20.49518731 -4.51215558 -9.79405014 -6.60528963 0 0 Z " fill="#4296DC" transform="translate(674,442)"/>
<path d="M0 0 C1.95081576 1.53417331 2.86434505 2.49604668 3.51391602 4.90917969 C4.2067017 13.741006 4.04016454 22.57455701 3.90405273 31.42480469 C3.87372861 33.53841972 3.8560588 35.65186117 3.83984375 37.765625 C3.81458618 39.63395996 3.81458618 39.63395996 3.78881836 41.54003906 C4.00199827 45.03273927 4.73777188 47.75151353 6 51 C8.91652174 51.16681109 8.91652174 51.16681109 12 51 C14.16777574 49.24004993 14.16777574 49.24004993 14.24482727 47.08476257 C14.24306992 46.30486465 14.24131256 45.52496674 14.23950195 44.72143555 C14.24323318 43.83679123 14.24696442 42.95214691 14.25080872 42.04069519 C14.24667465 41.08238297 14.24254059 40.12407074 14.23828125 39.13671875 C14.25370285 37.11522768 14.27000662 35.09374317 14.28710938 33.07226562 C14.30356232 29.87916608 14.31249789 26.68654663 14.30541992 23.4934082 C14.30280053 20.41562352 14.33092161 17.33930745 14.36328125 14.26171875 C14.35307449 13.30947922 14.34286774 12.35723969 14.33235168 11.37614441 C14.40004583 6.7866155 14.520906 4.64979809 17.31323242 0.86254883 C20 -1 20 -1 23.625 -1.0625 C27 0 27 0 28.68383789 1.44873047 C30.75615799 5.46574866 30.4476252 9.42668438 30.43359375 13.8828125 C30.4388356 14.852258 30.44407745 15.82170349 30.44947815 16.82052612 C30.45589933 18.87317957 30.45456012 20.9258698 30.44604492 22.97851562 C30.43758655 26.09313129 30.46621155 29.20588041 30.49804688 32.3203125 C30.49966051 34.32031196 30.49907827 36.32031462 30.49609375 38.3203125 C30.51294472 39.70055099 30.51294472 39.70055099 30.53013611 41.1086731 C30.45435704 48.27599772 29.12650795 55.3677832 24.32298279 60.94827271 C20.016484 65.03422932 15.63807905 66.8486656 9.65234375 67.09765625 C2.86979015 66.83557922 -1.99933554 64.57203608 -7 60 C-10.67228346 55.29298473 -12.11576761 50.45674517 -12.14526367 44.5703125 C-12.15164352 43.7026123 -12.15802338 42.83491211 -12.16459656 41.94091797 C-12.16570938 41.01166504 -12.1668222 40.08241211 -12.16796875 39.125 C-12.17129715 38.16352051 -12.17462555 37.20204102 -12.17805481 36.21142578 C-12.18311234 34.18066892 -12.1854635 32.14990377 -12.18530273 30.11914062 C-12.18749184 27.01158001 -12.20566722 23.90437296 -12.22460938 20.796875 C-12.227543 18.82291788 -12.229528 16.84895908 -12.23046875 14.875 C-12.23765427 13.94574707 -12.24483978 13.01649414 -12.25224304 12.05908203 C-12.24916641 11.19138184 -12.24608978 10.32368164 -12.24291992 9.4296875 C-12.24434494 8.66897949 -12.24576996 7.90827148 -12.24723816 7.12451172 C-11.96332979 4.68489371 -11.26861739 3.09293829 -10 1 C-6.61147003 -1.54139747 -3.96754849 -1.09740703 0 0 Z " fill="#4095DD" transform="translate(604,440)"/>
<path d="M0 0 C7.38430144 4.39541752 8.68372264 12.97633014 10.6640625 20.765625 C11.02037247 22.13844635 11.02037247 22.13844635 11.38388062 23.53900146 C12.13612283 26.44135235 12.88081887 29.34557287 13.625 32.25 C14.37788851 35.16828432 15.13231852 38.08616454 15.88754272 41.00384521 C16.35557352 42.8141564 16.82196195 44.62489317 17.28652954 46.43609619 C17.49699921 47.25414734 17.70746887 48.07219849 17.92431641 48.91503906 C18.108461 49.63338928 18.29260559 50.3517395 18.48233032 51.09185791 C18.93070921 52.74459259 19.4584674 54.3754022 20 56 C20.35028204 59.85310248 20.55418511 62.13547123 18.4375 65.4375 C15.05782196 67.60396028 12.94016013 67.56288002 9 67 C6.22561341 65.27538131 5.25481759 63.84599439 4.31640625 60.73046875 C3.80750541 58.50183403 3.39727315 56.25121452 3 54 C-1.29 53.67 -5.58 53.34 -10 53 C-10.103125 54.03125 -10.20625 55.0625 -10.3125 56.125 C-10.99647839 59.98015093 -12.00699485 62.65175135 -14 66 C-16.88861709 67.44430855 -18.79647701 67.37688506 -22 67 C-24.9375 64.9375 -24.9375 64.9375 -27 62 C-26.59442951 55.86699504 -24.80297396 49.95017465 -23.234375 44.02734375 C-22.95909973 42.98606827 -22.68382446 41.94479279 -22.40020752 40.8719635 C-21.81759563 38.67855695 -21.23248302 36.48581329 -20.64501953 34.29370117 C-19.75299584 30.94873399 -18.88236453 27.59863204 -18.01171875 24.24804688 C-17.44142451 22.11162628 -16.86985248 19.97554628 -16.296875 17.83984375 C-15.91375153 16.34432228 -15.91375153 16.34432228 -15.52288818 14.81858826 C-13.94522274 9.053201 -12.34378358 5.17497263 -8 1 C-4.93399547 -0.02200151 -3.18823183 -0.37955141 0 0 Z M-4 25 C-4.99 29.95 -5.98 34.9 -7 40 C-5.35 40 -3.7 40 -2 40 C-2 39.34 -2 38.68 -2 38 C-1.67 38.66 -1.34 39.32 -1 40 C-0.34 39.67 0.32 39.34 1 39 C0.55187982 36.8520106 0.09121652 34.70663439 -0.375 32.5625 C-0.75785156 30.77005859 -0.75785156 30.77005859 -1.1484375 28.94140625 C-1.42945313 27.97074219 -1.71046875 27.00007813 -2 26 C-2.66 25.67 -3.32 25.34 -4 25 Z " fill="#3C93DB" transform="translate(709,439)"/>
<path d="M0 0 C3.26985682 1.77846602 6.00704332 3.88697338 7.63671875 7.2421875 C8.12619166 11.15797079 8.22551622 13.32366344 6.07421875 16.6796875 C2.67967507 18.85567704 0.60015385 18.79845909 -3.36328125 18.2421875 C-5.04157925 16.92352478 -6.70942892 15.59138282 -8.36328125 14.2421875 C-11.11452378 14.37368576 -11.11452378 14.37368576 -13.36328125 15.2421875 C-14.00724283 18.02853493 -14.00724283 18.02853493 -13.36328125 21.2421875 C-11.08713746 23.38444048 -8.41481996 24.76420317 -5.67578125 26.2421875 C1.02924241 29.95721402 5.91217561 33.16599462 9.01171875 40.4921875 C10.15374092 47.34432052 9.73629574 53.02499824 6.19921875 59.1171875 C2.62285114 63.97451371 -1.59084651 65.85901624 -7.36328125 67.2421875 C-13.5255189 67.99895353 -19.98921426 66.7551237 -25.046875 62.98828125 C-27.67919289 60.25156548 -28.70845713 57.74919755 -28.92578125 54.0546875 C-28.36328125 50.2421875 -28.36328125 50.2421875 -26.67578125 48.2421875 C-23.85908591 47.02415708 -22.40635338 46.73500881 -19.36328125 47.2421875 C-17.90921875 48.263125 -17.90921875 48.263125 -16.42578125 49.3046875 C-13.48895886 51.58836494 -13.48895886 51.58836494 -9.98828125 50.9921875 C-9.12203125 50.7446875 -8.25578125 50.4971875 -7.36328125 50.2421875 C-6.60773805 47.500931 -6.60773805 47.500931 -7.36328125 44.2421875 C-10.07626422 41.79296676 -13.20777248 40.06579469 -16.36328125 38.2421875 C-22.5435461 34.59971256 -27.85145338 31.258399 -30.36328125 24.2421875 C-31.3959474 17.92632758 -30.79605551 12.45544143 -27.56640625 6.89453125 C-21.38405835 -1.59616083 -9.57242715 -3.06950557 0 0 Z " fill="#4095DC" transform="translate(578.36328125,439.7578125)"/>
<path d="M0 0 C0.99 0 1.98 0 3 0 C3 11.22 3 22.44 3 34 C-76.2 34 -155.4 34 -237 34 C-237 23.44 -237 12.88 -237 2 C-232 4 -232 4 -231 6 C-233.475 5.01 -233.475 5.01 -236 4 C-235.86132739 8.10444167 -235.71283897 12.2084704 -235.5625 16.3125 C-235.52318359 17.47974609 -235.48386719 18.64699219 -235.44335938 19.84960938 C-235.40146484 20.96787109 -235.35957031 22.08613281 -235.31640625 23.23828125 C-235.27974854 24.26993408 -235.24309082 25.30158691 -235.20532227 26.36450195 C-235.09838758 29.10748258 -235.09838758 29.10748258 -234 32 C-232.94775836 31.99907821 -231.89551672 31.99815641 -230.81138897 31.99720669 C-205.09035482 31.97490896 -179.36932195 31.95852797 -153.64828014 31.94818783 C-141.20928286 31.94305324 -128.77029199 31.93606526 -116.33129883 31.92456055 C-105.47695817 31.91452633 -94.62262216 31.90812599 -83.76827699 31.90591151 C-78.03239859 31.90461909 -72.2965335 31.90162801 -66.56065941 31.89426994 C-43.67699329 31.86600679 -20.8626608 31.92231137 2 33 C1.67 22.77 1.34 12.54 1 2 C0.01 2 -0.98 2 -2 2 C-1.34 1.34 -0.68 0.68 0 0 Z " fill="#A0C6ED" transform="translate(778,315)"/>
<path d="M0 0 C3.3125 1.0625 3.3125 1.0625 4.75 3.125 C4.935625 3.764375 5.12125 4.40375 5.3125 5.0625 C3.29427083 4.76953125 1.27604167 4.4765625 -0.7421875 4.18359375 C-2.76890667 3.8940703 -2.76890667 3.8940703 -4.6875 5.0625 C-4.69114563 5.61516037 -4.69479126 6.16782074 -4.69854736 6.73722839 C-4.74040241 12.49654993 -4.8097685 18.25507677 -4.89501953 24.01391602 C-4.92322127 26.16227261 -4.94443975 28.31073281 -4.95849609 30.45922852 C-4.97993623 33.55018119 -5.02659311 36.63988922 -5.078125 39.73046875 C-5.07935364 40.68898239 -5.08058228 41.64749603 -5.08184814 42.63505554 C-5.17870455 47.05851917 -5.26975852 49.41772294 -7.72558594 53.20825195 C-8.37301758 53.82015381 -9.02044922 54.43205566 -9.6875 55.0625 C-10.3475 54.7325 -11.0075 54.4025 -11.6875 54.0625 C-11.0275 53.4025 -10.3675 52.7425 -9.6875 52.0625 C-9.39169296 49.99693924 -9.39169296 49.99693924 -9.44799805 47.6003418 C-9.44426682 46.67565598 -9.44053558 45.75097015 -9.43669128 44.79826355 C-9.44082535 43.79620377 -9.44495941 42.79414398 -9.44921875 41.76171875 C-9.43379744 39.64908213 -9.41749369 37.5364518 -9.40039062 35.42382812 C-9.38393542 32.08587815 -9.37500342 28.74838758 -9.38208008 25.41040039 C-9.38469862 22.1936418 -9.35658405 18.97828971 -9.32421875 15.76171875 C-9.33442551 14.76573166 -9.34463226 13.76974457 -9.35514832 12.74357605 C-9.28898789 8.05714967 -9.20498569 5.77168353 -6.37817383 1.89770508 C-3.6875 0.0625 -3.6875 0.0625 0 0 Z " fill="#529DDB" transform="translate(627.6875,438.9375)"/>
<path d="M0 0 C0.763125 0.680625 1.52625 1.36125 2.3125 2.0625 C2.3125 3.0525 2.3125 4.0425 2.3125 5.0625 C1.590625 4.44375 0.86875 3.825 0.125 3.1875 C-4.12302352 -0.02211777 -7.61229445 -1.18956665 -12.91796875 -1.203125 C-13.88541016 -1.20570313 -14.85285156 -1.20828125 -15.84960938 -1.2109375 C-16.84798828 -1.20320313 -17.84636719 -1.19546875 -18.875 -1.1875 C-19.88498047 -1.19523437 -20.89496094 -1.20296875 -21.93554688 -1.2109375 C-23.3809082 -1.20707031 -23.3809082 -1.20707031 -24.85546875 -1.203125 C-25.73485107 -1.20086914 -26.6142334 -1.19861328 -27.52026367 -1.19628906 C-29.89835352 -1.13883251 -29.89835352 -1.13883251 -31.6875 1.0625 C-31.98073962 3.69287501 -31.98073962 3.69287501 -31.91455078 6.79736328 C-31.91439972 7.99845734 -31.91424866 9.19955139 -31.91409302 10.43704224 C-31.90377045 11.73914642 -31.89344788 13.04125061 -31.8828125 14.3828125 C-31.87908276 15.72516673 -31.87623561 17.06752367 -31.87423706 18.40988159 C-31.86659744 21.944514 -31.8469463 25.47898228 -31.8248291 29.0135498 C-31.80437765 32.6196877 -31.79523685 36.22585209 -31.78515625 39.83203125 C-31.7637006 46.90892135 -31.72956079 53.98569997 -31.6875 61.0625 C-32.6775 60.4025 -33.6675 59.7425 -34.6875 59.0625 C-34.6875 58.4025 -34.6875 57.7425 -34.6875 57.0625 C-35.3475 56.7325 -36.0075 56.4025 -36.6875 56.0625 C-36.0275 56.0625 -35.3675 56.0625 -34.6875 56.0625 C-34.69194122 55.4221431 -34.69638245 54.78178619 -34.70095825 54.12202454 C-34.7452188 47.45482617 -34.77537783 40.78766958 -34.79736328 34.12036133 C-34.80741832 31.63238835 -34.82106416 29.14442718 -34.83837891 26.65649414 C-34.86264866 23.07956019 -34.87398819 19.50278255 -34.8828125 15.92578125 C-34.89313507 14.81415115 -34.90345764 13.70252106 -34.91409302 12.5572052 C-34.91424408 11.51650375 -34.91439514 10.47580231 -34.91455078 9.40356445 C-34.918992 8.4908931 -34.92343323 7.57822174 -34.92800903 6.63789368 C-34.55518746 2.64568466 -33.52766876 -0.09733124 -30.6875 -2.9375 C-21.90517168 -5.96788581 -7.96237338 -4.8669308 0 0 Z " fill="#6EAADC" transform="translate(766.6875,442.9375)"/>
<path d="M0 0 C2.31453234 0.03803909 4.6279917 0.15540654 6.9375 0.3125 C8.20464844 0.39113281 9.47179687 0.46976562 10.77734375 0.55078125 C14 1 14 1 16 3 C16.6328125 5.6015625 16.6328125 5.6015625 17.125 8.625 C17.37636719 10.12933594 17.37636719 10.12933594 17.6328125 11.6640625 C17.75398437 12.43492187 17.87515625 13.20578125 18 14 C17.34 13.67 16.68 13.34 16 13 C15.09408602 10.04179941 14.59941604 7.03989563 14 4 C9.71 3.67 5.42 3.34 1 3 C0.896875 4.03125 0.79375 5.0625 0.6875 6.125 C0.00352161 9.98015093 -1.00699485 12.65175135 -3 16 C-5.88861709 17.44430855 -7.79647701 17.37688506 -11 17 C-13.9375 14.9375 -13.9375 14.9375 -16 12 C-15.92147779 7.52423389 -15.01384202 5.02768404 -13 1 C-13 4.96 -13 8.92 -13 13 C-11.02 13.99 -9.04 14.98 -7 16 C-7 15.34 -7 14.68 -7 14 C-6.53851562 13.56945312 -6.07703125 13.13890625 -5.6015625 12.6953125 C-3.57338158 10.5484088 -3.12807451 8.71351163 -2.375 5.875 C-1.08333333 1.08333333 -1.08333333 1.08333333 0 0 Z " fill="#69A9E0" transform="translate(698,489)"/>
<path d="M0 0 C12.48153365 6.79851652 12.48153365 6.79851652 14.13085938 10.09716797 C8.6117122 9.80668654 4.93118166 7.36742 0.40039062 4.47216797 C-3.19493761 2.29393124 -5.93952525 1.98119894 -10.05664062 2.03466797 C-10.95769531 2.04369141 -11.85875 2.05271484 -12.78710938 2.06201172 C-13.81771484 2.07941406 -13.81771484 2.07941406 -14.86914062 2.09716797 C-14.53914062 1.10716797 -14.20914063 0.11716797 -13.86914062 -0.90283203 C-8.93643136 -2.54706845 -4.6688522 -2.25514831 0 0 Z " fill="#549DDA" transform="translate(667.869140625,290.90283203125)"/>
<path d="M0 0 C1.87250838 1.08492546 3.66966783 2.24065438 5.46630859 3.44677734 C6.08570313 3.83800781 6.70509766 4.22923828 7.34326172 4.63232422 C10.57411829 6.74764073 12.88239837 8.40537623 14.15380859 12.13427734 C9.02010343 10.36804986 4.80759725 7.33974344 0.41357422 4.23583984 C-3.51430397 1.59149781 -6.12115244 0.55460067 -10.84619141 1.13427734 C-13.631852 2.0468504 -13.631852 2.0468504 -15.84619141 3.13427734 C-11.03095224 -2.01304728 -6.68958215 -3.13690271 0 0 Z " fill="#509BDC" transform="translate(732.84619140625,310.86572265625)"/>
<path d="M0 0 C0.66 0.33 1.32 0.66 2 1 C1.113125 1.61875 0.22625 2.2375 -0.6875 2.875 C-4.32153225 5.87479077 -5.96659334 9.42098186 -7.8984375 13.65234375 C-9 16 -9 16 -10.8125 18.5625 C-13.53445888 24.14967876 -12.00997147 31.06641761 -11 37 C-14.33270689 33.66729311 -14.21103361 30.39292458 -14.3125 25.875 C-14.20635763 16.31157271 -11.0117084 10.60533555 -4.68359375 3.62890625 C-3 2 -3 2 0 0 Z " fill="#6AAADF" transform="translate(570,199)"/>
<path d="M0 0 C0 3.62453269 -0.92469613 5.07920195 -3 8 C-3.99 8.33 -4.98 8.66 -6 9 C-6.433125 9.928125 -6.433125 9.928125 -6.875 10.875 C-8 13 -8 13 -10.125 14.25 C-14.38036887 16.84022453 -17.57056387 20.41738807 -21 24 C-21.66 23.67 -22.32 23.34 -23 23 C-22.57178955 22.57702637 -22.1435791 22.15405273 -21.70239258 21.71826172 C-19.73638357 19.77322701 -17.77442705 17.82415171 -15.8125 15.875 C-15.13896484 15.20984375 -14.46542969 14.5446875 -13.77148438 13.859375 C-10.77713924 10.87963642 -7.86091521 7.91627008 -5.19921875 4.6328125 C-3 2 -3 2 0 0 Z " fill="#5FA4DD" transform="translate(358,523)"/>
<path d="M0 0 C2.62470801 0.97489155 4.92538103 1.95081056 7.26953125 3.49609375 C10.40021837 5.22043501 12.9713435 5.73883948 16.5 6.25 C17.6034375 6.42015625 18.706875 6.5903125 19.84375 6.765625 C22.83909466 6.98805158 25.11094737 6.7546033 28 6 C27 8 27 8 24.875 9.125 C17.49260839 11.37181484 10.69028629 9.49334569 4 6 C2.05993785 4.05042774 1.19999229 2.51426955 0 0 Z " fill="#589FDD" transform="translate(674,317)"/>
<path d="M0 0 C5.25201563 0.71539083 8.87061652 0.4497474 13.8671875 -1.3671875 C11.2481802 2.02211607 7.94178203 2.96847644 3.8671875 3.6328125 C-2.92271555 4.21195129 -8.09070204 3.85527141 -14.1328125 0.6328125 C-9.60877951 -2.38320949 -5.134409 -0.79120401 0 0 Z " fill="#61A4DC" transform="translate(462.1328125,303.3671875)"/>
<path d="M0 0 C0.33 0 0.66 0 1 0 C1.01030746 0.6403569 1.02061493 1.28071381 1.03123474 1.94047546 C1.13944973 8.60779725 1.25403552 15.27498799 1.37231445 21.94213867 C1.4156152 24.4300665 1.45729372 26.91802311 1.49731445 29.40600586 C1.55513453 32.98299839 1.61879551 36.55984667 1.68359375 40.13671875 C1.70030624 41.24834885 1.71701874 42.35997894 1.73423767 43.5052948 C1.75418289 44.54599625 1.77412811 45.58669769 1.79467773 46.65893555 C1.81799416 48.02794258 1.81799416 48.02794258 1.84178162 49.42460632 C2.00179437 52.0292078 2.42803435 54.45676199 3 57 C2.01 56.34 1.02 55.68 0 55 C0 54.34 0 53.68 0 53 C-0.66 52.67 -1.32 52.34 -2 52 C-1.34 52 -0.68 52 0 52 C0 34.84 0 17.68 0 0 Z " fill="#95C5EF" transform="translate(732,447)"/>
<path d="M0 0 C-1.43554025 0.50559908 -2.8735202 1.0042749 -4.3125 1.5 C-5.51326172 1.91765625 -5.51326172 1.91765625 -6.73828125 2.34375 C-9 3 -9 3 -12 3 C-12.33 3.99 -12.66 4.98 -13 6 C-18.78634905 8.74090218 -24.69203097 9.35044272 -31 9 C-27.27207865 5.27207865 -21.56421272 4.38831787 -16.625 2.8125 C-15.47515625 2.43158203 -14.3253125 2.05066406 -13.140625 1.65820312 C-12.03460938 1.30306641 -10.92859375 0.94792969 -9.7890625 0.58203125 C-8.77537598 0.25436768 -7.76168945 -0.0732959 -6.71728516 -0.41088867 C-3.98861649 -1.00246796 -2.5873538 -0.94586868 0 0 Z " fill="#6BAADF" transform="translate(189,526)"/>
<path d="M0 0 C3.14966379 3.42354759 4 6.35973266 4 11 C1.59686932 14.42264067 0.11289267 15.76814736 -4 16.625 C-8.03885789 15.78357127 -9.49117556 14.22563142 -12 11 C-12.8125 8.1875 -12.8125 8.1875 -13 6 C-11.29115995 7.62339805 -9.62553283 9.29319053 -8 11 C-8 11.66 -8 12.32 -8 13 C-3.545 12.505 -3.545 12.505 1 12 C1.08159574 7.83861737 0.98248524 4.0527516 0 0 Z " fill="#6FACDF" transform="translate(769,490)"/>
<path d="M0 0 C0.33 0 0.66 0 1 0 C1.12375 1.0725 1.2475 2.145 1.375 3.25 C1.91878657 6.51271942 2.32193537 8.26210507 4 11 C4.8971875 12.485 4.8971875 12.485 5.8125 14 C7.96648609 16.95403806 10.14625954 18.7632845 13 21 C13.33 21.99 13.66 22.98 14 24 C7.99885703 21.94246527 3.79482151 18.81361748 0.71484375 13.1484375 C-0.70243034 8.88887055 -0.28821504 4.42730323 0 0 Z " fill="#5EA3DD" transform="translate(548,453)"/>
<path d="M0 0 C5.84026233 2.22434515 11.31651854 5.15407802 16.85791016 8.02246094 C18.75515695 9.00266432 20.65675444 9.97405625 22.55859375 10.9453125 C23.76329755 11.56717256 24.96773435 12.18955018 26.171875 12.8125 C27.2659668 13.37582031 28.36005859 13.93914063 29.48730469 14.51953125 C32 16 32 16 33 18 C30.99464622 17.34961499 28.99659018 16.67681023 27 16 C25.66001953 15.56300781 25.66001953 15.56300781 24.29296875 15.1171875 C23.33003906 14.78976562 22.36710937 14.46234375 21.375 14.125 C20.45460938 13.81820312 19.53421875 13.51140625 18.5859375 13.1953125 C15.69904845 11.86088947 14.22682884 10.2437629 12 8 C9.95537846 6.84526555 7.86836193 5.76312962 5.75 4.75 C4.67234375 4.22921875 3.5946875 3.7084375 2.484375 3.171875 C1.25460937 2.59179688 1.25460937 2.59179688 0 2 C0 1.34 0 0.68 0 0 Z " fill="#368AD2" transform="translate(390,727)"/>
<path d="M0 0 C0.66 0 1.32 0 2 0 C4.27491545 3.63986472 5.37376561 7.71868484 5 12 C2.84245739 14.74066224 1.11206995 16.44396502 -2 18 C-3.99960012 18.039992 -6.00047242 18.04346799 -8 18 C-8.33 17.01 -8.66 16.02 -9 15 C-7.1128125 14.87625 -7.1128125 14.87625 -5.1875 14.75 C-2.35547769 14.3784226 -1.22446317 14.17684977 1.0625 12.375 C2.74459351 8.11369643 1.40109511 4.20328534 0 0 Z " fill="#5EA4DF" transform="translate(590,217)"/>
<path d="M0 0 C0.33 0.66 0.66 1.32 1 2 C1.99 2.33 2.98 2.66 4 3 C5.4296875 4.890625 5.4296875 4.890625 6.875 7.25 C9.28468774 11.02978452 11.7520789 13.93767439 15 17 C15.33 17.66 15.66 18.32 16 19 C8.42383385 16.40245732 5.12441565 12.01948716 1.13671875 5.33984375 C0 3 0 3 0 0 Z " fill="#569CD8" transform="translate(162,604)"/>
<path d="M0 0 C0.66 0.33 1.32 0.66 2 1 C1.67 1.33 1.34 1.66 1 2 C0.435257 6.99936425 0.24418172 10.81903393 3 15.125 C3.66 15.74375 4.32 16.3625 5 17 C4.34 17.33 3.68 17.66 3 18 C-1.875 14.25 -1.875 14.25 -3 12 C-3.3793347 6.97381517 -2.98263247 4.10111964 0 0 Z " fill="#4D9ADA" transform="translate(577,216)"/>
<path d="M0 0 C0.66 0.33 1.32 0.66 2 1 C1.38125 1.5775 0.7625 2.155 0.125 2.75 C-2.02975158 4.78476534 -2.02975158 4.78476534 -2.86328125 6.921875 C-4.28487658 9.52080529 -5.93801242 10.74407641 -8.3125 12.5 C-9.51132813 13.39912109 -9.51132813 13.39912109 -10.734375 14.31640625 C-11.85585937 15.14978516 -11.85585937 15.14978516 -13 16 C-14.66998649 17.32917292 -16.33857487 18.66014102 -18 20 C-14.33597742 11.8022121 -6.79260141 5.61834851 0 0 Z " fill="#6BAADD" transform="translate(244,409)"/>
<path d="M0 0 C1 3 1 3 -0.546875 6.6875 C-1.27090577 8.13023779 -2.00575578 9.56758476 -2.75 11 C-3.29140625 12.08667969 -3.29140625 12.08667969 -3.84375 13.1953125 C-5.59685665 16.63800744 -7.14073527 19.35064565 -10 22 C-10.3913152 17.54063718 -9.21759262 15.02208724 -7 11.1875 C-6.443125 10.21167969 -5.88625 9.23585938 -5.3125 8.23046875 C-4.879375 7.49441406 -4.44625 6.75835938 -4 6 C-3.34 6 -2.68 6 -2 6 C-1.34 4.02 -0.68 2.04 0 0 Z " fill="#60A5DF" transform="translate(388,506)"/>
<path d="M0 0 C5.41700329 0.33856271 9.06059033 3.5622688 13 7 C15.5 9.875 15.5 9.875 17 12 C16.67 12.66 16.34 13.32 16 14 C14.22750476 12.5645497 12.45706424 11.12656197 10.6875 9.6875 C9.70136719 8.88699219 8.71523438 8.08648437 7.69921875 7.26171875 C5.67965334 5.56949245 3.81249316 3.9017236 2 2 C1.34 1.34 0.68 0.68 0 0 Z " fill="#60A5DF" transform="translate(410,341)"/>
<path d="M0 0 C5 2 5 2 6 4 C3.525 3.01 3.525 3.01 1 2 C1.03029297 2.73637695 1.06058594 3.47275391 1.09179688 4.23144531 C1.22870415 7.57092974 1.3643657 10.91046364 1.5 14.25 C1.54769531 15.40886719 1.59539063 16.56773437 1.64453125 17.76171875 C1.68964844 18.87675781 1.73476563 19.99179687 1.78125 21.140625 C1.82314453 22.16704102 1.86503906 23.19345703 1.90820312 24.25097656 C1.98329057 26.4996058 2 28.75011743 2 31 C1.34 31.33 0.68 31.66 0 32 C0 21.44 0 10.88 0 0 Z " fill="#83BBE8" transform="translate(541,317)"/>
<path d="M0 0 C0 3.18420845 -0.36234439 3.96380963 -1.96875 6.57421875 C-2.37480469 7.24130859 -2.78085938 7.90839844 -3.19921875 8.59570312 C-3.62847656 9.28599609 -4.05773437 9.97628906 -4.5 10.6875 C-4.92925781 11.38939453 -5.35851562 12.09128906 -5.80078125 12.81445312 C-6.86127928 14.54659991 -7.92987398 16.27378482 -9 18 C-9.33 17.34 -9.66 16.68 -10 16 C-9.30740426 14.02115503 -8.60417229 12.04448323 -7.81640625 10.1015625 C-6.8838799 7.82207549 -6.8838799 7.82207549 -6.125 4.625 C-5 2 -5 2 -2.375 0.625 C-1.59125 0.41875 -0.8075 0.2125 0 0 Z " fill="#5FA4DE" transform="translate(237,446)"/>
<path d="M0 0 C-1.55789683 1.13136586 -3.12153857 2.25482321 -4.6875 3.375 C-5.55761719 4.00148438 -6.42773438 4.62796875 -7.32421875 5.2734375 C-10.91816996 7.5924542 -13.69493097 9 -18 9 C-16.46739776 7.69759098 -14.92345173 6.40852488 -13.375 5.125 C-12.51648438 4.40570313 -11.65796875 3.68640625 -10.7734375 2.9453125 C-3.83821805 -1.91910903 -3.83821805 -1.91910903 0 0 Z " fill="#569DDA" transform="translate(264,399)"/>
<path d="M0 0 C2.48001708 2.48001708 2.87584176 4.46408128 3.875 7.8125 C5.31679147 12.29330919 6.61429374 15.61429374 10 19 C10.5775 19.598125 11.155 20.19625 11.75 20.8125 C12.1625 21.204375 12.575 21.59625 13 22 C9.52194908 20.74403717 6.72061113 19.52628176 4 17 C2.734375 14.00390625 2.734375 14.00390625 1.75 10.5625 C1.41484375 9.42941406 1.0796875 8.29632813 0.734375 7.12890625 C0 4 0 4 0 0 Z " fill="#76B1E4" transform="translate(431,363)"/>
<path d="M0 0 C-2.73198242 2.11728637 -5.49743046 3.97541839 -8.5 5.6875 C-9.62921875 6.34298828 -9.62921875 6.34298828 -10.78125 7.01171875 C-13 8 -13 8 -17 8 C-17 7.34 -17 6.68 -17 6 C-13.27034861 3.96564469 -11.33094958 3 -7 3 C-7 2.34 -7 1.68 -7 1 C-4.53721199 -0.231394 -2.7204945 -0.07159196 0 0 Z " fill="#549DDB" transform="translate(562,609)"/>
<path d="M0 0 C5.39040653 -0.53904065 9.62871165 0.88063194 14 4 C14.33 4.99 14.66 5.98 15 7 C11.14974121 6.39644592 8.13898841 5.23227397 4.6875 3.4375 C3.80449219 2.98246094 2.92148437 2.52742187 2.01171875 2.05859375 C1.34785156 1.70925781 0.68398438 1.35992188 0 1 C0 0.67 0 0.34 0 0 Z " fill="#4C99DA" transform="translate(562,567)"/>
<path d="M0 0 C-2.119212 1.36405618 -4.24448118 2.71631775 -6.375 4.0625 C-6.97828125 4.45244141 -7.5815625 4.84238281 -8.203125 5.24414062 C-9.76492557 6.22460432 -11.37992214 7.11916075 -13 8 C-13.66 7.67 -14.32 7.34 -15 7 C-11.06592484 2.59383582 -6.13951022 -2.08689492 0 0 Z " fill="#5BA2DD" transform="translate(717,315)"/>
<path d="M0 0 C1.95220847 2.9283127 3.5335065 5.86314325 5.125 9 C5.93324219 10.5778125 5.93324219 10.5778125 6.7578125 12.1875 C8 15 8 15 8 18 C3.25025516 14.02048406 1.33033224 10.04598148 0 4 C0 2.68 0 1.36 0 0 Z " fill="#66A9DF" transform="translate(221,527)"/>
<path d="M0 0 C0.33 0.66 0.66 1.32 1 2 C1.66 2 2.32 2 3 2 C2.75 4.375 2.75 4.375 2 7 C-1.09149708 9.40449773 -4.19502136 9.40478496 -8 9 C-9.875 7.5 -9.875 7.5 -11 6 C-8.98177083 6.29296875 -6.96354167 6.5859375 -4.9453125 6.87890625 C-2.91859333 7.1684297 -2.91859333 7.1684297 -1 6 C-0.34227572 2.97065509 -0.34227572 2.97065509 0 0 Z " fill="#68A9E1" transform="translate(572,484)"/>
<path d="M0 0 C2.09835343 6.55735447 0.80181481 12.58103475 -1 19 C-1.66 18.67 -2.32 18.34 -3 18 C-2.69112547 15.56199034 -2.37805338 13.12464633 -2.0625 10.6875 C-1.97548828 9.99720703 -1.88847656 9.30691406 -1.79882812 8.59570312 C-1.40789865 5.59857712 -0.9584996 2.87549881 0 0 Z " fill="#519CDA" transform="translate(687,479)"/>
<path d="M0 0 C0.33 0 0.66 0 1 0 C1.06058594 1.31355469 1.12117187 2.62710937 1.18359375 3.98046875 C1.26803256 5.71615541 1.35267888 7.45183198 1.4375 9.1875 C1.47681641 10.05181641 1.51613281 10.91613281 1.55664062 11.80664062 C1.76347016 15.95914122 2.00103531 19.94537862 3 24 C2.01 23.34 1.02 22.68 0 22 C0 21.34 0 20.68 0 20 C-0.66 19.67 -1.32 19.34 -2 19 C-1.34 19 -0.68 19 0 19 C0 12.73 0 6.46 0 0 Z " fill="#85BAE8" transform="translate(732,480)"/>
<path d="M0 0 C1.4375 2.0625 1.4375 2.0625 2 4 C1.29875 3.67 0.5975 3.34 -0.125 3 C-5.25975985 1.21399657 -9.1284628 1.70751191 -14 4 C-9.44403925 -0.87016494 -6.57181869 -1.55333896 0 0 Z " fill="#68A9E1" transform="translate(731,310)"/>
<path d="M0 0 C2.9301585 2.63714265 5.0470421 5.58232367 7 9 C6.609375 11.19140625 6.609375 11.19140625 6 13 C2.57546571 8.60957142 0.41778991 5.7097955 0 0 Z " fill="#4E9AD9" transform="translate(208,545)"/>
<path d="M0 0 C4.10958767 1.45044271 7.43258745 3.51110752 11 6 C9.375 6.75 9.375 6.75 7 7 C1.288 3.864 1.288 3.864 0 0 Z " fill="#5EA6E1" transform="translate(671,294)"/>
<path d="M0 0 C3.16470185 4.74705277 3.10927475 8.31771295 3 14 C2.01 14.495 2.01 14.495 1 15 C-0.03590199 9.94997778 -0.10251672 5.12583611 0 0 Z " fill="#5BA2DD" transform="translate(721,470)"/>
<path d="M0 0 C3.47727891 1.54545729 6.30062173 3.30062173 9 6 C9.8125 9.75 9.8125 9.75 10 13 C7.90611244 11.11550119 6.55994322 9.32616306 5 6.9375 C3.15461663 3.83181695 3.15461663 3.83181695 0 2 C0 1.34 0 0.68 0 0 Z " fill="#358ED5" transform="translate(458,393)"/>
<path d="M0 0 C4.68385984 2.70623013 7.10532731 4.87323859 9 10 C8.67 10.66 8.34 11.32 8 12 C6.66081194 10.37982158 5.3288031 8.75370657 4 7.125 C3.2575 6.22007812 2.515 5.31515625 1.75 4.3828125 C0 2 0 2 0 0 Z " fill="#65A6DE" transform="translate(206,637)"/>
<path d="M0 0 C0.66 0.33 1.32 0.66 2 1 C-0.85276137 3.93200474 -3.65079784 6.64315404 -7 9 C-7.66 8.67 -8.32 8.34 -9 8 C-6.14723863 5.06799526 -3.34920216 2.35684596 0 0 Z " fill="#529DDA" transform="translate(341,564)"/>
<path d="M0 0 C0.33 0 0.66 0 1 0 C1 2.64 1 5.28 1 8 C0.34 8 -0.32 8 -1 8 C-1.33 9.98 -1.66 11.96 -2 14 C-2.33 14 -2.66 14 -3 14 C-2.67 10.04 -2.34 6.08 -2 2 C-1.34 2 -0.68 2 0 2 C0 1.34 0 0.68 0 0 Z " fill="#5FA5DF" transform="translate(378,470)"/>
<path d="M0 0 C-0.99 0.33 -1.98 0.66 -3 1 C-3 1.66 -3 2.32 -3 3 C-6.96 3.66 -10.92 4.32 -15 5 C-12.01668605 2.76251454 -10.24674484 1.49973408 -6.9375 0.25 C-6.26589844 -0.01296875 -5.59429687 -0.2759375 -4.90234375 -0.546875 C-3 -1 -3 -1 0 0 Z " fill="#71AEE1" transform="translate(288,387)"/>
<path d="M0 0 C0.66 0 1.32 0 2 0 C3.5078125 1.96875 3.5078125 1.96875 5.125 4.5 C5.66382813 5.3353125 6.20265625 6.170625 6.7578125 7.03125 C7.16773438 7.6809375 7.57765625 8.330625 8 9 C5.0689778 7.55911934 2.41059487 6.23840952 0 4 C0 2.68 0 1.36 0 0 Z " fill="#579DD9" transform="translate(133,568)"/>
<path d="M0 0 C2.18742014 3.2811302 2.54442806 5.33084356 3.125 9.1875 C3.37636719 10.81751953 3.37636719 10.81751953 3.6328125 12.48046875 C3.75398437 13.31191406 3.87515625 14.14335937 4 15 C1.27601798 12.27601798 0.10595431 9.78466796 -0.125 5.89453125 C-0.125 3.92924576 -0.0665816 1.96415732 0 0 Z " fill="#559EDB" transform="translate(752,481)"/>
<path d="M0 0 C0.99 0.33 1.98 0.66 3 1 C3 1.66 3 2.32 3 3 C-0.4019487 5.09350689 -3.05272412 5.17942163 -7 5 C-4.702779 3.25728062 -2.40133271 1.60088848 0 0 Z " fill="#5AA3DE" transform="translate(540,597)"/>
<path d="M0 0 C0.33 0.66 0.66 1.32 1 2 C1.99 2.33 2.98 2.66 4 3 C4.73046875 4.84765625 4.73046875 4.84765625 5.1875 7.0625 C5.34605469 7.79597656 5.50460938 8.52945313 5.66796875 9.28515625 C5.83232422 10.13400391 5.83232422 10.13400391 6 11 C3.34730103 8.52414762 1.31989897 6.40973899 0 3 C0 2.01 0 1.02 0 0 Z " fill="#62A5DD" transform="translate(162,604)"/>
<path d="M0 0 C-2.6598561 3.44216672 -5.90288286 3.99504674 -10 5 C-10.33 4.34 -10.66 3.68 -11 3 C-7.14243493 0.84694043 -4.44870215 -0.39253254 0 0 Z " fill="#5CA3DD" transform="translate(422,571)"/>
<path d="M0 0 C2.56687367 3.8503105 1.83288724 5.58569763 1 10 C0.01 10.33 -0.98 10.66 -2 11 C-1 3.57142857 -1 3.57142857 0 0 Z " fill="#5DA1DD" transform="translate(690,468)"/>
<path d="M0 0 C0.66 0.33 1.32 0.66 2 1 C2.4140625 3.28515625 2.4140625 3.28515625 2.625 6.0625 C2.69976563 6.98160156 2.77453125 7.90070313 2.8515625 8.84765625 C2.92503906 9.91306641 2.92503906 9.91306641 3 11 C1 9.375 1 9.375 -1 7 C-1.3125 3.8125 -1.3125 3.8125 -1 1 C-0.67 0.67 -0.34 0.34 0 0 Z " fill="#2685D4" transform="translate(552,490)"/>
<path d="M0 0 C4.31392226 0.4793247 6.16569547 1.7457985 9 5 C8.01 5.495 8.01 5.495 7 6 C4.5249829 4.88568235 2.32116581 3.41849022 0 2 C0 1.34 0 0.68 0 0 Z " fill="#529BD9" transform="translate(540,295)"/>
<path d="M0 0 C5.75 1.75 5.75 1.75 8 4 C3.82412255 5.39195915 1.86525224 3.82323219 -2 2 C-1.34 1.34 -0.68 0.68 0 0 Z " fill="#569EDC" transform="translate(490,531)"/>
<path d="M0 0 C3 1 3 1 4.25 2.875 C5 5 5 5 4 8 C2 6.25 2 6.25 0 4 C0 2.68 0 1.36 0 0 Z " fill="#539DDB" transform="translate(764,482)"/>
<path d="M0 0 C1.98 0.66 3.96 1.32 6 2 C6 2.66 6 3.32 6 4 C6.66 4.66 7.32 5.32 8 6 C4.51460083 5.35455571 1.97180943 3.89865603 -1 2 C-0.67 1.34 -0.34 0.68 0 0 Z " fill="#5BA2DF" transform="translate(609,320)"/>
<path d="M0 0 C-0.33 0.66 -0.66 1.32 -1 2 C-3.32156597 2.40729228 -5.6568787 2.74438677 -8 3 C-8.33 2.34 -8.66 1.68 -9 1 C-3.375 -1.125 -3.375 -1.125 0 0 Z " fill="#4C99DA" transform="translate(405,443)"/>
<path d="M0 0 C0 0.66 0 1.32 0 2 C-7.42857143 3.28571429 -7.42857143 3.28571429 -11 2 C-7.17679443 0.57741188 -4.08718695 -0.24042276 0 0 Z " fill="#62A5DE" transform="translate(200,522)"/>
<path d="M0 0 C0.66 0 1.32 0 2 0 C3.38938077 1.96147874 4.7260411 3.96166576 6 6 C5.67 6.66 5.34 7.32 5 8 C2.21611025 6.29374499 1.14615794 5.52373261 0.25 2.3125 C0.1675 1.549375 0.085 0.78625 0 0 Z " fill="#4695D9" transform="translate(363,420)"/>
<path d="M0 0 C-3.1254959 2.64465038 -6.08788267 3.84414715 -10 5 C-9.67 4.34 -9.34 3.68 -9 3 C-8.34 3 -7.68 3 -7 3 C-7 2.34 -7 1.68 -7 1 C-4.53721199 -0.231394 -2.7204945 -0.07159196 0 0 Z " fill="#6BA9DF" transform="translate(562,609)"/>
<path d="M0 0 C2.64 1.98 5.28 3.96 8 6 C4.79604584 6 2.90600261 5.25664978 0 4 C0 2.68 0 1.36 0 0 Z " fill="#65A9E2" transform="translate(234,550)"/>
<path d="M0 0 C1 2 1 2 0.25 5.0625 C-0.1625 6.031875 -0.575 7.00125 -1 8 C-1.99 8.33 -2.98 8.66 -4 9 C-2.94124926 5.59687262 -1.99097846 2.98646769 0 0 Z " fill="#66A7DC" transform="translate(215,443)"/>
<path d="M0 0 C0.66 0.33 1.32 0.66 2 1 C0.625 2.5 0.625 2.5 -1 4 C-1.66 4 -2.32 4 -3 4 C-3.66 5.65 -4.32 7.3 -5 9 C-5.33 8.01 -5.66 7.02 -6 6 C-2.83636364 1.41818182 -2.83636364 1.41818182 0 0 Z " fill="#83B6E0" transform="translate(351,311)"/>
<path d="M0 0 C-3.20336822 2.83374881 -5.78087253 3.5205537 -10 4 C-4.4 -2.2 -4.4 -2.2 0 0 Z " fill="#559EDB" transform="translate(645,298)"/>
<path d="M0 0 C2.97 0 5.94 0 9 0 C9 0.33 9 0.66 9 1 C6.03 1 3.06 1 0 1 C0 0.67 0 0.34 0 0 Z " fill="#55A3E5" transform="translate(645,607)"/>
<path d="M0 0 C2.31 0 4.62 0 7 0 C7 0.33 7 0.66 7 1 C4.69 1 2.38 1 0 1 C0 0.67 0 0.34 0 0 Z " fill="#53A2E5" transform="translate(680,607)"/>
<path d="M0 0 C4 1 4 1 4 1 Z " fill="#56A3E4" transform="translate(755,607)"/>
<path d="M0 0 C4 1 4 1 4 1 Z " fill="#57A4E7" transform="translate(675,607)"/>
<path d="M0 0 C4 1 4 1 4 1 Z " fill="#54A4E6" transform="translate(664,607)"/>
<path d="M0 0 C4 1 4 1 4 1 Z " fill="#58A5E6" transform="translate(659,607)"/>
<path d="M0 0 C4 1 4 1 4 1 Z " fill="#56A3E4" transform="translate(619,607)"/>
<path d="M0 0 C0.99 0 1.98 0 3 0 C2.67 0.66 2.34 1.32 2 2 C1.34 1.34 0.68 0.68 0 0 Z " fill="#57A1E0" transform="translate(656,475)"/>
<path d="M0 0 C0.66 0 1.32 0 2 0 C2 0.66 2 1.32 2 2 C1.34 2 0.68 2 0 2 C0 1.34 0 0.68 0 0 Z " fill="#549FE0" transform="translate(600,318)"/>
<path d="M0 0 C4 1 4 1 4 1 Z " fill="#559EDF" transform="translate(457,308)"/>
<path d="" fill="#4C9AD9" transform="translate(0,0)"/>
<path d="M0 0 C3 1 3 1 3 1 Z " fill="#57A3E3" transform="translate(748,607)"/>
<path d="M0 0 C3 1 3 1 3 1 Z " fill="#56A3E5" transform="translate(724,607)"/>
<path d="M0 0 C3 1 3 1 3 1 Z " fill="#55A3E7" transform="translate(720,607)"/>
<path d="M0 0 C3 1 3 1 3 1 Z " fill="#57A2E4" transform="translate(708,607)"/>
<path d="M0 0 C3 1 3 1 3 1 Z " fill="#56A3E4" transform="translate(691,607)"/>
<path d="M0 0 C3 1 3 1 3 1 Z " fill="#54A2E6" transform="translate(627,607)"/>
<path d="M0 0 C3 1 3 1 3 1 Z " fill="#559FE0" transform="translate(744,325)"/>
<path d="M0 0 C2 1 2 1 2 1 Z " fill="#5098D5" transform="translate(378,725)"/>
<path d="" fill="#53A0E1" transform="translate(0,0)"/>
<path d="M0 0 C2 1 2 1 2 1 Z " fill="#559DDB" transform="translate(192,630)"/>
<path d="M0 0 C2 1 2 1 2 1 Z " fill="#519EE1" transform="translate(395,614)"/>
<path d="M0 0 C2 1 2 1 2 1 Z " fill="#57A4E6" transform="translate(739,607)"/>
<path d="M0 0 C2 1 2 1 2 1 Z " fill="#57A4E4" transform="translate(732,607)"/>
<path d="M0 0 C2 1 2 1 2 1 Z " fill="#54A3E5" transform="translate(696,607)"/>
<path d="M0 0 C2 1 2 1 2 1 Z " fill="#55A4E7" transform="translate(672,607)"/>
<path d="M0 0 C2 1 2 1 2 1 Z " fill="#57A5E3" transform="translate(669,607)"/>
<path d="M0 0 C2 1 2 1 2 1 Z " fill="#56A5E6" transform="translate(656,607)"/>
<path d="M0 0 C2 1 2 1 2 1 Z " fill="#56A3E6" transform="translate(640,607)"/>
<path d="M0 0 C2 1 2 1 2 1 Z " fill="#53A2E7" transform="translate(632,607)"/>
<path d="M0 0 C2 1 2 1 2 1 Z " fill="#54A3E5" transform="translate(616,607)"/>
<path d="M0 0 C2 1 2 1 2 1 Z " fill="#56A2E5" transform="translate(613,607)"/>
<path d="M0 0 C2 1 2 1 2 1 Z " fill="#55A2E5" transform="translate(604,607)"/>
<path d="M0 0 C2 1 2 1 2 1 Z " fill="#4E9DE0" transform="translate(400,583)"/>
<path d="" fill="#58A2E1" transform="translate(0,0)"/>
<path d="" fill="#549CD9" transform="translate(0,0)"/>
<path d="M0 0 C2 1 2 1 2 1 Z " fill="#519EE0" transform="translate(449,559)"/>
<path d="M0 0 C2 1 2 1 2 1 Z " fill="#4A9ADD" transform="translate(200,543)"/>
<path d="M0 0 C2 1 2 1 2 1 Z " fill="#589BD4" transform="translate(144,536)"/>
<path d="" fill="#529EDA" transform="translate(0,0)"/>
<path d="" fill="#569FDF" transform="translate(0,0)"/>
<path d="" fill="#53A0E2" transform="translate(0,0)"/>
<path d="M0 0 C2 1 2 1 2 1 Z " fill="#55A0E0" transform="translate(700,493)"/>
<path d="" fill="#57A2E1" transform="translate(0,0)"/>
<path d="" fill="#59A1E0" transform="translate(0,0)"/>
<path d="" fill="#509CDF" transform="translate(0,0)"/>
<path d="" fill="#4F9FE1" transform="translate(0,0)"/>
<path d="" fill="#579BD4" transform="translate(0,0)"/>
<path d="M0 0 C2 1 2 1 2 1 Z " fill="#4E9DE0" transform="translate(758,346)"/>
<path d="M0 0 C2 1 2 1 2 1 Z " fill="#549FE2" transform="translate(605,344)"/>
<path d="M0 0 C2 1 2 1 2 1 Z " fill="#55A0DE" transform="translate(401,336)"/>
<path d="M0 0 C2 1 2 1 2 1 Z " fill="#519CDE" transform="translate(694,327)"/>
<path d="M0 0 C2 1 2 1 2 1 Z " fill="#529DDE" transform="translate(685,327)"/>
<path d="M0 0 C2 1 2 1 2 1 Z " fill="#539FE0" transform="translate(633,327)"/>
<path d="" fill="#5595CA" transform="translate(0,0)"/>
<path d="" fill="#54A0DC" transform="translate(0,0)"/>
<path d="M0 0 C2 1 2 1 2 1 Z " fill="#569ED9" transform="translate(654,288)"/>
<path d="" fill="#529EDB" transform="translate(0,0)"/>
<path d="M0 0 C2 1 2 1 2 1 Z " fill="#539EE0" transform="translate(588,254)"/>
<path d="" fill="#5797CD" transform="translate(0,0)"/>
<path d="" fill="#5497CE" transform="translate(0,0)"/>
<path d="" fill="#5397CE" transform="translate(0,0)"/>
<path d="" fill="#519AD7" transform="translate(0,0)"/>
<path d="" fill="#5499D5" transform="translate(0,0)"/>
<path d="" fill="#5197D3" transform="translate(0,0)"/>
<path d="" fill="#559AD6" transform="translate(0,0)"/>
<path d="" fill="#5098D5" transform="translate(0,0)"/>
<path d="" fill="#549AD8" transform="translate(0,0)"/>
<path d="" fill="#539AD5" transform="translate(0,0)"/>
<path d="" fill="#559AD7" transform="translate(0,0)"/>
<path d="" fill="#529DDD" transform="translate(0,0)"/>
<path d="" fill="#549AD3" transform="translate(0,0)"/>
<path d="" fill="#549AD5" transform="translate(0,0)"/>
<path d="" fill="#539DDF" transform="translate(0,0)"/>
<path d="" fill="#5299D5" transform="translate(0,0)"/>
<path d="" fill="#539AD6" transform="translate(0,0)"/>
<path d="" fill="#4F96D5" transform="translate(0,0)"/>
<path d="" fill="#559FDE" transform="translate(0,0)"/>
<path d="" fill="#539BD3" transform="translate(0,0)"/>
<path d="" fill="#4F9EDE" transform="translate(0,0)"/>
<path d="" fill="#589ED8" transform="translate(0,0)"/>
<path d="" fill="#4E9DDF" transform="translate(0,0)"/>
<path d="" fill="#539DDA" transform="translate(0,0)"/>
<path d="" fill="#53A2E2" transform="translate(0,0)"/>
<path d="" fill="#58A0DE" transform="translate(0,0)"/>
<path d="" fill="#57A4E4" transform="translate(0,0)"/>
<path d="" fill="#549EE1" transform="translate(0,0)"/>
<path d="" fill="#53A0E0" transform="translate(0,0)"/>
<path d="" fill="#519EDF" transform="translate(0,0)"/>
<path d="" fill="#559FE2" transform="translate(0,0)"/>
<path d="" fill="#559EDF" transform="translate(0,0)"/>
<path d="" fill="#559EDF" transform="translate(0,0)"/>
<path d="" fill="#549AD2" transform="translate(0,0)"/>
<path d="" fill="#53A1DF" transform="translate(0,0)"/>
<path d="" fill="#559EE0" transform="translate(0,0)"/>
<path d="" fill="#559FE0" transform="translate(0,0)"/>
<path d="" fill="#569DD5" transform="translate(0,0)"/>
<path d="" fill="#59A3E1" transform="translate(0,0)"/>
<path d="" fill="#56A3E5" transform="translate(0,0)"/>
<path d="" fill="#57A3E2" transform="translate(0,0)"/>
<path d="" fill="#54A3E6" transform="translate(0,0)"/>
<path d="" fill="#57A5E7" transform="translate(0,0)"/>
<path d="" fill="#55A5E6" transform="translate(0,0)"/>
<path d="" fill="#53A4E7" transform="translate(0,0)"/>
<path d="" fill="#55A3E7" transform="translate(0,0)"/>
<path d="" fill="#57A2E4" transform="translate(0,0)"/>
<path d="" fill="#55A4E6" transform="translate(0,0)"/>
<path d="" fill="#57A5E5" transform="translate(0,0)"/>
<path d="" fill="#56A3E5" transform="translate(0,0)"/>
<path d="" fill="#52A0E7" transform="translate(0,0)"/>
<path d="" fill="#56A2E7" transform="translate(0,0)"/>
<path d="" fill="#53A2E6" transform="translate(0,0)"/>
<path d="" fill="#53A3E5" transform="translate(0,0)"/>
<path d="" fill="#54A3E4" transform="translate(0,0)"/>
<path d="" fill="#509EDC" transform="translate(0,0)"/>
<path d="" fill="#509CE0" transform="translate(0,0)"/>
<path d="" fill="#4F98D7" transform="translate(0,0)"/>
<path d="" fill="#529EE0" transform="translate(0,0)"/>
<path d="" fill="#54A1E1" transform="translate(0,0)"/>
<path d="" fill="#57A0E0" transform="translate(0,0)"/>
<path d="" fill="#579EDD" transform="translate(0,0)"/>
<path d="" fill="#549FE1" transform="translate(0,0)"/>
<path d="" fill="#549FDE" transform="translate(0,0)"/>
<path d="" fill="#52A0DE" transform="translate(0,0)"/>
<path d="" fill="#529FDF" transform="translate(0,0)"/>
<path d="" fill="#55A0E0" transform="translate(0,0)"/>
<path d="" fill="#529FDF" transform="translate(0,0)"/>
<path d="" fill="#53A0E0" transform="translate(0,0)"/>
<path d="" fill="#53A0E0" transform="translate(0,0)"/>
<path d="" fill="#55A1E1" transform="translate(0,0)"/>
<path d="" fill="#519FDE" transform="translate(0,0)"/>
<path d="" fill="#4F9DDD" transform="translate(0,0)"/>
<path d="" fill="#52A0E2" transform="translate(0,0)"/>
<path d="" fill="#529FDE" transform="translate(0,0)"/>
<path d="" fill="#519DDE" transform="translate(0,0)"/>
<path d="" fill="#529FDE" transform="translate(0,0)"/>
<path d="" fill="#539FDE" transform="translate(0,0)"/>
<path d="" fill="#54A0E0" transform="translate(0,0)"/>
<path d="" fill="#4D9ADE" transform="translate(0,0)"/>
<path d="" fill="#4F99DD" transform="translate(0,0)"/>
<path d="" fill="#519EE1" transform="translate(0,0)"/>
<path d="" fill="#59A2E1" transform="translate(0,0)"/>
<path d="" fill="#4B9ADC" transform="translate(0,0)"/>
<path d="" fill="#519EDE" transform="translate(0,0)"/>
<path d="" fill="#54A0DE" transform="translate(0,0)"/>
<path d="" fill="#52A0DE" transform="translate(0,0)"/>
<path d="" fill="#529DDE" transform="translate(0,0)"/>
<path d="" fill="#55A0E2" transform="translate(0,0)"/>
<path d="" fill="#57A0E0" transform="translate(0,0)"/>
<path d="" fill="#52A0E2" transform="translate(0,0)"/>
<path d="" fill="#509EE1" transform="translate(0,0)"/>
<path d="" fill="#52A0E0" transform="translate(0,0)"/>
<path d="" fill="#5B99CB" transform="translate(0,0)"/>
<path d="" fill="#559CDE" transform="translate(0,0)"/>
<path d="" fill="#58A3E0" transform="translate(0,0)"/>
<path d="" fill="#5699CF" transform="translate(0,0)"/>
<path d="" fill="#4A97D7" transform="translate(0,0)"/>
<path d="" fill="#53A0E0" transform="translate(0,0)"/>
<path d="" fill="#55A0DC" transform="translate(0,0)"/>
<path d="" fill="#559FDE" transform="translate(0,0)"/>
<path d="" fill="#56A1E4" transform="translate(0,0)"/>
<path d="" fill="#529FDF" transform="translate(0,0)"/>
<path d="" fill="#549CDF" transform="translate(0,0)"/>
<path d="" fill="#529DDE" transform="translate(0,0)"/>
<path d="" fill="#4E9EDE" transform="translate(0,0)"/>
<path d="" fill="#4F9DE1" transform="translate(0,0)"/>
<path d="" fill="#53A0DE" transform="translate(0,0)"/>
<path d="" fill="#559FDE" transform="translate(0,0)"/>
<path d="" fill="#57A0E1" transform="translate(0,0)"/>
<path d="" fill="#549EE0" transform="translate(0,0)"/>
<path d="" fill="#55A0E3" transform="translate(0,0)"/>
<path d="" fill="#55A0E0" transform="translate(0,0)"/>
<path d="" fill="#559CD9" transform="translate(0,0)"/>
<path d="" fill="#549FE0" transform="translate(0,0)"/>
<path d="" fill="#529FDF" transform="translate(0,0)"/>
<path d="" fill="#58A2E1" transform="translate(0,0)"/>
<path d="" fill="#55A2E3" transform="translate(0,0)"/>
<path d="" fill="#569EDD" transform="translate(0,0)"/>
<path d="" fill="#54A3E0" transform="translate(0,0)"/>
<path d="" fill="#52A0E2" transform="translate(0,0)"/>
<path d="" fill="#4F9FDF" transform="translate(0,0)"/>
<path d="" fill="#55A0E2" transform="translate(0,0)"/>
<path d="" fill="#559FE2" transform="translate(0,0)"/>
<path d="" fill="#519FE1" transform="translate(0,0)"/>
<path d="" fill="#509DE1" transform="translate(0,0)"/>
<path d="" fill="#509DDF" transform="translate(0,0)"/>
<path d="" fill="#529CDF" transform="translate(0,0)"/>
<path d="" fill="#549EDC" transform="translate(0,0)"/>
<path d="" fill="#509BDA" transform="translate(0,0)"/>
<path d="" fill="#54A0E0" transform="translate(0,0)"/>
<path d="" fill="#53A0E1" transform="translate(0,0)"/>
<path d="" fill="#4F9EE1" transform="translate(0,0)"/>
<path d="" fill="#4E9DDF" transform="translate(0,0)"/>
<path d="" fill="#4E9BDF" transform="translate(0,0)"/>
<path d="" fill="#569FDC" transform="translate(0,0)"/>
<path d="" fill="#4E9ADA" transform="translate(0,0)"/>
<path d="" fill="#559FDD" transform="translate(0,0)"/>
<path d="" fill="#59A3E5" transform="translate(0,0)"/>
<path d="" fill="#51A1E3" transform="translate(0,0)"/>
<path d="" fill="#56A0E1" transform="translate(0,0)"/>
<path d="" fill="#549FE0" transform="translate(0,0)"/>
<path d="" fill="#57A1DD" transform="translate(0,0)"/>
<path d="" fill="#529FE0" transform="translate(0,0)"/>
<path d="" fill="#53A0E2" transform="translate(0,0)"/>
<path d="" fill="#4A95D2" transform="translate(0,0)"/>
<path d="" fill="#4E9EE0" transform="translate(0,0)"/>
<path d="" fill="#569FDF" transform="translate(0,0)"/>
<path d="" fill="#539CDB" transform="translate(0,0)"/>
<path d="" fill="#5BA2E1" transform="translate(0,0)"/>
<path d="" fill="#529EDD" transform="translate(0,0)"/>
<path d="" fill="#529CDD" transform="translate(0,0)"/>
<path d="" fill="#519CDC" transform="translate(0,0)"/>
<path d="" fill="#54A0E1" transform="translate(0,0)"/>
<path d="" fill="#539DE0" transform="translate(0,0)"/>
<path d="" fill="#55A0E0" transform="translate(0,0)"/>
<path d="" fill="#559FDD" transform="translate(0,0)"/>
<path d="" fill="#549EDF" transform="translate(0,0)"/>
<path d="" fill="#57A1E0" transform="translate(0,0)"/>
<path d="" fill="#559FDF" transform="translate(0,0)"/>
<path d="" fill="#539FE1" transform="translate(0,0)"/>
<path d="" fill="#53A1E5" transform="translate(0,0)"/>
<path d="" fill="#53A1E4" transform="translate(0,0)"/>
<path d="" fill="#509CDF" transform="translate(0,0)"/>
<path d="" fill="#579EE3" transform="translate(0,0)"/>
<path d="" fill="#519FDE" transform="translate(0,0)"/>
<path d="" fill="#539DDF" transform="translate(0,0)"/>
<path d="" fill="#539EE0" transform="translate(0,0)"/>
<path d="" fill="#52A0E0" transform="translate(0,0)"/>
<path d="" fill="#54A0E1" transform="translate(0,0)"/>
<path d="" fill="#579EDF" transform="translate(0,0)"/>
<path d="" fill="#4E9DDF" transform="translate(0,0)"/>
<path d="" fill="#549FE2" transform="translate(0,0)"/>
<path d="" fill="#539EE1" transform="translate(0,0)"/>
<path d="" fill="#55A1E3" transform="translate(0,0)"/>
<path d="" fill="#54A2E3" transform="translate(0,0)"/>
<path d="" fill="#53A0DF" transform="translate(0,0)"/>
<path d="" fill="#52A0E2" transform="translate(0,0)"/>
<path d="" fill="#519DE1" transform="translate(0,0)"/>
<path d="" fill="#559EDF" transform="translate(0,0)"/>
<path d="" fill="#53A0E1" transform="translate(0,0)"/>
<path d="" fill="#56A2DF" transform="translate(0,0)"/>
<path d="" fill="#529EE1" transform="translate(0,0)"/>
<path d="" fill="#559EDF" transform="translate(0,0)"/>
<path d="" fill="#509FDE" transform="translate(0,0)"/>
<path d="" fill="#519EDF" transform="translate(0,0)"/>
<path d="" fill="#57A1E0" transform="translate(0,0)"/>
<path d="" fill="#589ACE" transform="translate(0,0)"/>
<path d="" fill="#559BD9" transform="translate(0,0)"/>
<path d="" fill="#519CDD" transform="translate(0,0)"/>
<path d="" fill="#539DD8" transform="translate(0,0)"/>
<path d="" fill="#539DD8" transform="translate(0,0)"/>
<path d="" fill="#5699D2" transform="translate(0,0)"/>
<path d="" fill="#579EDE" transform="translate(0,0)"/>
<path d="" fill="#549DE0" transform="translate(0,0)"/>
<path d="" fill="#529EDF" transform="translate(0,0)"/>
<path d="" fill="#56A0E1" transform="translate(0,0)"/>
<path d="" fill="#539DE1" transform="translate(0,0)"/>
<path d="" fill="#529CDD" transform="translate(0,0)"/>
<path d="" fill="#569BD4" transform="translate(0,0)"/>
<path d="" fill="#589AD3" transform="translate(0,0)"/>
<path d="" fill="#529DDE" transform="translate(0,0)"/>
<path d="" fill="#55A0DD" transform="translate(0,0)"/>
<path d="" fill="#559EDA" transform="translate(0,0)"/>
<path d="" fill="#569EDC" transform="translate(0,0)"/>
<path d="" fill="#5A9DD2" transform="translate(0,0)"/>
<path d="" fill="#579BD1" transform="translate(0,0)"/>
<path d="" fill="#569AD0" transform="translate(0,0)"/>
<path d="" fill="#5699D2" transform="translate(0,0)"/>
</svg>
