<?xml version="1.0" encoding="UTF-8"?>
<svg version="1.1" xmlns="http://www.w3.org/2000/svg" width="1024" height="1024">
<path d="M0 0 C15.44024995 14.76324396 24.00614886 33.1642461 24.66796875 54.66015625 C24.01148322 76.98066415 14.83133203 97.2812789 -1.32421875 112.7734375 C-3.40807287 114.64711749 -5.54772537 116.43622893 -7.70703125 118.22265625 C-8.20283691 118.64144043 -8.69864258 119.06022461 -9.20947266 119.49169922 C-19.76449997 128.38328185 -30.9990019 135.93731205 -42.70703125 143.22265625 C-43.50737793 143.72265137 -44.30772461 144.22264648 -45.13232422 144.73779297 C-59.30377792 153.54377926 -73.9307796 161.48391527 -88.70703125 169.22265625 C-89.64804687 169.71652832 -90.5890625 170.21040039 -91.55859375 170.71923828 C-167.31782572 210.22265625 -167.31782572 210.22265625 -197.70703125 210.22265625 C-198.03703125 210.88265625 -198.36703125 211.54265625 -198.70703125 212.22265625 C-200.89794922 212.76538086 -200.89794922 212.76538086 -203.82421875 213.1875 C-204.9131543 213.35233887 -206.00208984 213.51717773 -207.12402344 213.68701172 C-208.30641602 213.86377441 -209.48880859 214.04053711 -210.70703125 214.22265625 C-213.16885328 214.63538319 -215.62977547 215.05350773 -218.08984375 215.4765625 C-220.67056683 215.9127964 -223.25129607 216.34899389 -225.83203125 216.78515625 C-227.12496094 217.00623047 -228.41789063 217.22730469 -229.75 217.45507812 C-231.01714844 217.66841797 -232.28429687 217.88175781 -233.58984375 218.1015625 C-234.71793457 218.29306885 -235.84602539 218.4845752 -237.00830078 218.68188477 C-244.92166315 219.83885491 -252.71635961 220.38025005 -260.7109375 220.390625 C-262.09417458 220.3956176 -262.09417458 220.3956176 -263.50535583 220.40071106 C-265.44570422 220.40573927 -267.38606112 220.40812067 -269.32641602 220.40795898 C-272.23794465 220.41013267 -275.14908563 220.42829765 -278.06054688 220.44726562 C-287.69542985 220.47359576 -297.09452292 220.24765294 -306.62879944 218.74882507 C-308.31207633 218.49838057 -310.01004033 218.35058346 -311.70703125 218.22265625 C-312.36703125 218.88265625 -313.02703125 219.54265625 -313.70703125 220.22265625 C-316.33203125 219.84765625 -316.33203125 219.84765625 -318.70703125 219.22265625 C-318.70703125 218.23265625 -318.70703125 217.24265625 -318.70703125 216.22265625 C-320.269375 215.82046875 -320.269375 215.82046875 -321.86328125 215.41015625 C-341.10330515 210.23920181 -362.19541104 201.12327408 -372.87011719 183.27832031 C-379.70703125 170.97642915 -379.70703125 170.97642915 -379.70703125 165.22265625 C-380.69703125 165.22265625 -381.68703125 165.22265625 -382.70703125 165.22265625 C-383.38441395 127.81607813 -371.76981437 98.2762892 -346.17578125 70.78125 C-345.36109375 69.93691406 -344.54640625 69.09257812 -343.70703125 68.22265625 C-343.18882812 67.68398926 -342.670625 67.14532227 -342.13671875 66.59033203 C-334.7237834 58.92141346 -327.1504193 51.76448807 -318.70703125 45.22265625 C-317.71445312 44.42472656 -316.721875 43.62679687 -315.69921875 42.8046875 C-307.45592518 36.23054879 -298.74130649 30.64153393 -289.70703125 25.22265625 C-289.01561035 24.80483887 -288.32418945 24.38702148 -287.61181641 23.95654297 C-282.67944123 20.98155037 -277.71025291 18.07680393 -272.70703125 15.22265625 C-272.06282227 14.85317871 -271.41861328 14.48370117 -270.75488281 14.10302734 C-226.95933576 -10.7650714 -173.79911334 -26.73707439 -123.70703125 -30.77734375 C-123.04622559 -30.83374023 -122.38541992 -30.89013672 -121.70458984 -30.94824219 C-79.38023053 -34.46573259 -32.60730904 -29.8085383 0 0 Z M-381.70703125 161.22265625 C-380.70703125 164.22265625 -380.70703125 164.22265625 -380.70703125 164.22265625 Z " fill="#DDF8FE" transform="translate(622.70703125,219.77734375)"/>
<path d="M0 0 C0.56114502 0.4638208 1.12229004 0.9276416 1.70043945 1.40551758 C4.49515273 3.79723415 6.62563902 5.83321652 7.9375 9.3125 C8.5975 9.3125 9.2575 9.3125 9.9375 9.3125 C11.76869968 11.65084785 13.46176165 13.98281462 15.125 16.4375 C15.86484131 17.52695923 15.86484131 17.52695923 16.61962891 18.63842773 C37.14521265 49.42680335 41.16122733 87.70664773 34.31835938 123.55615234 C31.97917186 135.06037963 29.37687667 146.38221811 25.70263672 157.53955078 C24.76017411 160.47572164 24.76017411 160.47572164 24.9375 164.3125 C24.2775 164.3125 23.6175 164.3125 22.9375 164.3125 C22.81375 164.88613281 22.69 165.45976563 22.5625 166.05078125 C18.78829255 181.5957982 11.31214894 196.19963353 3.9375 210.3125 C3.42445313 211.30765625 2.91140625 212.3028125 2.3828125 213.328125 C-1.30762054 220.31002536 -5.56910331 226.82381171 -10.0625 233.3125 C-10.4548584 233.88436035 -10.8472168 234.4562207 -11.25146484 235.04541016 C-16.21979654 242.26794717 -21.3274393 249.03134594 -27.34765625 255.421875 C-29.12262733 257.2080419 -29.12262733 257.2080419 -30.0625 259.3125 C-30.7225 259.3125 -31.3825 259.3125 -32.0625 259.3125 C-32.3925 260.3025 -32.7225 261.2925 -33.0625 262.3125 C-33.7225 262.3125 -34.3825 262.3125 -35.0625 262.3125 C-35.29582031 262.88871094 -35.52914062 263.46492188 -35.76953125 264.05859375 C-38.54235471 268.8921863 -43.70924087 271.94678576 -48.0625 275.3125 C-48.91714844 275.98539063 -48.91714844 275.98539063 -49.7890625 276.671875 C-70.40590599 292.83838664 -94.70194206 303.05542137 -121.0625 304.3125 C-122.46242188 304.39177734 -122.46242188 304.39177734 -123.890625 304.47265625 C-155.76892785 305.41265749 -185.95141462 293.57898844 -209.0625 271.875 C-209.61502441 271.34229492 -210.16754883 270.80958984 -210.73681641 270.26074219 C-213.17161957 267.93232491 -214.82252298 266.39249234 -218.0625 265.3125 C-218.75614742 263.65688064 -219.41859407 261.98809165 -220.0625 260.3125 C-221.28065691 258.68829079 -222.55600938 257.105946 -223.875 255.5625 C-227.5732633 251.07608222 -230.4565597 246.49932348 -233.0625 241.3125 C-233.7225 241.3125 -234.3825 241.3125 -235.0625 241.3125 C-235.16949219 240.45269531 -235.27648437 239.59289062 -235.38671875 238.70703125 C-236.10355014 235.10630019 -237.30739296 232.31380223 -238.875 229 C-253.95122663 195.1961317 -248.85044242 156.36524205 -236.06738281 122.83837891 C-234.26653846 118.31176675 -232.26136894 113.90703135 -230.09375 109.54296875 C-228.92261236 107.41949488 -228.92261236 107.41949488 -229.0625 105.3125 C-228.07545278 104.29971286 -227.07361133 103.30126381 -226.0625 102.3125 C-224.6184798 99.82889918 -223.23293067 97.34194997 -221.875 94.8125 C-218.63892588 88.92789055 -215.20111267 83.42976693 -211.140625 78.06640625 C-209.23546762 75.54171461 -207.4122253 72.97173684 -205.60253906 70.37817383 C-199.93016699 62.2768803 -193.73916594 54.65370187 -187.45605469 47.02197266 C-185.76090594 44.94253476 -184.12417632 42.82269765 -182.5 40.6875 C-178.92593178 36.0331089 -175.08067921 31.61418456 -171.23608398 27.18310547 C-170.74052002 26.61092285 -170.24495605 26.03874023 -169.734375 25.44921875 C-169.26580078 24.9082959 -168.79722656 24.36737305 -168.31445312 23.81005859 C-167.26163849 22.55070505 -166.28485201 21.22834661 -165.328125 19.89453125 C-164.91046875 19.37246094 -164.4928125 18.85039062 -164.0625 18.3125 C-163.4025 18.3125 -162.7425 18.3125 -162.0625 18.3125 C-161.82144531 17.74402344 -161.58039063 17.17554688 -161.33203125 16.58984375 C-159.81281912 13.86461092 -157.98831019 12.04559661 -155.75 9.875 C-154.99074219 9.13378906 -154.23148438 8.39257812 -153.44921875 7.62890625 C-152.66160156 6.86449219 -151.87398437 6.10007812 -151.0625 5.3125 C-150.25683594 4.48492187 -149.45117188 3.65734375 -148.62109375 2.8046875 C-108.14168967 -36.62410609 -42.08764605 -34.91591579 0 0 Z " fill="#DCF9FE" transform="translate(797.0625,373.6875)"/>
<path d="M0 0 C1.7398152 1.67626031 3.44767273 3.38621341 5.125 5.125 C10.47265301 10.30288625 15.08773119 11.34479392 22.15454102 12.60522461 C34.1475558 14.79822585 44.40117037 20.26303814 52 30 C53.12381638 31.926169 54.22795381 33.8639493 55.3125 35.8125 C58.64528651 41.3722993 61.88412135 42.5928275 68.01171875 44.1953125 C78.08682973 46.90834892 86.77371014 54.03345061 92 62.9375 C95.73206369 68.6717061 100.76177573 70.8231204 106.71948242 73.74365234 C115.37678604 78.03764455 121.734449 83.68832983 125 93 C126.94204427 99.40103401 127.35153177 105.26585469 127.3125 111.9375 C127.30686035 112.95239502 127.3012207 113.96729004 127.29541016 115.01293945 C126.75104066 149.19233703 112.08256663 181.40732721 90 207 C89.01916819 208.22783835 88.03968616 209.45675825 87.0625 210.6875 C86.381875 211.450625 85.70125 212.21375 85 213 C84.34 213 83.68 213 83 213 C82.73832031 213.59554687 82.47664063 214.19109375 82.20703125 214.8046875 C77.53025709 223.31066509 64.99306685 230.67128876 57 236 C57.14308594 237.19882812 57.14308594 237.19882812 57.2890625 238.421875 C58.52692079 250.68530827 57.71846839 261.51570599 50.08984375 271.5 C35.15088389 289.20543391 11.66843139 292.21343588 -10.20703125 294.46875 C-13.80975004 294.74978548 -17.38752488 294.91151552 -21 295 C-21.69270996 295.02046387 -22.38541992 295.04092773 -23.09912109 295.06201172 C-51.325045 295.81148216 -90.27836439 295.24837251 -112.30078125 274.87109375 C-119.55800151 267.24238873 -123.14927461 259.06127007 -123.125 248.5625 C-123.12757813 247.45003906 -123.13015625 246.33757812 -123.1328125 245.19140625 C-123 242 -123 242 -122.2421875 239.33984375 C-121.70950786 236.85967947 -121.70950786 236.85967947 -123.6796875 234.890625 C-124.82824219 233.95476562 -124.82824219 233.95476562 -126 233 C-126.99386719 232.18789063 -126.99386719 232.18789063 -128.0078125 231.359375 C-128.70648438 230.82828125 -129.40515625 230.2971875 -130.125 229.75 C-130.90875 229.14542969 -131.6925 228.54085937 -132.5 227.91796875 C-134.1848154 226.62539943 -135.8723797 225.33640629 -137.5625 224.05078125 C-143.06463322 219.78159557 -147.58785073 215.36661422 -152 210 C-152.88573059 208.97198063 -153.77394719 207.94610019 -154.6640625 206.921875 C-159.43294973 201.40784914 -163.95616783 196.00509574 -167.68359375 189.70703125 C-169.23185688 187.69934286 -170.68005676 186.96048605 -173 186 C-172.67 185.01 -172.34 184.02 -172 183 C-172.61101739 181.05932903 -172.61101739 181.05932903 -173.6953125 179.04296875 C-174.07921143 178.26743652 -174.46311035 177.4919043 -174.85864258 176.69287109 C-175.27654053 175.86609863 -175.69443848 175.03932617 -176.125 174.1875 C-182.63511931 160.84546363 -187.00190149 147.52620117 -190 133 C-190.22816406 131.92234375 -190.45632812 130.8446875 -190.69140625 129.734375 C-193.17389313 116.19353748 -194.82904295 97.77675458 -187.5234375 85.5234375 C-182.37736668 78.49752346 -176.40882067 73.076983 -168.5625 69.3125 C-162.69324176 66.30075061 -159.764656 62.16379428 -156.03515625 56.8359375 C-150.22270003 48.73643037 -141.6485858 44.42948323 -132.40234375 41.05078125 C-126.71970759 38.9541826 -124.78558163 36.72821918 -122.15625 31.30078125 C-117.20922801 21.456876 -106.96198144 15.3531445 -97.1875 11.03515625 C-93.29863143 9.77222712 -89.47633198 9.24734682 -85.4375 8.6875 C-78.49657741 7.6994089 -74.50378474 5.83277058 -69.25 0.99609375 C-65.5836809 -2.25649142 -61.50668797 -4.15540213 -57 -6 C-56.24074219 -6.3196875 -55.48148438 -6.639375 -54.69921875 -6.96875 C-37.36554906 -12.94015774 -15.22038652 -9.82685358 0 0 Z " fill="#46A0DA" transform="translate(390,483)"/>
<path d="M0 0 C15.44024995 14.76324396 24.00614886 33.1642461 24.66796875 54.66015625 C24.01148322 76.98066415 14.83133203 97.2812789 -1.32421875 112.7734375 C-3.40807287 114.64711749 -5.54772537 116.43622893 -7.70703125 118.22265625 C-8.20283691 118.64144043 -8.69864258 119.06022461 -9.20947266 119.49169922 C-19.76449997 128.38328185 -30.9990019 135.93731205 -42.70703125 143.22265625 C-43.50737793 143.72265137 -44.30772461 144.22264648 -45.13232422 144.73779297 C-59.30377792 153.54377926 -73.9307796 161.48391527 -88.70703125 169.22265625 C-89.64804687 169.71652832 -90.5890625 170.21040039 -91.55859375 170.71923828 C-167.31782572 210.22265625 -167.31782572 210.22265625 -197.70703125 210.22265625 C-198.03703125 210.88265625 -198.36703125 211.54265625 -198.70703125 212.22265625 C-200.89794922 212.76538086 -200.89794922 212.76538086 -203.82421875 213.1875 C-204.9131543 213.35233887 -206.00208984 213.51717773 -207.12402344 213.68701172 C-208.30641602 213.86377441 -209.48880859 214.04053711 -210.70703125 214.22265625 C-213.16885328 214.63538319 -215.62977547 215.05350773 -218.08984375 215.4765625 C-220.67056683 215.9127964 -223.25129607 216.34899389 -225.83203125 216.78515625 C-227.12496094 217.00623047 -228.41789063 217.22730469 -229.75 217.45507812 C-231.01714844 217.66841797 -232.28429687 217.88175781 -233.58984375 218.1015625 C-234.71793457 218.29306885 -235.84602539 218.4845752 -237.00830078 218.68188477 C-244.92166315 219.83885491 -252.71635961 220.38025005 -260.7109375 220.390625 C-262.09417458 220.3956176 -262.09417458 220.3956176 -263.50535583 220.40071106 C-265.44570422 220.40573927 -267.38606112 220.40812067 -269.32641602 220.40795898 C-272.23794465 220.41013267 -275.14908563 220.42829765 -278.06054688 220.44726562 C-287.69542985 220.47359576 -297.09452292 220.24765294 -306.62879944 218.74882507 C-308.31207633 218.49838057 -310.01004033 218.35058346 -311.70703125 218.22265625 C-312.36703125 218.88265625 -313.02703125 219.54265625 -313.70703125 220.22265625 C-316.33203125 219.84765625 -316.33203125 219.84765625 -318.70703125 219.22265625 C-318.70703125 218.23265625 -318.70703125 217.24265625 -318.70703125 216.22265625 C-320.269375 215.82046875 -320.269375 215.82046875 -321.86328125 215.41015625 C-341.10330515 210.23920181 -362.19541104 201.12327408 -372.87011719 183.27832031 C-379.70703125 170.97642915 -379.70703125 170.97642915 -379.70703125 165.22265625 C-380.69703125 165.22265625 -381.68703125 165.22265625 -382.70703125 165.22265625 C-383.38441395 127.81607813 -371.76981437 98.2762892 -346.17578125 70.78125 C-345.36109375 69.93691406 -344.54640625 69.09257812 -343.70703125 68.22265625 C-343.18882812 67.68398926 -342.670625 67.14532227 -342.13671875 66.59033203 C-334.7237834 58.92141346 -327.1504193 51.76448807 -318.70703125 45.22265625 C-317.71445312 44.42472656 -316.721875 43.62679687 -315.69921875 42.8046875 C-307.45592518 36.23054879 -298.74130649 30.64153393 -289.70703125 25.22265625 C-289.01561035 24.80483887 -288.32418945 24.38702148 -287.61181641 23.95654297 C-282.67944123 20.98155037 -277.71025291 18.07680393 -272.70703125 15.22265625 C-272.06282227 14.85317871 -271.41861328 14.48370117 -270.75488281 14.10302734 C-226.95933576 -10.7650714 -173.79911334 -26.73707439 -123.70703125 -30.77734375 C-123.04622559 -30.83374023 -122.38541992 -30.89013672 -121.70458984 -30.94824219 C-79.38023053 -34.46573259 -32.60730904 -29.8085383 0 0 Z M-126.70703125 -7.77734375 C-123.66336058 -5.25680397 -120.42496212 -3.54177547 -116.92041016 -1.77197266 C-95.55383653 9.03622354 -78.2710335 24.74224443 -69.5859375 47.46875 C-68.33264478 51.39573384 -67.26471258 55.07796646 -67.70703125 59.22265625 C-70.50221197 64.62024661 -70.50221197 64.62024661 -73.70703125 66.22265625 C-77.61003494 66.59086415 -79.91514563 66.71503898 -83.2890625 64.6171875 C-86.20352048 61.73097951 -86.92769685 59.51197816 -88.08203125 55.59765625 C-90.344946 48.80891199 -93.1994178 43.74311402 -97.70703125 38.22265625 C-98.36445312 37.39121094 -99.021875 36.55976563 -99.69921875 35.703125 C-115.21483219 17.20373974 -142.44696525 6.07444916 -165.70703125 1.22265625 C-170.52449763 1.02798223 -174.64088751 1.49223937 -179.3046875 2.68359375 C-180.51833984 2.99039063 -181.73199219 3.2971875 -182.98242188 3.61328125 C-184.23216797 3.938125 -185.48191406 4.26296875 -186.76953125 4.59765625 C-188.02314453 4.91476563 -189.27675781 5.231875 -190.56835938 5.55859375 C-196.01832746 6.94933521 -201.38536811 8.39388195 -206.70703125 10.22265625 C-203.580583 13.64660494 -199.85558969 14.98952751 -195.64453125 16.72265625 C-167.3146351 28.91977233 -143.4912421 48.78835696 -131.7421875 77.8828125 C-130.22772194 82.76910704 -129.69759555 87.18433243 -130.70703125 92.22265625 C-132.20703125 94.91015625 -132.20703125 94.91015625 -134.70703125 96.22265625 C-140.12530048 96.99669471 -140.12530048 96.99669471 -142.70703125 96.22265625 C-146.80479764 92.84292747 -148.58545173 89.72160352 -150.39453125 84.78515625 C-160.20044078 60.09316718 -182.37998923 44.93581629 -205.70703125 34.22265625 C-222.88292239 26.17461589 -222.88292239 26.17461589 -241.1015625 26.21875 C-242.22949219 26.69441406 -243.35742188 27.17007813 -244.51953125 27.66015625 C-245.13900635 27.91877441 -245.75848145 28.17739258 -246.39672852 28.44384766 C-254.96071259 32.08125569 -263.33825673 36.16103995 -271.70703125 40.22265625 C-271.70703125 40.88265625 -271.70703125 41.54265625 -271.70703125 42.22265625 C-270.72605469 42.69574219 -269.74507813 43.16882813 -268.734375 43.65625 C-254.63704318 50.52968986 -241.53404344 57.80620514 -229.70703125 68.22265625 C-228.84335937 68.96515625 -227.9796875 69.70765625 -227.08984375 70.47265625 C-213.41500501 82.44333576 -199.36398941 99.63104905 -196.203125 118.1796875 C-196.02872655 122.02207917 -196.28775974 124.45703002 -198.14453125 127.84765625 C-201.85006822 129.83599316 -205.62292481 130.3802991 -209.70703125 129.22265625 C-213.10891306 125.79562189 -214.6885808 122.18988987 -216.39453125 117.72265625 C-228.00852451 89.15963317 -254.56004475 72.70852832 -280.83203125 59.28515625 C-282.12850586 58.58326172 -282.12850586 58.58326172 -283.45117188 57.8671875 C-287.98564449 55.56954753 -287.98564449 55.56954753 -292.90283203 55.72607422 C-295.0019718 56.73280957 -296.81717067 57.86621154 -298.70703125 59.22265625 C-299.66867187 59.86203125 -300.6303125 60.50140625 -301.62109375 61.16015625 C-326.99329263 80.46350064 -355.82361957 105.62266066 -360.70703125 139.22265625 C-361.68729831 152.84997539 -359.76770448 165.43917896 -350.70703125 176.22265625 C-335.00384634 194.10896687 -305.52635066 197.92772441 -283.27246094 199.45898438 C-224.5277923 202.11164446 -164.11499715 181.05050005 -111.70703125 156.22265625 C-110.53398438 155.66707031 -109.3609375 155.11148438 -108.15234375 154.5390625 C-90.38374154 146.04700427 -73.4612404 136.54897192 -56.70703125 126.22265625 C-55.68754395 125.59794434 -54.66805664 124.97323242 -53.61767578 124.32958984 C-30.89204264 110.35397265 -5.0941938 94.3821919 1.54296875 66.59765625 C4.24415467 50.78344049 1.54441076 37.30004507 -7.70703125 24.22265625 C-22.15596468 4.60856671 -46.37601735 -3.81929467 -69.58422852 -7.47851562 C-79.52906757 -8.87845617 -89.42010507 -8.93262504 -99.44262695 -8.90771484 C-102.03147133 -8.90231886 -104.62014501 -8.90770712 -107.20898438 -8.9140625 C-108.87109413 -8.91340225 -110.53320378 -8.91212218 -112.1953125 -8.91015625 C-112.9610408 -8.91218048 -113.7267691 -8.91420471 -114.51570129 -8.91629028 C-118.68444786 -8.89816114 -122.61747619 -8.5920993 -126.70703125 -7.77734375 Z M-381.70703125 161.22265625 C-380.70703125 164.22265625 -380.70703125 164.22265625 -380.70703125 164.22265625 Z " fill="#459FD9" transform="translate(622.70703125,219.77734375)"/>
<path d="M0 0 C4.46672626 2.86784129 8.56349064 6.05958633 11.515625 10.51953125 C13.2282837 13.03443535 14.51944416 14.62045527 17.0625 16.32421875 C20.65293838 16.86822456 24.03615243 17.05156045 27.65429688 17.11279297 C37.71262296 17.29006112 44.38593914 20.61812999 51.734375 27.5390625 C55.27010158 31.76888305 57.38284494 36.3560609 59.58984375 41.3828125 C60.87536046 44.55744856 60.87536046 44.55744856 64.0625 46.32421875 C65.92697577 46.67695741 67.80498009 46.96086352 69.6875 47.19921875 C78.07005542 48.50519659 85.02630717 51.15037625 91.0625 57.32421875 C92.62839318 59.57685462 93.88375466 61.94309797 95.125 64.38671875 C98.21136413 70.42581062 100.97599407 74.13982071 107.47265625 76.6328125 C109.90919641 77.38592491 112.34670167 78.13592193 114.78515625 78.8828125 C118.48311378 80.5092086 119.95644304 81.91024378 122.0625 85.32421875 C122.59375 87.38671875 122.59375 87.38671875 122.5625 89.32421875 C122.57796875 90.28328125 122.57796875 90.28328125 122.59375 91.26171875 C121.78765593 94.39126042 120.31638693 96.02599306 118.0625 98.32421875 C93.98684748 110.89916587 63.02217379 114.65527118 36.4375 118.07421875 C35.09051025 118.24775879 35.09051025 118.24775879 33.71630859 118.42480469 C17.80897785 120.32272375 1.88260219 120.51067922 -14.1184082 120.50952148 C-17.47034583 120.51169948 -20.82194866 120.52990484 -24.17382812 120.54882812 C-42.86177195 120.59802948 -61.62123662 119.8220417 -80.0625 116.57421875 C-81.03928711 116.4050293 -82.01607422 116.23583984 -83.02246094 116.06152344 C-104.29348377 112.20465199 -128.88808428 106.66029109 -145.5 92.07421875 C-147.71803561 87.8310202 -148.02467753 83.98783547 -146.9375 79.32421875 C-144.01195887 75.00600789 -139.74606275 73.23423418 -135.0625 71.32421875 C-129.51801761 68.76199583 -127.17942954 64.55094381 -124.19628906 59.49487305 C-119.71115032 51.99944743 -114.15863672 48.15909348 -105.9375 45.32421875 C-104.21067181 45.01901191 -102.48128289 44.72804908 -100.75 44.44921875 C-97.47815255 43.82648041 -96.19145549 43.54385593 -93.625 41.32421875 C-92.15434274 38.70971695 -90.81977325 36.07889424 -89.5 33.38671875 C-85.35205636 24.95339959 -80.17930035 20.61274876 -71.9375 16.32421875 C-68.74024696 15.25846774 -66.02113201 15.26122214 -62.67895508 15.23754883 C-53.79011693 15.29372704 -53.79011693 15.29372704 -46.25 11.13671875 C-45.11704159 9.89148518 -44.01106829 8.62100421 -42.9375 7.32421875 C-31.73382418 -3.57109902 -14.53410205 -7.19135258 0 0 Z " fill="#DDF8FE" transform="translate(371.9375,497.67578125)"/>
<path d="M0 0 C0.56114502 0.4638208 1.12229004 0.9276416 1.70043945 1.40551758 C4.49515273 3.79723415 6.62563902 5.83321652 7.9375 9.3125 C8.5975 9.3125 9.2575 9.3125 9.9375 9.3125 C11.76869968 11.65084785 13.46176165 13.98281462 15.125 16.4375 C15.86484131 17.52695923 15.86484131 17.52695923 16.61962891 18.63842773 C37.14521265 49.42680335 41.16122733 87.70664773 34.31835938 123.55615234 C31.97917186 135.06037963 29.37687667 146.38221811 25.70263672 157.53955078 C24.76017411 160.47572164 24.76017411 160.47572164 24.9375 164.3125 C24.2775 164.3125 23.6175 164.3125 22.9375 164.3125 C22.81375 164.88613281 22.69 165.45976563 22.5625 166.05078125 C18.78829255 181.5957982 11.31214894 196.19963353 3.9375 210.3125 C3.42445313 211.30765625 2.91140625 212.3028125 2.3828125 213.328125 C-1.30762054 220.31002536 -5.56910331 226.82381171 -10.0625 233.3125 C-10.4548584 233.88436035 -10.8472168 234.4562207 -11.25146484 235.04541016 C-16.21979654 242.26794717 -21.3274393 249.03134594 -27.34765625 255.421875 C-29.12262733 257.2080419 -29.12262733 257.2080419 -30.0625 259.3125 C-30.7225 259.3125 -31.3825 259.3125 -32.0625 259.3125 C-32.3925 260.3025 -32.7225 261.2925 -33.0625 262.3125 C-33.7225 262.3125 -34.3825 262.3125 -35.0625 262.3125 C-35.29582031 262.88871094 -35.52914062 263.46492188 -35.76953125 264.05859375 C-38.54235471 268.8921863 -43.70924087 271.94678576 -48.0625 275.3125 C-48.91714844 275.98539063 -48.91714844 275.98539063 -49.7890625 276.671875 C-70.40590599 292.83838664 -94.70194206 303.05542137 -121.0625 304.3125 C-122.46242188 304.39177734 -122.46242188 304.39177734 -123.890625 304.47265625 C-155.76892785 305.41265749 -185.95141462 293.57898844 -209.0625 271.875 C-209.61502441 271.34229492 -210.16754883 270.80958984 -210.73681641 270.26074219 C-213.17161957 267.93232491 -214.82252298 266.39249234 -218.0625 265.3125 C-218.75614742 263.65688064 -219.41859407 261.98809165 -220.0625 260.3125 C-221.28065691 258.68829079 -222.55600938 257.105946 -223.875 255.5625 C-227.5732633 251.07608222 -230.4565597 246.49932348 -233.0625 241.3125 C-233.7225 241.3125 -234.3825 241.3125 -235.0625 241.3125 C-235.16949219 240.45269531 -235.27648437 239.59289062 -235.38671875 238.70703125 C-236.10355014 235.10630019 -237.30739296 232.31380223 -238.875 229 C-253.95122663 195.1961317 -248.85044242 156.36524205 -236.06738281 122.83837891 C-234.26653846 118.31176675 -232.26136894 113.90703135 -230.09375 109.54296875 C-228.92261236 107.41949488 -228.92261236 107.41949488 -229.0625 105.3125 C-228.07545278 104.29971286 -227.07361133 103.30126381 -226.0625 102.3125 C-224.6184798 99.82889918 -223.23293067 97.34194997 -221.875 94.8125 C-218.63892588 88.92789055 -215.20111267 83.42976693 -211.140625 78.06640625 C-209.23546762 75.54171461 -207.4122253 72.97173684 -205.60253906 70.37817383 C-199.93016699 62.2768803 -193.73916594 54.65370187 -187.45605469 47.02197266 C-185.76090594 44.94253476 -184.12417632 42.82269765 -182.5 40.6875 C-178.92593178 36.0331089 -175.08067921 31.61418456 -171.23608398 27.18310547 C-170.74052002 26.61092285 -170.24495605 26.03874023 -169.734375 25.44921875 C-169.26580078 24.9082959 -168.79722656 24.36737305 -168.31445312 23.81005859 C-167.26163849 22.55070505 -166.28485201 21.22834661 -165.328125 19.89453125 C-164.91046875 19.37246094 -164.4928125 18.85039062 -164.0625 18.3125 C-163.4025 18.3125 -162.7425 18.3125 -162.0625 18.3125 C-161.82144531 17.74402344 -161.58039063 17.17554688 -161.33203125 16.58984375 C-159.81281912 13.86461092 -157.98831019 12.04559661 -155.75 9.875 C-154.99074219 9.13378906 -154.23148438 8.39257812 -153.44921875 7.62890625 C-152.66160156 6.86449219 -151.87398437 6.10007812 -151.0625 5.3125 C-150.25683594 4.48492187 -149.45117188 3.65734375 -148.62109375 2.8046875 C-108.14168967 -36.62410609 -42.08764605 -34.91591579 0 0 Z M-103.0625 0.3125 C-104.25617188 0.73660156 -105.44984375 1.16070312 -106.6796875 1.59765625 C-130.20178589 10.83664238 -146.6755816 30.24040601 -161.91015625 49.59765625 C-164.17510579 52.45453453 -166.48006569 55.27576109 -168.78979492 58.09643555 C-174.73955109 65.37119094 -180.5159587 72.72354999 -186.0625 80.3125 C-187.22652344 81.87097656 -187.22652344 81.87097656 -188.4140625 83.4609375 C-201.32943933 100.93377077 -212.3198642 119.83969624 -219.375 140.4375 C-219.60558105 141.10475098 -219.83616211 141.77200195 -220.07373047 142.45947266 C-224.07439003 154.79067535 -225.57791702 166.83082752 -225.4375 179.75 C-225.43052094 180.76406418 -225.43052094 180.76406418 -225.42340088 181.7986145 C-225.19228906 210.49330598 -216.20689463 233.9205552 -196.0625 254.3125 C-195.48113281 254.96605469 -194.89976562 255.61960937 -194.30078125 256.29296875 C-179.99472449 272.04044181 -155.35363611 281.28312097 -134.5637207 282.453125 C-104.02083243 283.5656972 -77.65453966 274.26576057 -55.00097656 253.41503906 C-45.82212122 244.72944957 -37.18532623 235.78707779 -30.0625 225.3125 C-29.60069336 224.63558105 -29.13888672 223.95866211 -28.66308594 223.26123047 C-7.48377947 191.81295809 5.51437048 156.4869285 12.546875 119.36279297 C12.88788795 117.57290123 13.25430279 115.78788659 13.625 114.00390625 C18.54623636 86.629529 15.57318994 55.82745553 0.0625 32.23828125 C-14.00420394 12.87070542 -33.85843109 1.24554542 -57.21630859 -3.27294922 C-72.32145856 -5.47303025 -88.65715127 -4.85989031 -103.0625 0.3125 Z " fill="#46A0D9" transform="translate(797.0625,373.6875)"/>
<path d="M0 0 C0.84175781 0.47308594 1.68351563 0.94617188 2.55078125 1.43359375 C37.75044357 20.4738764 80.59334423 27.12549869 120.23828125 27.16796875 C121.36155319 27.17129715 122.48482513 27.17462555 123.64213562 27.17805481 C126.00596716 27.18308051 128.3698057 27.1854645 130.73364258 27.18530273 C134.26591375 27.1874714 137.79786269 27.2056256 141.33007812 27.22460938 C156.32151274 27.26215299 171.08948647 26.5454719 186 25 C186.72923676 24.92665436 187.45847351 24.85330872 188.20980835 24.77774048 C213.44913146 22.21003479 237.86391317 16.92874114 261.76708984 8.40136719 C262.69344238 8.07297852 263.61979492 7.74458984 264.57421875 7.40625 C265.78984497 6.96249023 265.78984497 6.96249023 267.0300293 6.50976562 C269 6 269 6 271 7 C261.42086547 42.66792951 241.85757346 72.8397941 209.95703125 92.31640625 C174.46175678 112.52573689 133.04480615 116.33683913 93.625 105.75 C73.18927645 99.83155542 54.5601316 89.49359278 39 75 C38.05640625 74.13761719 37.1128125 73.27523437 36.140625 72.38671875 C16.50484443 53.66616524 4.52860023 29.65615094 0 3 C0 2.01 0 1.02 0 0 Z " fill="#DDF8FE" transform="translate(222,611)"/>
<path d="M0 0 C1.155 0.391875 2.31 0.78375 3.5 1.1875 C4.33402344 1.46078125 5.16804688 1.7340625 6.02734375 2.015625 C8.13114246 2.7122837 10.22687492 3.43352471 12.31640625 4.171875 C48.88075766 16.52521166 90.39130524 15.53445429 126.86962891 3.67919922 C129.8943166 2.71487637 132.94229014 1.85321944 136 1 C135.59820089 6.82608707 134.95017978 10.44210025 131 15 C125.70275139 19.04759749 120.29937941 21.13476378 113.875 22.6875 C113.1221875 22.88666016 112.369375 23.08582031 111.59375 23.29101562 C97.75320382 26.79713405 84.19014252 27.37010654 70 27.3125 C69.09502777 27.31100952 68.19005554 27.30951904 67.25765991 27.3079834 C18.30196643 27.16295675 18.30196643 27.16295675 3.4453125 14.6953125 C-0.3584884 10.71958839 -0.82448497 7.2654509 -1 2 C-0.67 1.34 -0.34 0.68 0 0 Z " fill="#E0F8FD" transform="translate(290,729)"/>
<path d="M0 0 C5.42802483 3.56008106 9.73430122 6.9377469 11.9296875 13.265625 C12.45697136 17.55922212 12.4350879 19.49067772 10.0546875 23.140625 C7.40749512 25.78781738 6.47324982 26.19101841 2.7421875 26.703125 C-1.82408795 26.17912618 -3.32035121 24.81056338 -6.4921875 21.67578125 C-9.50408066 18.98446088 -12.65835594 19.10424072 -16.5078125 19.078125 C-17.45527344 19.06394531 -18.40273438 19.04976562 -19.37890625 19.03515625 C-22.1521495 19.27263281 -23.66776484 19.93655608 -26.0703125 21.265625 C-30.13102873 21.87041252 -31.57120677 21.62367911 -34.9453125 19.203125 C-37.0703125 16.265625 -37.0703125 16.265625 -37.8203125 12.953125 C-36.60227957 6.96446309 -32.99281385 3.63683632 -28.3515625 -0.12890625 C-20.32592604 -5.10972887 -8.13218589 -4.35762414 0 0 Z " fill="#419DDA" transform="translate(422.0703125,553.734375)"/>
<path d="M0 0 C3.990956 2.43185642 7.38759682 5.2464457 9.5625 9.4375 C10.55100369 14.30397968 10.25890601 18.07254421 8 22.5 C4.7346599 25.09552675 2.72512462 25.50926939 -1.4375 25.4375 C-3.4508653 24.12443567 -5.44981606 22.78912508 -7.4375 21.4375 C-10.5026932 20.45961187 -13.23338499 20.08330361 -16.4375 20.4375 C-18.62092643 21.57369042 -20.52148057 22.9082471 -22.5234375 24.3359375 C-24.4375 25.4375 -24.4375 25.4375 -28.1875 25.5625 C-32.15049202 24.19069507 -33.43858979 23.11549479 -35.4375 19.4375 C-36.11485687 15.84750857 -36.06797042 13.59048357 -34.296875 10.3515625 C-26.67063173 -0.44559244 -12.60256673 -5.65779971 0 0 Z " fill="#429DDA" transform="translate(311.4375,555.5625)"/>
<path d="M0 0 C5.50306276 3.06634255 8.79034695 6.00528102 11.06640625 11.90234375 C11.66470506 16.24001009 11.59449097 18.09261384 9.19140625 21.77734375 C6.70738011 24.26136989 5.79061424 24.82004739 2.31640625 25.21484375 C-0.93359375 24.90234375 -0.93359375 24.90234375 -3.55859375 22.96484375 C-7.21396014 20.73100873 -8.81840468 20.62847417 -12.99609375 20.46484375 C-17.02271541 20.22974907 -18.67563905 20.0610851 -22.18359375 17.90234375 C-24.570998 13.80965075 -24.84931115 10.53133721 -23.93359375 5.90234375 C-18.8522299 -2.62708843 -8.80460423 -3.29439918 0 0 Z " fill="#419DDA" transform="translate(355.93359375,530.09765625)"/>
<path d="M0 0 C4.31455798 2.28417775 7.13452098 4.43994016 9 9 C9.72227202 15.39726642 8.757749 18.78090416 5 24 C0.85999785 26.58966662 -3.25077854 26.81485775 -8 26 C-11.14933291 24.32878951 -13.26672972 21.99991402 -15.375 19.125 C-16.73624093 14.49678083 -16.54963256 10.53583834 -14.375 6.25 C-11.02403802 0.99937295 -6.10907741 -0.89090712 0 0 Z " fill="#449FDA" transform="translate(641,568)"/>
<path d="M0 0 C3.46868763 2.06645221 5.80891972 4.10191909 7 8 C7.47235231 12.88097387 7.52269768 15.02670088 5.1875 19.375 C2.89735405 22.12317514 1.31161645 23.80881523 -2.3046875 24.3359375 C-6.49383423 24.39960234 -9.25934414 24.40118859 -13 22.375 C-16.24727107 18.5188656 -17.02704136 15.51431638 -16.9375 10.5 C-15.75496902 6.08521768 -14.17240343 4.24977912 -11 1 C-7.53749757 -0.73125121 -3.78591771 -0.47815224 0 0 Z " fill="#3F9BD9" transform="translate(728,418)"/>
<path d="M0 0 C3.70390021 2.02666238 5.65363011 3.48044516 8 7 C8.70735222 11.77873998 8.82219066 16.41607257 6.125 20.5625 C3.8909267 23.12511349 3.10945701 23.88021792 -0.20703125 24.23828125 C-7.24770268 24.43884011 -7.24770268 24.43884011 -11 22.25 C-14.59659749 18.20382782 -15.4153251 15.51999407 -15.25 9.9609375 C-14.72999704 5.88216431 -12.86871913 3.69980152 -9.75 1.1875 C-6.1888795 -0.35025658 -3.85081154 -0.47290668 0 0 Z " fill="#3F9BD9" transform="translate(755,504)"/>
<path d="M0 0 C3.02508145 1.73602105 5.41790069 3.83580137 7 7 C7.53118173 10.79415519 7.85089348 14.46331178 5.953125 17.890625 C2.84487712 21.65709007 1.08299008 22.89170099 -3.75 23.375 C-7.10058068 23.35058775 -8.84894532 22.75601354 -11.4375 20.625 C-15.14829142 16.82370147 -15.39257459 14.47406195 -15.359375 9.328125 C-14.75455722 5.40995764 -12.83123243 3.69641184 -10 1 C-6.77140153 -0.61429923 -3.49006347 -0.59570657 0 0 Z " fill="#409DDA" transform="translate(652,472)"/>
<path d="M0 0 C0.33 0 0.66 0 1 0 C0.84194205 8.53512924 -3.15983606 13.82196756 -8.8203125 19.98046875 C-29.31637602 39.40456242 -65.81707336 39.71281846 -92.30078125 39.10205078 C-97.37766856 38.91010624 -102.43696321 38.53938545 -107.5 38.125 C-108.49773437 38.04660889 -109.49546875 37.96821777 -110.5234375 37.88745117 C-111.45414062 37.80342041 -112.38484375 37.71938965 -113.34375 37.6328125 C-114.17068359 37.55949707 -114.99761719 37.48618164 -115.84960938 37.41064453 C-118 37 -118 37 -121 35 C-111.43 35 -101.86 35 -92 35 C-92 35.33 -92 35.66 -92 36 C-64.70897457 36.47859616 -31.03146146 36.74476494 -9.2890625 17.484375 C-4.54193135 12.52036984 -2.35837024 6.35507734 0 0 Z " fill="#3F89B8" transform="translate(445,739)"/>
<path d="M0 0 C3.31436328 1.39288974 4.94091339 2.88613506 7 5.8125 C7.99572535 7.21138589 8.99604318 8.60700991 10 10 C10.56203125 10.83273437 11.1240625 11.66546875 11.703125 12.5234375 C14.68162508 15.73494949 17.7941689 17.06206758 21.75 18.8125 C30.55631956 22.97577579 36.92146897 27.77017804 41.2109375 36.75 C43.72791718 43.92713016 44.3542815 50.37441534 44.3125 57.9375 C44.30839111 59.44026489 44.30839111 59.44026489 44.30419922 60.97338867 C43.98491474 84.01508526 43.98491474 84.01508526 39 89 C39.14447983 87.49986903 39.29067215 85.99990298 39.4375 84.5 C39.51871094 83.6646875 39.59992187 82.829375 39.68359375 81.96875 C39.91536165 79.79413759 40.20032853 77.62501782 40.515625 75.4609375 C41.23829141 69.69864167 41.26278269 63.92535339 41.3125 58.125 C41.34150391 57.00480469 41.37050781 55.88460937 41.40039062 54.73046875 C41.47971298 44.27212087 38.81500327 35.38641978 31.6484375 27.515625 C27.96920448 23.99951069 24.17493911 22.11090984 19.5 20.125 C13.29168084 17.40130442 9.97463584 14.37196875 6 9 C4.86173124 7.7016622 3.71624258 6.4096069 2.5625 5.125 C0 2.24804178 0 2.24804178 0 0 Z " fill="#408DBD" transform="translate(473,537)"/>
<path d="M0 0 C2.95746968 2.75988011 4.98229392 5.44329546 7 8.9375 C14.5766109 21.08928065 28.13740478 37.37913493 42 42 C42.41507812 42.43183594 42.83015625 42.86367188 43.2578125 43.30859375 C45.79500471 45.77183192 48.81192622 47.34628715 51.875 49.0625 C52.48730469 49.41376953 53.09960938 49.76503906 53.73046875 50.12695312 C57.07445039 52.02092131 60.39128671 53.67589037 64 55 C62.43359375 55.7109375 62.43359375 55.7109375 60 56 C57.54162109 54.97841362 55.36791308 53.92258544 53.0625 52.625 C52.40080811 52.25995361 51.73911621 51.89490723 51.05737305 51.51879883 C39.4882998 45.0156046 29.52979035 37.17683515 20 28 C19.36707031 27.43023438 18.73414063 26.86046875 18.08203125 26.2734375 C13.91896319 22.41691365 10.57235198 17.97106731 7.1875 13.4375 C6.70659912 12.79973633 6.22569824 12.16197266 5.73022461 11.50488281 C3.02131715 7.79294356 1.20075534 4.50456773 0 0 Z " fill="#EFF8FC" transform="translate(237,654)"/>
<path d="M0 0 C0.33 0 0.66 0 1 0 C1.02578125 1.05058594 1.0515625 2.10117187 1.078125 3.18359375 C1.36034225 11.13018758 1.62552655 18.11053876 6 25 C6.47308594 25.75667969 6.94617188 26.51335938 7.43359375 27.29296875 C17.96485806 42.37010254 36.96612153 45.82127783 54 49 C54 49.33 54 49.66 54 50 C47.46967911 50.31132925 42.00730549 49.26581533 35.75 47.4375 C34.82558105 47.1686499 33.90116211 46.8997998 32.94873047 46.62280273 C21.43360666 43.11051835 10.51099955 37.7917265 4.28125 27.03125 C0.70896721 20.08888911 -1.14251124 15.13127009 -1.125 7.3125 C-1.12757813 6.15363281 -1.13015625 4.99476563 -1.1328125 3.80078125 C-1 1 -1 1 0 0 Z " fill="#3D85B3" transform="translate(268,724)"/>
<path d="M0 0 C5.19960897 1.49142389 9.51441876 3.81353397 14.125 6.5625 C15.24878052 7.23176514 15.24878052 7.23176514 16.39526367 7.91455078 C30.34784209 16.34793669 46.57834943 27.89880366 54 43 C53.67 43.99 53.34 44.98 53 46 C52.52691406 45.32195312 52.05382812 44.64390625 51.56640625 43.9453125 C37.94114379 24.76901718 22.05567347 13.55335336 1.79736328 2.13232422 C1.2042334 1.75865723 0.61110352 1.38499023 0 1 C0 0.67 0 0.34 0 0 Z " fill="#EFF9FB" transform="translate(430,236)"/>
<path d="M0 0 C0 3 0 3 -1.3125 4.5 C-1.869375 4.995 -2.42625 5.49 -3 6 C-3.45375 6.495 -3.9075 6.99 -4.375 7.5 C-6 9 -6 9 -8.328125 10.33203125 C-16.28023057 15.29628429 -22.41259177 23.57421967 -28.42138672 30.68115234 C-29.48556665 31.9393595 -30.55111435 33.19641088 -31.61791992 34.45239258 C-32.69068276 35.71611843 -33.7599687 36.98280555 -34.82543945 38.25268555 C-37.09407271 40.9260238 -39.06480054 43.04320036 -42 45 C-40.30404849 40.90563187 -37.43542593 37.80367754 -34.5625 34.5 C-33.58361102 33.36546639 -32.60572019 32.23007067 -31.62890625 31.09375 C-31.17016113 30.56265625 -30.71141602 30.0315625 -30.23876953 29.484375 C-29.19448967 28.23305029 -28.22608507 26.91897597 -27.27734375 25.59375 C-26.85582031 25.0678125 -26.43429687 24.541875 -26 24 C-25.34 24 -24.68 24 -24 24 C-23.75894531 23.43152344 -23.51789062 22.86304688 -23.26953125 22.27734375 C-21.75031912 19.55211092 -19.92581019 17.73309661 -17.6875 15.5625 C-16.87796875 14.77359375 -16.0684375 13.9846875 -15.234375 13.171875 C-14.12835937 12.09679687 -14.12835937 12.09679687 -13 11 C-12.154375 10.113125 -11.30875 9.22625 -10.4375 8.3125 C-7.18367941 5.225542 -3.63224659 2.62278848 0 0 Z " fill="#3F8CBC" transform="translate(659,368)"/>
<path d="M0 0 C5.4937057 1.46154925 9.50822372 4.10901604 14.0625 7.375 C14.8054834 7.90375732 15.5484668 8.43251465 16.31396484 8.97729492 C23.40928102 14.12638459 29.73926391 19.88236645 36 26 C36.69609375 26.63421875 37.3921875 27.2684375 38.109375 27.921875 C43.12555562 32.58292778 46.51450331 38.14139919 50 44 C49.01 44.495 49.01 44.495 48 45 C47.59910156 44.39414062 47.19820313 43.78828125 46.78515625 43.1640625 C35.43162356 26.42983064 20.97636437 14.69602967 4.18164062 3.82275391 C2.77220596 2.90529951 1.38355863 1.95603042 0 1 C0 0.67 0 0.34 0 0 Z " fill="#F0F9FC" transform="translate(368,269)"/>
<path d="M0 0 C1.48330811 -0.00821777 1.48330811 -0.00821777 2.99658203 -0.01660156 C10.1805491 0.0555491 10.1805491 0.0555491 12.4375 2.3125 C11.36604736 2.31866333 11.36604736 2.31866333 10.27294922 2.32495117 C-7.16013519 2.50048972 -21.67342805 2.66576015 -35.5625 14.3125 C-37.21071244 15.34263277 -38.86846166 16.35960343 -40.5625 17.3125 C-37.50280661 10.14230943 -29.50697125 6.15859478 -22.5625 3.3125 C-21.84449219 3.01214844 -21.12648438 2.71179688 -20.38671875 2.40234375 C-13.67388618 0.10049526 -7.0243428 0.02937637 0 0 Z " fill="#4190C2" transform="translate(355.5625,473.6875)"/>
<path d="M0 0 C1.52367187 0.77923828 1.52367187 0.77923828 3.078125 1.57421875 C11.26767061 5.73284766 19.44826414 9.63113436 28 13 C23.92266756 14.35911081 21.45368925 12.84578087 17.6875 11.25 C17.03587891 10.98445312 16.38425781 10.71890625 15.71289062 10.4453125 C11.69425675 8.78797801 7.90919743 6.95459872 4 5 C4.33 9.62 4.66 14.24 5 19 C2.2574117 16.2574117 2.14687766 13.84002249 1.375 10.0625 C1.11460937 8.81597656 0.85421875 7.56945312 0.5859375 6.28515625 C0 3 0 3 0 0 Z " fill="#ECF8FC" transform="translate(222,611)"/>
<path d="M0 0 C5.87745082 5.87745082 4.18091958 21.73112512 4.1875 29.625 C4.1887085 31.02830566 4.1887085 31.02830566 4.18994141 32.45996094 C4.15240155 37.07986531 3.94342125 41.45648327 3 46 C2.67 46 2.34 46 2 46 C1.97494385 45.14245117 1.9498877 44.28490234 1.92407227 43.40136719 C1.82876588 40.2106563 1.72954249 37.02009781 1.62768555 33.82958984 C1.5844545 32.45040622 1.54277134 31.07117315 1.50268555 29.69189453 C1.44469597 27.70593062 1.38062277 25.72014731 1.31640625 23.734375 C1.26141968 21.94338379 1.26141968 21.94338379 1.20532227 20.11621094 C1.03663458 17.55600921 0.66941454 15.45183156 0 13 C-0.06790675 10.75092848 -0.08499984 8.49998395 -0.0625 6.25 C-0.05347656 5.07953125 -0.04445313 3.9090625 -0.03515625 2.703125 C-0.02355469 1.81109375 -0.01195312 0.9190625 0 0 Z " fill="#418BBB" transform="translate(830,435)"/>
<path d="M0 0 C-0.88042969 0.45890625 -1.76085937 0.9178125 -2.66796875 1.390625 C-3.82941406 2.00421875 -4.99085938 2.6178125 -6.1875 3.25 C-7.33605469 3.85328125 -8.48460937 4.4565625 -9.66796875 5.078125 C-15.51713197 8.45185103 -18.67305191 11.70775907 -22.25 17.4375 C-25.9004039 23.02929392 -29.58500879 26.78933707 -36 29 C-36.66 29 -37.32 29 -38 29 C-38 28.34 -38 27.68 -38 27 C-37.45472656 26.77828125 -36.90945312 26.5565625 -36.34765625 26.328125 C-29.64865896 23.16757243 -26.34851751 18.84383038 -22.11328125 12.875 C-17.68614925 6.8521365 -7.94226117 -2.64742039 0 0 Z " fill="#418CBC" transform="translate(256,527)"/>
<path d="M0 0 C3.31460693 1.10486898 3.96976106 1.87623086 6.125 4.5 C12.78892889 12.28612898 19.66665659 18.77941429 28.12719727 24.55029297 C31.40849286 26.7956571 34.29484022 29.0810992 37 32 C36.34 33.32 35.68 34.64 35 36 C34.690625 35.13375 34.38125 34.2675 34.0625 33.375 C31.65963801 29.44304402 29.382136 28.08303292 25.54296875 25.703125 C19.05063976 21.35495996 13.43607717 15.58299817 8 10 C7.10087891 9.13375 7.10087891 9.13375 6.18359375 8.25 C5.54550781 7.63125 4.90742188 7.0125 4.25 6.375 C3.65703125 5.80523438 3.0640625 5.23546875 2.453125 4.6484375 C1 3 1 3 0 0 Z " fill="#3E86B5" transform="translate(234,687)"/>
<path d="M0 0 C10.98899823 -0.84530756 21.23500245 3.5625144 30 10 C34.29684945 13.72588819 38.66984444 17.71831406 41 23 C40.67 23.66 40.34 24.32 40 25 C39.55011719 24.3709375 39.10023438 23.741875 38.63671875 23.09375 C30.71765275 12.55615516 20.70778364 4.55892732 7.34375 2.61328125 C6.5290625 2.53464844 5.714375 2.45601563 4.875 2.375 C2.956875 2.189375 2.956875 2.189375 1 2 C0.67 1.34 0.34 0.68 0 0 Z " fill="#408DBF" transform="translate(404,495)"/>
<path d="M0 0 C0.99 0.33 1.98 0.66 3 1 C2.29875 1.4125 1.5975 1.825 0.875 2.25 C-8.09331952 7.7089771 -17.40137172 14.37735703 -20.9375 24.75 C-22 27 -22 27 -24.4375 28.375 C-27 29 -27 29 -30 28 C-28.948125 27.525625 -27.89625 27.05125 -26.8125 26.5625 C-22.7310091 24.25129431 -21.30248821 21.39236387 -19.2265625 17.30078125 C-15.06073035 9.48652923 -7.84252373 3.92126186 0 0 Z " fill="#428EBE" transform="translate(287,497)"/>
<path d="M0 0 C12.64455611 4.4323444 22.79174288 16.54804547 29 28 C29.6953125 30.33203125 29.6953125 30.33203125 30 32 C27.21765598 29.53869568 25.2365103 26.91710079 23.25 23.8125 C17.48955884 15.05720261 10.80522791 8.78194465 2.34375 2.75 C1.5703125 2.1725 0.796875 1.595 0 1 C0 0.67 0 0.34 0 0 Z " fill="#EDF8FB" transform="translate(771,383)"/>
<path d="M0 0 C4.31455798 2.28417775 7.13452098 4.43994016 9 9 C9.61649212 13.21269613 9.41821808 16.16356384 7.5 20 C7.005 20.66 6.51 21.32 6 22 C4.94041377 18.72285117 5.14878157 16.42621343 5.75 13.0625 C6.15092851 9.29265829 6.17020019 8.30392891 4.25 4.875 C-0.45474307 2.16072515 -4.69242117 2.58171445 -10 3 C-8.05303611 -0.89392779 -3.85994324 -0.37842581 0 0 Z " fill="#2789D1" transform="translate(641,568)"/>
<path d="M0 0 C9.38110218 1.06488187 18.00043179 11.13074649 24 18 C26.45058313 21.2596497 28.76399947 24.59009919 31 28 C30.34 28.66 29.68 29.32 29 30 C28.67128906 29.46632813 28.34257812 28.93265625 28.00390625 28.3828125 C21.14876001 17.64494116 13.21096824 10.01522843 2.74609375 2.93359375 C1.83988281 2.29550781 0.93367188 1.65742188 0 1 C0 0.67 0 0.34 0 0 Z " fill="#F1FAFC" transform="translate(436,266)"/>
<path d="M0 0 C15.51 0 31.02 0 47 0 C41.76574204 2.61712898 38.1963996 3.10661808 32.48046875 2.9140625 C31.37618279 2.88220352 31.37618279 2.88220352 30.24958801 2.84970093 C28.6919466 2.80346874 27.13438315 2.75454285 25.5769043 2.703125 C23.20702566 2.62563842 20.83701832 2.55825295 18.46679688 2.4921875 C16.95050221 2.44591887 15.43422533 2.39906271 13.91796875 2.3515625 C13.21463913 2.33171295 12.51130951 2.3118634 11.78666687 2.29141235 C7.78003441 2.15295486 3.93780652 1.7514107 0 1 C0 0.67 0 0.34 0 0 Z " fill="#107ACC" transform="translate(336,721)"/>
<path d="M0 0 C0.66 0.33 1.32 0.66 2 1 C-0.56179613 5.83894825 -3.10923814 9.10923814 -7 13 C-8.0358679 14.98166034 -9.03112419 16.98473831 -10 19 C-11.93614452 22.04393856 -13.95802362 25.02624799 -16 28 C-16.33 27.01 -16.66 26.02 -17 25 C-15.58972902 22.3408026 -14.13792147 19.88813347 -12.5 17.375 C-12.04383301 16.66021484 -11.58766602 15.94542969 -11.11767578 15.20898438 C-7.69606242 9.91022757 -4.05638734 4.83542862 0 0 Z " fill="#EFF8FB" transform="translate(610,456)"/>
<path d="M0 0 C0.66 0.33 1.32 0.66 2 1 C1.01 4.63 0.02 8.26 -1 12 C-1.66 12 -2.32 12 -3 12 C-2.34 9.03 -1.68 6.06 -1 3 C-1.89203125 3.37253906 -2.7840625 3.74507812 -3.703125 4.12890625 C-5.45882813 4.83853516 -5.45882813 4.83853516 -7.25 5.5625 C-8.99023438 6.27599609 -8.99023438 6.27599609 -10.765625 7.00390625 C-13.86266644 7.95770524 -15.07321701 8.20983356 -18 7 C-14.67083905 5.65605593 -11.3360151 4.32682419 -8 3 C-7.21625 2.6803125 -6.4325 2.360625 -5.625 2.03125 C-3.77220285 1.29558054 -1.88780788 0.64050624 0 0 Z " fill="#EDF7FC" transform="translate(491,617)"/>
<path d="M0 0 C-5.91555998 2.67337807 -11.91056161 4.64433934 -18.1875 6.25 C-18.85201172 6.42499023 -19.51652344 6.59998047 -20.20117188 6.78027344 C-24.54724177 7.85276437 -28.53370196 8.16220019 -33 8 C-32.34 7.01 -31.68 6.02 -31 5 C-28.03 5.495 -28.03 5.495 -25 6 C-25 5.34 -25 4.68 -25 4 C-24.14341797 3.96132813 -24.14341797 3.96132813 -23.26953125 3.921875 C-16.69415717 3.46191243 -10.91688356 1.87251914 -4.6875 -0.2578125 C-2 -1 -2 -1 0 0 Z " fill="#127BCA" transform="translate(420,732)"/>
<path d="M0 0 C3.31436328 1.39288974 4.94091339 2.88613506 7 5.8125 C7.51691406 6.5240625 8.03382813 7.235625 8.56640625 7.96875 C9.70069219 9.57591264 10.82154032 11.19255854 11.9375 12.8125 C14.69106768 15.73295057 17.24755567 16.62891457 21 18 C21 18.66 21 19.32 21 20 C13.57401351 18.91704364 10.56034493 14.63824464 6 9 C4.83594345 7.68518453 3.66956757 6.37241567 2.5 5.0625 C0 2 0 2 0 0 Z " fill="#4493C4" transform="translate(473,537)"/>
<path d="M0 0 C10.2093919 0.52355856 17.98805793 9.41258052 25 16 C24.01 16.33 23.02 16.66 22 17 C21.443125 16.175 20.88625 15.35 20.3125 14.5 C16.73808362 10.15078238 11.84603915 7.63808306 7.05859375 4.83203125 C4.5646368 3.33820518 2.27731873 1.79846931 0 0 Z " fill="#4391C3" transform="translate(377,478)"/>
<path d="M0 0 C0.66 0.33 1.32 0.66 2 1 C0.69675781 2.17755859 0.69675781 2.17755859 -0.6328125 3.37890625 C-6.44202935 8.66261138 -12.09820689 13.83774581 -17 20 C-17.66 19.67 -18.32 19.34 -19 19 C-6.51480638 5.18223235 -6.51480638 5.18223235 0 0 Z " fill="#EFF8FC" transform="translate(666,390)"/>
<path d="M0 0 C0.33 0.66 0.66 1.32 1 2 C1.83144531 1.97679687 2.66289063 1.95359375 3.51953125 1.9296875 C5.14955078 1.90261719 5.14955078 1.90261719 6.8125 1.875 C7.89144531 1.85179687 8.97039063 1.82859375 10.08203125 1.8046875 C13 2 13 2 16 4 C7.75 4 -0.5 4 -9 4 C-9 3.67 -9 3.34 -9 3 C-4.545 2.505 -4.545 2.505 0 2 C0 1.34 0 0.68 0 0 Z " fill="#4EA7DF" transform="translate(719,347)"/>
<path d="M0 0 C0.66 0.33 1.32 0.66 2 1 C0.96875 1.804375 -0.0625 2.60875 -1.125 3.4375 C-6.73034047 8.23558048 -10.42596846 14.12383124 -13 21 C-13.88045846 18.56223065 -14.1296961 17.36544579 -13.25 14.88671875 C-9.98238484 9.13775832 -6.09537746 3.04768873 0 0 Z " fill="#3F88B7" transform="translate(214,557)"/>
<path d="M0 0 C2.82994778 2.58386536 3.87401993 4.50519804 4.203125 8.41015625 C4.21859375 9.28542969 4.2340625 10.16070312 4.25 11.0625 C4.27578125 11.94035156 4.3015625 12.81820313 4.328125 13.72265625 C4.21984375 14.47417969 4.1115625 15.22570312 4 16 C3.01 16.66 2.02 17.32 1 18 C1.01740234 16.67935547 1.01740234 16.67935547 1.03515625 15.33203125 C1.04417969 14.17058594 1.05320312 13.00914062 1.0625 11.8125 C1.07410156 10.66394531 1.08570313 9.51539063 1.09765625 8.33203125 C1.01192832 5.40699414 0.67849023 2.83683709 0 0 Z " fill="#2B8CD2" transform="translate(423,329)"/>
<path d="M0 0 C0.66 0 1.32 0 2 0 C3.3440093 1.99284138 4.67541292 3.99419671 6 6 C7.64488294 7.68816933 9.31337542 9.35353315 11 11 C13.03730427 13.30220199 15.02466077 15.64452676 17 18 C14.06949729 16.65739083 11.79086409 15.12851462 9.375 13 C8.78460937 12.484375 8.19421875 11.96875 7.5859375 11.4375 C4.44773262 8.59301873 2.24695934 5.59513494 0 2 C0 1.34 0 0.68 0 0 Z " fill="#3E89B9" transform="translate(575,630)"/>
<path d="M0 0 C0.66 0.33 1.32 0.66 2 1 C-5.98329208 15.1285066 -5.98329208 15.1285066 -11.8125 16.8125 C-12.534375 16.874375 -13.25625 16.93625 -14 17 C-12.25516601 15.25516601 -10.50546358 13.54556112 -8.6875 11.875 C-5.2732684 8.22256619 -2.67071861 4.21257677 0 0 Z " fill="#F0F9FD" transform="translate(250,554)"/>
<path d="M0 0 C2.31 0 4.62 0 7 0 C7.33 0.66 7.66 1.32 8 2 C10.33843243 3.2776108 12.6643111 4.47161883 15.0625 5.625 C15.72572266 5.94984375 16.38894531 6.2746875 17.07226562 6.609375 C18.71221247 7.41165115 20.35577492 8.2065288 22 9 C21.01 9.495 21.01 9.495 20 10 C17.90238318 9.16682073 15.84462979 8.23215709 13.8125 7.25 C12.64976562 6.69570312 11.48703125 6.14140625 10.2890625 5.5703125 C8.66097656 4.79300781 8.66097656 4.79300781 7 4 C4.67741553 2.97024572 2.34362665 1.98105302 0 1 C0 0.67 0 0.34 0 0 Z " fill="#1E82CE" transform="translate(573,216)"/>
<path d="M0 0 C0.66 0.33 1.32 0.66 2 1 C-0.11918422 3.65053915 -2.24630516 6.29459512 -4.375 8.9375 C-4.97828125 9.69224609 -5.5815625 10.44699219 -6.203125 11.22460938 C-7.07324219 12.30258789 -7.07324219 12.30258789 -7.9609375 13.40234375 C-8.76217041 14.39995728 -8.76217041 14.39995728 -9.57958984 15.41772461 C-11 17 -11 17 -13 18 C-11.4805627 13.1396313 -8.67081346 9.93920644 -5.375 6.1875 C-4.859375 5.59001953 -4.34375 4.99253906 -3.8125 4.37695312 C-2.54753728 2.91287591 -1.27456166 1.45572845 0 0 Z " fill="#3E8BBC" transform="translate(611,419)"/>
<path d="M0 0 C0.99 0.33 1.98 0.66 3 1 C2.52949219 1.51949219 2.05898437 2.03898438 1.57421875 2.57421875 C-2.39465646 7.0042264 -2.39465646 7.0042264 -5.6875 11.9375 C-7 14 -7 14 -9.1875 14.8125 C-9.785625 14.874375 -10.38375 14.93625 -11 15 C-10.67 14.34 -10.34 13.68 -10 13 C-9.34 13 -8.68 13 -8 13 C-7.79375 12.34 -7.5875 11.68 -7.375 11 C-5.48847129 6.88393737 -2.79432021 3.5412297 0 0 Z " fill="#4FA9E0" transform="translate(237,538)"/>
<path d="M0 0 C2.75731275 0.08109743 4.50043617 0.54789473 6.5625 2.4140625 C9.69996884 5.97508963 12.24135959 9.55167424 14 14 C13.67 14.66 13.34 15.32 13 16 C12.34644531 14.87851562 12.34644531 14.87851562 11.6796875 13.734375 C8.31530474 8.17076369 5.76680845 4.09438502 0 1 C0 0.67 0 0.34 0 0 Z " fill="#EFF9FC" transform="translate(454,550)"/>
<path d="M0 0 C0.66 0.33 1.32 0.66 2 1 C-4.54201681 7.90546218 -4.54201681 7.90546218 -10.25 8.125 C-11.1575 8.08375 -12.065 8.0425 -13 8 C-13.33 7.34 -13.66 6.68 -14 6 C-13.32453125 5.90203125 -12.6490625 5.8040625 -11.953125 5.703125 C-5.04032595 4.62920914 -5.04032595 4.62920914 0 0 Z " fill="#F2FBFD" transform="translate(658,489)"/>
<path d="M0 0 C3.39527689 1.40494216 5.30647023 2.69761694 7 6 C7.4089626 9.05063996 7.56948031 11.96835483 7 15 C5.4765625 16.77734375 5.4765625 16.77734375 4 18 C4.165 17.484375 4.33 16.96875 4.5 16.4375 C5.16025316 13.21876586 5.17875792 10.27722861 5 7 C3.27773504 3.75150023 3.27773504 3.75150023 0 3 C0 2.01 0 1.02 0 0 Z " fill="#1379CA" transform="translate(652,473)"/>
<path d="M0 0 C0.99 0.33 1.98 0.66 3 1 C3.33 6.61 3.66 12.22 4 18 C3.67 18 3.34 18 3 18 C2.49490792 15.75113762 1.99610821 13.50086131 1.5 11.25 C1.2215625 9.99703125 0.943125 8.7440625 0.65625 7.453125 C0 4 0 4 0 0 Z " fill="#167ECD" transform="translate(808,429)"/>
<path d="M0 0 C-0.66 0.66 -1.32 1.32 -2 2 C0.31 2.33 2.62 2.66 5 3 C5 3.33 5 3.66 5 4 C3.39667209 4.08121924 1.79215974 4.13929134 0.1875 4.1875 C-0.70582031 4.22230469 -1.59914063 4.25710938 -2.51953125 4.29296875 C-5.41647515 3.95081002 -6.22555028 3.24606427 -8 1 C-5.07175348 0.02391783 -3.04386724 -0.08226668 0 0 Z " fill="#50AAE0" transform="translate(407,494)"/>
<path d="M0 0 C4.77135213 3.57851409 7.29076328 6.68572797 10 12 C6.40690966 10.80230322 5.57906747 9.5323211 3.3125 6.5625 C2.68988281 5.75941406 2.06726563 4.95632813 1.42578125 4.12890625 C0 2 0 2 0 0 Z " fill="#EEF8FB" transform="translate(389,313)"/>
<path d="M0 0 C1.32 0.66 2.64 1.32 4 2 C4 2.33 4 2.66 4 3 C-0.0527516 3.98248524 -3.83861737 4.08159574 -8 4 C-7.34 3.01 -6.68 2.02 -6 1 C-3.03 1.495 -3.03 1.495 0 2 C0 1.34 0 0.68 0 0 Z " fill="#2689D1" transform="translate(395,736)"/>
<path d="M0 0 C-0.79664063 0.38091797 -0.79664063 0.38091797 -1.609375 0.76953125 C-5.3324172 2.58349524 -8.79762215 4.3313518 -12 7 C-12.66 6.67 -13.32 6.34 -14 6 C-12.70982586 5.01886757 -11.41780894 4.04015801 -10.125 3.0625 C-9.04605469 2.24458984 -9.04605469 2.24458984 -7.9453125 1.41015625 C-4.79663879 -0.87231606 -3.68795134 -1.1063854 0 0 Z " fill="#F4FAFD" transform="translate(265,546)"/>
<path d="M0 0 C0 3 0 3 -1.3125 4.5 C-1.869375 4.995 -2.42625 5.49 -3 6 C-3.556875 6.556875 -4.11375 7.11375 -4.6875 7.6875 C-5.120625 8.120625 -5.55375 8.55375 -6 9 C-6.66 8.67 -7.32 8.34 -8 8 C-6.49776416 3.79373966 -3.71449966 2.26099979 0 0 Z " fill="#4495C8" transform="translate(659,368)"/>
<path d="M0 0 C4.29 0 8.58 0 13 0 C13 0.33 13 0.66 13 1 C11.5899511 1.41879658 10.17145188 1.80921039 8.75 2.1875 C7.96109375 2.40792969 7.1721875 2.62835938 6.359375 2.85546875 C4 3 4 3 0 0 Z " fill="#F1F9FD" transform="translate(496,212)"/>
<path d="M0 0 C0.66 0.66 1.32 1.32 2 2 C-1.465 4.97 -1.465 4.97 -5 8 C-5 7.01 -5 6.02 -5 5 C-4.01 4.67 -3.02 4.34 -2 4 C-2 3.01 -2 2.02 -2 1 C-1.34 0.67 -0.68 0.34 0 0 Z " fill="#D1EAF5" transform="translate(458,679)"/>
<path d="M0 0 C0.66 0.33 1.32 0.66 2 1 C-0.23775234 4.3566285 -0.93320048 4.57996014 -4.625 5.6875 C-5.44226563 5.93886719 -6.25953125 6.19023437 -7.1015625 6.44921875 C-7.72804688 6.63097656 -8.35453125 6.81273437 -9 7 C-6.25604436 4.05278838 -3.61662784 1.80831392 0 0 Z " fill="#1D83D0" transform="translate(577,338)"/>
<path d="M0 0 C0.99 0.33 1.98 0.66 3 1 C2.67 1.66 2.34 2.32 2 3 C3.32 3.33 4.64 3.66 6 4 C3 5 3 5 -0.1875 3.5625 C-1.115625 3.046875 -2.04375 2.53125 -3 2 C-2.01 1.34 -1.02 0.68 0 0 Z " fill="#F0F9FC" transform="translate(419,229)"/>
<path d="M0 0 C-0.33 1.98 -0.66 3.96 -1 6 C-1.66 5.01 -2.32 4.02 -3 3 C-4.65 3.33 -6.3 3.66 -8 4 C-6.4425489 0.88509781 -3.40085499 0 0 0 Z " fill="#F3FAFC" transform="translate(426,730)"/>
<path d="M0 0 C4.99275057 1.27721526 7.57611908 3.17330957 11 7 C6.49696476 7 4.32098825 4.27543693 1.1875 1.25 C0.795625 0.8375 0.40375 0.425 0 0 Z " fill="#F3FAFD" transform="translate(309,554)"/>
<path d="M0 0 C3.7952131 1.49097658 5.61042731 3.75700849 8 7 C7.01 7 6.02 7 5 7 C0 1.53488372 0 1.53488372 0 0 Z " fill="#E9F6FB" transform="translate(269,391)"/>
<path d="M0 0 C1.98 0.66 3.96 1.32 6 2 C6 2.99 6 3.98 6 5 C4.02 4.34 2.04 3.68 0 3 C0 2.01 0 1.02 0 0 Z " fill="#3393D5" transform="translate(410,249)"/>
<path d="M0 0 C0.66 0 1.32 0 2 0 C3.65 2.97 5.3 5.94 7 9 C6.01 9 5.02 9 4 9 C3.566875 7.88625 3.566875 7.88625 3.125 6.75 C2.17697356 4.43260203 1.15154089 2.22082885 0 0 Z " fill="#4492C3" transform="translate(575,630)"/>
<path d="M0 0 C2.375 0.25 2.375 0.25 5 1 C6.3125 3.0625 6.3125 3.0625 7 5 C6.01 6.485 6.01 6.485 5 8 C4.54625 7.05125 4.0925 6.1025 3.625 5.125 C2.19761746 1.99686321 2.19761746 1.99686321 0 0 Z " fill="#4492C5" transform="translate(264,715)"/>
<path d="M0 0 C0 3.10551666 -0.5393715 4.35261084 -2 7 C-2.99 6.34 -3.98 5.68 -5 5 C-3.35 3.35 -1.7 1.7 0 0 Z " fill="#2A8BD2" transform="translate(459,681)"/>
<path d="M0 0 C2.79872437 2.52788007 4.45773019 4.20411134 5 8 C4.01 8.495 4.01 8.495 3 9 C0 3.375 0 3.375 0 0 Z " fill="#E7F4FB" transform="translate(580,596)"/>
<path d="M0 0 C2.64 0 5.28 0 8 0 C8 0.33 8 0.66 8 1 C5.36 1 2.72 1 0 1 C0 0.67 0 0.34 0 0 Z " fill="#5BAEDE" transform="translate(346,472)"/>
<path d="M0 0 C1.32 0 2.64 0 4 0 C3.67 0.66 3.34 1.32 3 2 C2.01 2 1.02 2 0 2 C0 1.34 0 0.68 0 0 Z " fill="#549FCD" transform="translate(305,773)"/>
<path d="M0 0 C0.33 0 0.66 0 1 0 C1 1.65 1 3.3 1 5 C0.67 5 0.34 5 0 5 C0 3.35 0 1.7 0 0 Z " fill="#56A3D2" transform="translate(265,730)"/>
<path d="M0 0 C1.65 0 3.3 0 5 0 C5 0.33 5 0.66 5 1 C3.35 1 1.7 1 0 1 C0 0.67 0 0.34 0 0 Z " fill="#57AADE" transform="translate(312,439)"/>
<path d="M0 0 C1.32 0.33 2.64 0.66 4 1 C3.01 1.495 3.01 1.495 2 2 C1.34 1.34 0.68 0.68 0 0 Z " fill="#57A8D9" transform="translate(296,435)"/>
<path d="M0 0 C0.66 0 1.32 0 2 0 C2 0.66 2 1.32 2 2 C1.34 2 0.68 2 0 2 C0 1.34 0 0.68 0 0 Z " fill="#55A5D7" transform="translate(593,652)"/>
<path d="M0 0 C0.99 0.33 1.98 0.66 3 1 C2.01 1 1.02 1 0 1 C0 0.67 0 0.34 0 0 Z " fill="#56A9DC" transform="translate(421,496)"/>
<path d="M0 0 C0.66 0 1.32 0 2 0 C1.67 0.99 1.34 1.98 1 3 C0.67 2.01 0.34 1.02 0 0 Z " fill="#55A3D2" transform="translate(241,389)"/>
<path d="M0 0 C0.99 0.495 0.99 0.495 2 1 C1.67 1.66 1.34 2.32 1 3 C0.67 2.01 0.34 1.02 0 0 Z " fill="#54A1D1" transform="translate(644,251)"/>
<path d="M0 0 C0.33 0.66 0.66 1.32 1 2 C0.34 1.67 -0.32 1.34 -1 1 C-0.67 0.67 -0.34 0.34 0 0 Z " fill="#57A5D4" transform="translate(448,718)"/>
<path d="M0 0 C3 1 3 1 3 1 Z " fill="#53A0D0" transform="translate(683,678)"/>
<path d="M0 0 C3 1 3 1 3 1 Z " fill="#54A0CF" transform="translate(651,678)"/>
<path d="M0 0 C3 1 3 1 3 1 Z " fill="#549ECF" transform="translate(689,677)"/>
<path d="M0 0 C0.66 0 1.32 0 2 0 C1.67 0.66 1.34 1.32 1 2 C0.67 1.34 0.34 0.68 0 0 Z " fill="#58A7D8" transform="translate(569,627)"/>
<path d="" fill="#58A1CF" transform="translate(0,0)"/>
<path d="M0 0 C3 1 3 1 3 1 Z " fill="#58AADD" transform="translate(400,437)"/>
<path d="M0 0 C3 1 3 1 3 1 Z " fill="#53A3D2" transform="translate(465,192)"/>
<path d="M0 0 C2 1 2 1 2 1 Z " fill="#549FCC" transform="translate(366,779)"/>
<path d="M0 0 C2 1 2 1 2 1 Z " fill="#569FCD" transform="translate(358,779)"/>
<path d="M0 0 C2 1 2 1 2 1 Z " fill="#52A0CE" transform="translate(400,775)"/>
<path d="M0 0 C2 1 2 1 2 1 Z " fill="#549ECD" transform="translate(409,773)"/>
<path d="M0 0 C2 1 2 1 2 1 Z " fill="#529DC9" transform="translate(297,771)"/>
<path d="M0 0 C2 1 2 1 2 1 Z " fill="#53A2D2" transform="translate(659,678)"/>
<path d="M0 0 C2 1 2 1 2 1 Z " fill="#54A2D2" transform="translate(656,678)"/>
<path d="M0 0 C2 1 2 1 2 1 Z " fill="#53A0D0" transform="translate(649,677)"/>
<path d="" fill="#57A3D2" transform="translate(0,0)"/>
<path d="" fill="#58A5D4" transform="translate(0,0)"/>
<path d="" fill="#59A4D4" transform="translate(0,0)"/>
<path d="" fill="#54A3D4" transform="translate(0,0)"/>
<path d="" fill="#56AADD" transform="translate(0,0)"/>
<path d="" fill="#59A9DB" transform="translate(0,0)"/>
<path d="" fill="#58AADB" transform="translate(0,0)"/>
<path d="" fill="#59A4D3" transform="translate(0,0)"/>
<path d="" fill="#58A6D5" transform="translate(0,0)"/>
<path d="M0 0 C2 1 2 1 2 1 Z " fill="#58A6D7" transform="translate(245,528)"/>
<path d="M0 0 C2 1 2 1 2 1 Z " fill="#5BACDB" transform="translate(297,491)"/>
<path d="M0 0 C2 1 2 1 2 1 Z " fill="#58ADE0" transform="translate(397,488)"/>
<path d="M0 0 C2 1 2 1 2 1 Z " fill="#59ABDE" transform="translate(370,473)"/>
<path d="M0 0 C2 1 2 1 2 1 Z " fill="#59ACDD" transform="translate(341,473)"/>
<path d="M0 0 C2 1 2 1 2 1 Z " fill="#5AADDE" transform="translate(361,472)"/>
<path d="M0 0 C2 1 2 1 2 1 Z " fill="#5CADDE" transform="translate(357,472)"/>
<path d="M0 0 C2 1 2 1 2 1 Z " fill="#59ACDF" transform="translate(387,439)"/>
<path d="M0 0 C2 1 2 1 2 1 Z " fill="#56AAE0" transform="translate(384,439)"/>
<path d="M0 0 C2 1 2 1 2 1 Z " fill="#59ABE0" transform="translate(392,438)"/>
<path d="M0 0 C2 1 2 1 2 1 Z " fill="#57A7D8" transform="translate(299,438)"/>
<path d="M0 0 C2 1 2 1 2 1 Z " fill="#57A7D9" transform="translate(301,436)"/>
<path d="M0 0 C2 1 2 1 2 1 Z " fill="#57A8DA" transform="translate(285,431)"/>
<path d="M0 0 C2 1 2 1 2 1 Z " fill="#54A6DA" transform="translate(429,430)"/>
<path d="M0 0 C2 1 2 1 2 1 Z " fill="#59AADE" transform="translate(476,415)"/>
<path d="" fill="#55A1D1" transform="translate(0,0)"/>
<path d="M0 0 C2 1 2 1 2 1 Z " fill="#51A0D2" transform="translate(779,360)"/>
<path d="" fill="#55A4D4" transform="translate(0,0)"/>
<path d="M0 0 C2 1 2 1 2 1 Z " fill="#56A2D4" transform="translate(761,352)"/>
<path d="M0 0 C2 1 2 1 2 1 Z " fill="#5AA8DC" transform="translate(601,349)"/>
<path d="M0 0 C2 1 2 1 2 1 Z " fill="#57A4D0" transform="translate(748,348)"/>
<path d="" fill="#57A2D2" transform="translate(0,0)"/>
<path d="" fill="#53A2D3" transform="translate(0,0)"/>
<path d="" fill="#59A6D6" transform="translate(0,0)"/>
<path d="M0 0 C2 1 2 1 2 1 Z " fill="#54A1D0" transform="translate(365,225)"/>
<path d="M0 0 C2 1 2 1 2 1 Z " fill="#53A5D3" transform="translate(386,216)"/>
<path d="M0 0 C2 1 2 1 2 1 Z " fill="#54A4D1" transform="translate(433,200)"/>
<path d="M0 0 C2 1 2 1 2 1 Z " fill="#51A0D0" transform="translate(572,192)"/>
<path d="" fill="#323D41" transform="translate(0,0)"/>
<path d="" fill="#529BC7" transform="translate(0,0)"/>
<path d="" fill="#539AC6" transform="translate(0,0)"/>
<path d="" fill="#559FCD" transform="translate(0,0)"/>
<path d="" fill="#579FC9" transform="translate(0,0)"/>
<path d="" fill="#53A1D3" transform="translate(0,0)"/>
<path d="" fill="#53A1D0" transform="translate(0,0)"/>
<path d="" fill="#549FCD" transform="translate(0,0)"/>
<path d="" fill="#53A0CF" transform="translate(0,0)"/>
<path d="" fill="#559FCC" transform="translate(0,0)"/>
<path d="" fill="#549CCB" transform="translate(0,0)"/>
<path d="" fill="#539DCB" transform="translate(0,0)"/>
<path d="" fill="#569DCA" transform="translate(0,0)"/>
<path d="" fill="#509BCC" transform="translate(0,0)"/>
<path d="" fill="#52A1D3" transform="translate(0,0)"/>
<path d="" fill="#529CCB" transform="translate(0,0)"/>
<path d="" fill="#539DCE" transform="translate(0,0)"/>
<path d="" fill="#549CCA" transform="translate(0,0)"/>
<path d="" fill="#519CC9" transform="translate(0,0)"/>
<path d="" fill="#519AC9" transform="translate(0,0)"/>
<path d="" fill="#519BC9" transform="translate(0,0)"/>
<path d="" fill="#529BC9" transform="translate(0,0)"/>
<path d="" fill="#4F9CC9" transform="translate(0,0)"/>
<path d="" fill="#55A1CF" transform="translate(0,0)"/>
<path d="" fill="#529DCE" transform="translate(0,0)"/>
<path d="" fill="#56A0CB" transform="translate(0,0)"/>
<path d="" fill="#559FCB" transform="translate(0,0)"/>
<path d="" fill="#54A1CD" transform="translate(0,0)"/>
<path d="" fill="#57A6D9" transform="translate(0,0)"/>
<path d="" fill="#55A1D1" transform="translate(0,0)"/>
<path d="" fill="#55A2D0" transform="translate(0,0)"/>
<path d="" fill="#55A0CE" transform="translate(0,0)"/>
<path d="" fill="#57A5D0" transform="translate(0,0)"/>
<path d="" fill="#56A2CE" transform="translate(0,0)"/>
<path d="" fill="#53A1D2" transform="translate(0,0)"/>
<path d="" fill="#55A1D0" transform="translate(0,0)"/>
<path d="" fill="#56A0CE" transform="translate(0,0)"/>
<path d="" fill="#54A3D2" transform="translate(0,0)"/>
<path d="" fill="#52A1D0" transform="translate(0,0)"/>
<path d="" fill="#52A2D1" transform="translate(0,0)"/>
<path d="" fill="#52A1D0" transform="translate(0,0)"/>
<path d="" fill="#549FCF" transform="translate(0,0)"/>
<path d="" fill="#549FCE" transform="translate(0,0)"/>
<path d="" fill="#549ECC" transform="translate(0,0)"/>
<path d="" fill="#55A2D1" transform="translate(0,0)"/>
<path d="" fill="#53A1D0" transform="translate(0,0)"/>
<path d="" fill="#55A3D4" transform="translate(0,0)"/>
<path d="" fill="#56A1D2" transform="translate(0,0)"/>
<path d="" fill="#55A2D0" transform="translate(0,0)"/>
<path d="" fill="#54A2D0" transform="translate(0,0)"/>
<path d="" fill="#54A3D4" transform="translate(0,0)"/>
<path d="" fill="#56A0CE" transform="translate(0,0)"/>
<path d="" fill="#55A5D3" transform="translate(0,0)"/>
<path d="" fill="#569DD0" transform="translate(0,0)"/>
<path d="" fill="#54A5D5" transform="translate(0,0)"/>
<path d="" fill="#55A8D9" transform="translate(0,0)"/>
<path d="" fill="#54A0D1" transform="translate(0,0)"/>
<path d="" fill="#579ECB" transform="translate(0,0)"/>
<path d="" fill="#55A7D4" transform="translate(0,0)"/>
<path d="" fill="#56A5D6" transform="translate(0,0)"/>
<path d="" fill="#59A2D1" transform="translate(0,0)"/>
<path d="" fill="#559FCC" transform="translate(0,0)"/>
<path d="" fill="#59A7D7" transform="translate(0,0)"/>
<path d="" fill="#55A4D6" transform="translate(0,0)"/>
<path d="" fill="#55A5D8" transform="translate(0,0)"/>
<path d="" fill="#55A7DB" transform="translate(0,0)"/>
<path d="" fill="#55A1CF" transform="translate(0,0)"/>
<path d="" fill="#58A7D9" transform="translate(0,0)"/>
<path d="" fill="#57AADA" transform="translate(0,0)"/>
<path d="" fill="#56A8DA" transform="translate(0,0)"/>
<path d="" fill="#57A4D1" transform="translate(0,0)"/>
<path d="" fill="#56A2D0" transform="translate(0,0)"/>
<path d="" fill="#59A8D7" transform="translate(0,0)"/>
<path d="" fill="#53A1D1" transform="translate(0,0)"/>
<path d="" fill="#59A9DA" transform="translate(0,0)"/>
<path d="" fill="#55A8DD" transform="translate(0,0)"/>
<path d="" fill="#58ABDC" transform="translate(0,0)"/>
<path d="" fill="#55A9DC" transform="translate(0,0)"/>
<path d="" fill="#5AABDA" transform="translate(0,0)"/>
<path d="" fill="#57A3CF" transform="translate(0,0)"/>
<path d="" fill="#5AA8DE" transform="translate(0,0)"/>
<path d="" fill="#58ADDE" transform="translate(0,0)"/>
<path d="" fill="#59ABDE" transform="translate(0,0)"/>
<path d="" fill="#5BAADA" transform="translate(0,0)"/>
<path d="" fill="#58A3D0" transform="translate(0,0)"/>
<path d="" fill="#56A2D1" transform="translate(0,0)"/>
<path d="" fill="#59A1CB" transform="translate(0,0)"/>
<path d="" fill="#5DADDD" transform="translate(0,0)"/>
<path d="" fill="#58A7D4" transform="translate(0,0)"/>
<path d="" fill="#5CAEE0" transform="translate(0,0)"/>
<path d="" fill="#5BAEDE" transform="translate(0,0)"/>
<path d="" fill="#57A5D2" transform="translate(0,0)"/>
<path d="" fill="#5CAADB" transform="translate(0,0)"/>
<path d="" fill="#60AEE1" transform="translate(0,0)"/>
<path d="" fill="#56A4D2" transform="translate(0,0)"/>
<path d="" fill="#5BA9D8" transform="translate(0,0)"/>
<path d="" fill="#5DAEE0" transform="translate(0,0)"/>
<path d="" fill="#57A7D5" transform="translate(0,0)"/>
<path d="" fill="#54A4D4" transform="translate(0,0)"/>
<path d="" fill="#59ADDE" transform="translate(0,0)"/>
<path d="" fill="#59A9DD" transform="translate(0,0)"/>
<path d="" fill="#58AAD5" transform="translate(0,0)"/>
<path d="" fill="#5BACDA" transform="translate(0,0)"/>
<path d="" fill="#5AA2D0" transform="translate(0,0)"/>
<path d="" fill="#58AADA" transform="translate(0,0)"/>
<path d="" fill="#5AABDC" transform="translate(0,0)"/>
<path d="" fill="#5BABDA" transform="translate(0,0)"/>
<path d="" fill="#59ACDD" transform="translate(0,0)"/>
<path d="" fill="#57A9DA" transform="translate(0,0)"/>
<path d="" fill="#56A7D7" transform="translate(0,0)"/>
<path d="" fill="#5CADE0" transform="translate(0,0)"/>
<path d="" fill="#5CADDF" transform="translate(0,0)"/>
<path d="" fill="#59A8D9" transform="translate(0,0)"/>
<path d="" fill="#5AADDC" transform="translate(0,0)"/>
<path d="" fill="#5BAEDB" transform="translate(0,0)"/>
<path d="" fill="#55A8DB" transform="translate(0,0)"/>
<path d="" fill="#58A9D8" transform="translate(0,0)"/>
<path d="" fill="#56ADDF" transform="translate(0,0)"/>
<path d="" fill="#59ABDB" transform="translate(0,0)"/>
<path d="" fill="#5AACE1" transform="translate(0,0)"/>
<path d="" fill="#5BABDC" transform="translate(0,0)"/>
<path d="" fill="#5CABDF" transform="translate(0,0)"/>
<path d="" fill="#5AADDF" transform="translate(0,0)"/>
<path d="" fill="#59ABDE" transform="translate(0,0)"/>
<path d="" fill="#58ACDF" transform="translate(0,0)"/>
<path d="" fill="#5AACDF" transform="translate(0,0)"/>
<path d="" fill="#56A4D0" transform="translate(0,0)"/>
<path d="" fill="#55A9DC" transform="translate(0,0)"/>
<path d="" fill="#5CAEE0" transform="translate(0,0)"/>
<path d="" fill="#58A4D0" transform="translate(0,0)"/>
<path d="" fill="#5AACDF" transform="translate(0,0)"/>
<path d="" fill="#58A9DC" transform="translate(0,0)"/>
<path d="" fill="#59ACDD" transform="translate(0,0)"/>
<path d="" fill="#5CACDD" transform="translate(0,0)"/>
<path d="" fill="#5AABDD" transform="translate(0,0)"/>
<path d="" fill="#59A9DC" transform="translate(0,0)"/>
<path d="" fill="#5BA8DA" transform="translate(0,0)"/>
<path d="" fill="#59ACDE" transform="translate(0,0)"/>
<path d="" fill="#5AA9DE" transform="translate(0,0)"/>
<path d="" fill="#5AABDC" transform="translate(0,0)"/>
<path d="" fill="#56A6D6" transform="translate(0,0)"/>
<path d="" fill="#55A3D2" transform="translate(0,0)"/>
<path d="" fill="#58ABDF" transform="translate(0,0)"/>
<path d="" fill="#59A5D6" transform="translate(0,0)"/>
<path d="" fill="#59AADD" transform="translate(0,0)"/>
<path d="" fill="#57AADC" transform="translate(0,0)"/>
<path d="" fill="#56A7D8" transform="translate(0,0)"/>
<path d="" fill="#56A7D7" transform="translate(0,0)"/>
<path d="" fill="#58A9DC" transform="translate(0,0)"/>
<path d="" fill="#57A8D8" transform="translate(0,0)"/>
<path d="" fill="#56A5DA" transform="translate(0,0)"/>
<path d="" fill="#56A6D9" transform="translate(0,0)"/>
<path d="" fill="#58A3D1" transform="translate(0,0)"/>
<path d="" fill="#59ABDD" transform="translate(0,0)"/>
<path d="" fill="#54A5D7" transform="translate(0,0)"/>
<path d="" fill="#5BABDD" transform="translate(0,0)"/>
<path d="" fill="#5AADDE" transform="translate(0,0)"/>
<path d="" fill="#56A4D5" transform="translate(0,0)"/>
<path d="" fill="#58A9DE" transform="translate(0,0)"/>
<path d="" fill="#58ABDD" transform="translate(0,0)"/>
<path d="" fill="#57A9DD" transform="translate(0,0)"/>
<path d="" fill="#57A7DC" transform="translate(0,0)"/>
<path d="" fill="#58ACDD" transform="translate(0,0)"/>
<path d="" fill="#5AA2D1" transform="translate(0,0)"/>
<path d="" fill="#57AADE" transform="translate(0,0)"/>
<path d="" fill="#57A6D8" transform="translate(0,0)"/>
<path d="" fill="#5BABDD" transform="translate(0,0)"/>
<path d="" fill="#55A5D4" transform="translate(0,0)"/>
<path d="" fill="#5BA9DA" transform="translate(0,0)"/>
<path d="" fill="#56A2D4" transform="translate(0,0)"/>
<path d="" fill="#54A5D2" transform="translate(0,0)"/>
<path d="" fill="#5AAADD" transform="translate(0,0)"/>
<path d="" fill="#58A8DE" transform="translate(0,0)"/>
<path d="" fill="#56A0D1" transform="translate(0,0)"/>
<path d="" fill="#54A2D1" transform="translate(0,0)"/>
<path d="" fill="#55A0D0" transform="translate(0,0)"/>
<path d="" fill="#52A2D0" transform="translate(0,0)"/>
<path d="" fill="#5CAADB" transform="translate(0,0)"/>
<path d="" fill="#58AEDE" transform="translate(0,0)"/>
<path d="" fill="#569FD1" transform="translate(0,0)"/>
<path d="" fill="#539ECC" transform="translate(0,0)"/>
<path d="" fill="#57A0CE" transform="translate(0,0)"/>
<path d="" fill="#55A0CF" transform="translate(0,0)"/>
<path d="" fill="#57ABDD" transform="translate(0,0)"/>
<path d="" fill="#57A3D2" transform="translate(0,0)"/>
<path d="" fill="#59A8DD" transform="translate(0,0)"/>
<path d="" fill="#56A2CE" transform="translate(0,0)"/>
<path d="" fill="#59ABDB" transform="translate(0,0)"/>
<path d="" fill="#59A8DB" transform="translate(0,0)"/>
<path d="" fill="#57A8D9" transform="translate(0,0)"/>
<path d="" fill="#58A8D9" transform="translate(0,0)"/>
<path d="" fill="#57ABDA" transform="translate(0,0)"/>
<path d="" fill="#55A8DE" transform="translate(0,0)"/>
<path d="" fill="#59ACE1" transform="translate(0,0)"/>
<path d="" fill="#57A4D0" transform="translate(0,0)"/>
<path d="" fill="#57A6D8" transform="translate(0,0)"/>
<path d="" fill="#56A7D9" transform="translate(0,0)"/>
<path d="" fill="#55A2D2" transform="translate(0,0)"/>
<path d="" fill="#58A8D8" transform="translate(0,0)"/>
<path d="" fill="#57A7D7" transform="translate(0,0)"/>
<path d="" fill="#58A6D4" transform="translate(0,0)"/>
<path d="" fill="#5AA4CF" transform="translate(0,0)"/>
<path d="" fill="#56A2D1" transform="translate(0,0)"/>
<path d="" fill="#57A4D3" transform="translate(0,0)"/>
<path d="" fill="#59A6D6" transform="translate(0,0)"/>
<path d="" fill="#5AA8D7" transform="translate(0,0)"/>
<path d="" fill="#59A5D6" transform="translate(0,0)"/>
<path d="" fill="#58A5D5" transform="translate(0,0)"/>
<path d="" fill="#58A7D5" transform="translate(0,0)"/>
<path d="" fill="#53A2D2" transform="translate(0,0)"/>
<path d="" fill="#57A2D2" transform="translate(0,0)"/>
<path d="" fill="#59A8DB" transform="translate(0,0)"/>
<path d="" fill="#57A8DB" transform="translate(0,0)"/>
<path d="" fill="#57A8D8" transform="translate(0,0)"/>
<path d="" fill="#56A2D1" transform="translate(0,0)"/>
<path d="" fill="#59A8D9" transform="translate(0,0)"/>
<path d="" fill="#58A4D7" transform="translate(0,0)"/>
<path d="" fill="#5AA6D7" transform="translate(0,0)"/>
<path d="" fill="#55A2CF" transform="translate(0,0)"/>
<path d="" fill="#54A2D2" transform="translate(0,0)"/>
<path d="" fill="#57A5D7" transform="translate(0,0)"/>
<path d="" fill="#55A4D2" transform="translate(0,0)"/>
<path d="" fill="#52A1D3" transform="translate(0,0)"/>
<path d="" fill="#54A2D0" transform="translate(0,0)"/>
<path d="" fill="#56A5D4" transform="translate(0,0)"/>
<path d="" fill="#54A3D3" transform="translate(0,0)"/>
<path d="" fill="#54A3D4" transform="translate(0,0)"/>
<path d="" fill="#57A2D1" transform="translate(0,0)"/>
<path d="" fill="#53A6D7" transform="translate(0,0)"/>
<path d="" fill="#54A0CF" transform="translate(0,0)"/>
<path d="" fill="#55A6D3" transform="translate(0,0)"/>
<path d="" fill="#55A1D1" transform="translate(0,0)"/>
<path d="" fill="#539FD0" transform="translate(0,0)"/>
<path d="" fill="#55A3D2" transform="translate(0,0)"/>
<path d="" fill="#529ECE" transform="translate(0,0)"/>
<path d="" fill="#56A2D0" transform="translate(0,0)"/>
<path d="" fill="#56A0CC" transform="translate(0,0)"/>
<path d="" fill="#51A0D1" transform="translate(0,0)"/>
<path d="" fill="#55A2D0" transform="translate(0,0)"/>
<path d="" fill="#52A1D0" transform="translate(0,0)"/>
<path d="" fill="#55A1CC" transform="translate(0,0)"/>
<path d="" fill="#54A0CE" transform="translate(0,0)"/>
<path d="" fill="#53A2D0" transform="translate(0,0)"/>
<path d="" fill="#56A3D3" transform="translate(0,0)"/>
<path d="" fill="#58A0CD" transform="translate(0,0)"/>
<path d="" fill="#54A0CF" transform="translate(0,0)"/>
<path d="" fill="#53A0CE" transform="translate(0,0)"/>
</svg>
